<svg height="21" viewBox="0 0 21 21" width="21" xmlns="http://www.w3.org/2000/svg"><g fill="none" transform="translate(.8 .2083)"><path d="m3.40596687.92688413.88935395.88943669.03747397-.04244328c.2876874-.30994727.68628446-.51539775 1.1324748-.55338837l.15040597-.00637496c.96263485 0 1.74451071.77751267 1.74991326 1.74572844l-.00009722 2.66559433c-.00218246.15650131-.02543113.31199593-.07444717.48000767l-.01858566.05941088c-.00921072.02813648-.01912948.0560159-.03016605.08420863l-.0249719.05625666.11546784-.08410081c.69986864-.49489713 1.54328236-.8002606 2.45550972-.84135897l.21170153-.00475913c.99332359 0 1.91350669.31315195 2.66721139.84611809l.1111095.08210082-.0327481-.08096361-.0480218-.14915429-.0280333-.11277208c-.0233786-.11487913-.0351206-.23179257-.0351206-.34897754l.0000157-2.6572132c.0053932-.96261671.7872675-1.74012589 1.7499003-1.74012589.4813174 0 .9174451.19437817 1.2339187.50978331l.0860891.0914233.8897009-.88843669c.6432164-.64321648 1.662568-.68105274 2.3500356-.11350879l.1248381.11350879c.6834175.68341751.6834175 1.79145623 0 2.47487374l-.8905746.88956295.0436077.03723845c.3099473.2876874.5153977.68628447.5533884 1.1324748l.0063749.15040597c0 .96263486-.7775126 1.74451071-1.7457284 1.74991326l-2.7454519-.00440908-.1433534-.01614702-.1199282-.02015072-.1381499-.03345638-.091538-.02919418-.1052212-.0406751.0864591.11546781c.4948971.69986867.8002606 1.54328242.841359 2.45550982l.0047591.21170155c0 .9933236-.313152 1.9135066-.8461181 2.6672113l-.0814591.1091095.1065204-.0406634.1319323-.0405518.1202737-.0280517.1460456-.0228437.1806367-.0113922 2.6572464.0000157c.9626198.0053868 1.7401324.7872627 1.7401324 1.7498976 0 .4813174-.1943781.9174451-.5097636 1.2339187l-.0930239.0856708.8900176.8901191.0500442.0538669.1185261.1415138c.5143531.693215.4468828 1.6640453-.1685915 2.2795196-.6834175.6834175-1.7914562.6834175-2.4748737 0l-.8911227-.8910194-.0357318.0439995c-.2876874.3099472-.6862844.5153977-1.1324748.5533883l-.1504059.006375c-.9626349 0-1.7445108-.7775127-1.7499133-1.7457284l.0044151-2.7455157.016235-.143832.0200789-.119118.0318315-.1327677.0301685-.0962875.0407968-.0995135-.1091095.0814592c-.6998687.4948971-1.5432824.8002606-2.4555098.841359l-.21170159.0047591c-.99332354 0-1.91350654-.313152-2.66721124-.8461181l-.11746785-.0874592.0412656.0999768.03069317.0963061.03121714.1254817.02812786.1727455.00974216.0967481.00503163.1001895-.00001591 2.6572516c-.00543008.9625988-.78729524 1.7400875-1.74991591 1.7400875-.48131743 0-.91744511-.1943782-1.23391875-.5097833l-.08622699-.0930035-.88956295.8900169c-.64321648.6432165-1.66256801.6810527-2.35003567.1135088l-.12483807-.1135088c-.68341751-.6834175-.68341751-1.7914562 0-2.4748738l.88943669-.8901431-.04244328-.0366848c-.30994727-.2876874-.51539775-.6862844-.55338837-1.1324748l-.00637496-.1504059c0-.9626349.77751267-1.7445108 1.74572844-1.7499133l2.66496004.0000886c.15583295.0020742.31068293.0250499.46423701.0694275l.1022805.0335705.10871478.0419315-.0788149-.1106488c-.49489712-.6998687-.80026059-1.5432824-.84135895-2.4555098l-.00475913-.2117015c0-.9933236.31315194-1.91350664.84611806-2.66721135l.08710076-.11846783-.10246809.0426599-.09763052.0309188-.12243339.03042629-.17215905.02816909-.09750384.00984146-.10042386.00505525-2.6460983-.00001541c-.62749374.00348398-1.20882678-.32927093-1.52359346-.87212179-.31477364-.54286286-.31477364-1.21271284 0-1.75557571.07869341-.13571571.174048-.25829991.28253227-.36578148l.08777824-.0805764-.88522769-.88556295c-.64321648-.64321648-.68105274-1.66256801-.11350879-2.35003567l.11350879-.12483807c.68341751-.68341751 1.79145623-.68341751 2.47487374 0z" fill="#000" fill-opacity=".8"/><path d="m9.99999991 6.37510191c2.00197599 0 3.62489809 1.62292214 3.62489809 3.62489809 0 2.0019758-1.6229221 3.6248981-3.62489809 3.6248981-2.00197581 0-3.62489791-1.6229223-3.62489791-3.6248981 0-2.00197595 1.6229221-3.62489809 3.62489791-3.62489809zm8.36023169 10.92444479-2.1667696-2.1667696.8409179-.0001326c.4125278-.0023085.7457284-.337379.7457284-.7499132 0-.4125343-.3332006-.7476048-.7457284-.7499133h-2.6516504l-.0995461.0080989-.1202738.0280517-.1103796.0424658-.0871677.0483261-.0759518.0601976-.0825154.087028-.0710326.0994064-.0460809.0894275-.0301686.0962875-.0200788.119118-.0067392.0714792v2.6516505c.0023085.4125277.337379.7457284.7499133.7457284.4125342 0 .7476047-.3332007.7499132-.7457284l.0000265-.841024 2.1669022 2.1669022c.2928933.2928932.767767.2928932 1.0606602 0 .2662666-.2662665.2904726-.6829302.0726182-.9765417zm-12.26878267-11.1122547.08699974-.08247998.062555-.08032439c.03415498-.05324841.06140085-.11062352.08108217-.17074508l.01403253-.04514169c.01862735-.06408172.02853991-.13038014.02947045-.19710779v-2.65165042c-.00230854-.41252776-.33737904-.74572844-.74991326-.74572844s-.74760473.33320068-.74991326.74572844l-.00013258.8409179-2.16676963-2.16676964c-.29289322-.29289321-.76776696-.29289321-1.06066018 0-.29289321.29289322-.29289321.76776696 0 1.06066018l2.16690222 2.16690221h-.84105048c-.26891797-.00150488-.51805483.14109774-.65295011.37373996s-.13489528.51970438 0 .7523466c.13489528.23264221.38403214.37524484.65295011.37375175h2.65165042l.09750384-.00984146.09310269-.01698592.09763053-.0309188.08811373-.04532001zm7.54294807-.5758387c0 .05023098.0050179.10033633.0150349.14955839l.0151529.0575439.0280584.08277613.0269991.0556095.0421427.07270122.0433803.05830816.0564808.06022061.0502945.04523855.0702947.04932726.0556368.03293468.0635204.0296045.091538.02919417.1199281.02015072.0714544.00673221h2.6516504c.4125278-.00230853.7457284-.33737904.7457284-.74991326s-.3332006-.74760472-.7457284-.74991326l-.841077.00002652 2.1669022-2.16690221c.2928932-.29289322.2928932-.76776696 0-1.06066018-.2928932-.29289321-.7677669-.29289321-1.0606602 0l-2.1669022 2.16690222v-.84105048c-.0023085-.41252776-.337379-.74572844-.7499132-.74572844-.4125343 0-.7476048.33320068-.749916.74572844zm-7.27299862 11.4229259v-2.6516107l-.00974217-.0967481-.01715851-.0947612-.03069317-.0963061-.04502581-.0878784-.0715255-.1002191-.08257961-.0870409-.07950716-.0620667-.08499392-.0468825-.10871478-.0419316-.02384331-.0069927c-.06377789-.0184285-.12974027-.0282156-.19612137-.0290992h-2.65165042c-.41252776.0023085-.74572844.337379-.74572844.7499133 0 .4125342.33320068.7476047.74572844.7499132h.84105048l-2.16690222 2.1669022c-.29289321.2928932-.29289321.767767 0 1.0606602.29289322.2928932.76776696.2928932 1.06066018 0l2.16690221-2.1669022v.8410505c.00230853.4125277.33737904.7457284.74991326.7457284s.74760472-.3332007.74993182-.7457284z" fill="#247f52"/></g></svg>