<svg height="18" viewBox="0 0 18 18" width="18" xmlns="http://www.w3.org/2000/svg"><path d="m9 2.5v1.2381396h2.5999957l-.6499989-.61904813.6499989-.61904814h-2.5999957zm0 1.85715524 4.5499924 4.33332611v1.23803127s.1585998.61904818.9749984.61904818.9749984-.61904818.9749984-.61904818v-1.23803127zm0 0 .64999892 4.33332611v1.23803127s.32239946.61904818 1.29999788.61904818c.9775983 0 1.2999978-.61904818 1.2999978-.61904818v-1.23803127zm0 0-3.24999458 4.33332611v1.23803127s.32239946.61904818 1.29999783.61904818 1.29999783-.61904818 1.29999783-.61904818v-1.23803127zm0 0-6.49998917 4.33332611v1.23803127s.15859974.61904818.97499838.61904818.97499837-.61904818.97499837-.61904818v-1.23803127zm-3.8999935 6.19048136s-.64479893.6190481-1.62499729.6190481c-.13974977 0-.26698706-.0157841-.38593686-.0386857l-.58906152 4.372001h4.54999242l.64999892-2.4761709h2.59999563l.649999 2.4761709h4.5499924l-.5890616-4.372001c-.1189498.0229016-.246187.0386857-.3859368.0386857-1.1290481 0-1.6249973-.6190481-1.6249973-.6190481s-.7461988.6190481-1.9499967.6190481c-1.03804832 0-1.9499968-.6190481-1.9499968-.6190481s-.91714847.6190481-1.94999675.6190481c-1.18689802 0-1.94999675-.6190481-1.94999675-.6190481z" fill="#51585E"/></svg>