<svg height="16" viewBox="0 0 11 16" width="11" xmlns="http://www.w3.org/2000/svg" xmlns:xlink="http://www.w3.org/1999/xlink"><defs><path id="a" d="m0 0h11v16h-11z"/></defs><g fill="none" fill-rule="evenodd" xlink:href="#a"><path d="m10.0001572 14.39c.3016963.2121598.6431762.3576355.9997757.436427l.000218.930834c-.3488636-.0634535-.6875149-.1792072-.9999937-.347261-1.01503099.54-2.28933621.54-3.30444382 0-1.015031.54-2.28933621.54-3.29341088 0-1.01503099.54-2.28933621.54-3.30444382 0l-.09785868.047.00166119-1.0031275.09619749-.0638725c.97641568.675 2.33346799.675 3.30444382 0 .95986627.675 2.32243505.675 3.29341088 0 .97641569.675 2.33346799.675 3.30444382 0z" fill="#0a6074"/><path d="m6.384651 10.9990004.00012141 2.5767259c-.61351649.3154087-1.33426296.3972993-2.00061492.2456719l-.00050649-2.8223978zm-.000776-5.9990004-.000224 2h-2l.000224-2zm-1-4.99999955 1 2-1 2-1-2z" fill="#000"/><path d="m6.38365139 7.001v3.999h-2v-3.999z" fill="#c99e01"/></g></svg>