<svg height="20" viewBox="0 0 15 20" width="15" xmlns="http://www.w3.org/2000/svg" xmlns:xlink="http://www.w3.org/1999/xlink"><defs><path id="a" d="m0 0h13.9333333v19h-13.9333333z"/></defs><g fill="none" fill-rule="evenodd" transform="translate(.966 .5)" xlink:href="#a"><path d="m12.6668608 16.9593863c.3821487.2687357.8146898.4530049 1.2663825.5528076l.0002762 1.1790563c-.441894-.0803744-.8708522-.2269957-1.2666587-.4398639-1.285706.684-2.8998259.684-4.18562888 0-1.28570593.684-2.89982587.684-4.17165378 0-1.28570593.684-2.89982587.684-4.18562885 0l-.12395432.0595333.00210417-1.2706282.12185015-.0809051c1.2367932.855 2.95572613.855 4.18562885 0 1.2158306.855 2.94175106.855 4.17165378 0 1.2367932.855 2.95572608.855 4.18562888 0z" fill="#0a6074"/><path d="m7.50198145 4.98591913.93939194 10.73409347c-.73107522.4930622-1.63068063.6891446-2.49285497.5882473l-.97023021-11.10154622zm-.33119182-3.78553985.22081925 2.52397561-2.52369324.22079455-.22081925-2.52397561z" fill="#750105"/></g></svg>