<svg height="15" viewBox="0 0 15 15" width="15" xmlns="http://www.w3.org/2000/svg"><g fill="none"><rect fill="#000" height="15" opacity=".6" rx="1.875" width="15"/><rect fill="#2f6499" height="13.750313" rx="1.5" width="13.750313" x=".625004" y=".625004"/><path d="m6.82305 2.813175c-.243-.6769275-.885225-1.157175-1.637325-1.157175-.96045 0-1.735725.775275-1.735725 1.735725 0 .954675.775275 1.735725 1.735725 1.735725.752175 0 1.394325-.486 1.637325-1.157175h2.991225v1.157175h1.157175v-1.157175h.578565v-1.157175zm-1.637325 1.157175c-.3182175 0-.5785725-.260355-.5785725-.5785725s.260355-.5785725.5785725-.5785725.5785725.260355.5785725.5785725-.260355.5785725-.5785725.5785725zm2.314125 1.515675c-.473265-.0070275-.473265.709305 0 .7025625h1.05v.889125l-1.96185 1.639725-.682245-1.8264h.194175c.473265.0070275.473265-.7092975 0-.7025625h-1.400025c-.473265-.0070275-.473265.7092975 0 .7025625h.4566l.62349 1.6686c-.3274575-.1634175-.6909675-.2634675-1.080075-.2634675-1.34895 0-2.450025 1.10505-2.450025 2.45895s1.101 2.45895 2.450025 2.45895c1.34895 0 2.450025-1.10505 2.450025-2.45895 0-.4706475-.140205-.90705-.3705075-1.281675l1.97415-1.65075.32403.815175c-.7297875.4266675-1.227675 1.211775-1.227675 2.11725 0 1.3539 1.101 2.45895 2.450025 2.45895s2.450025-1.10505 2.450025-2.45895-1.101-2.45895-2.450025-2.45895c-.198165 0-.3880725.0304875-.57291.0754575l-.4771125-1.197975v-1.3365c0-.19398-.156735-.351285-.349995-.351285zm-2.7999 3.512835c.4146 0 .7893.14889 1.08825.38832l-1.3125 1.097775c-.35763.3002025.08946.839175.4484175.54063l1.3125-1.097775c.1317375.2471625.213285.526125.213285.827475 0 .974175-.7794 1.756425-1.749975 1.756425s-1.749975-.78225-1.749975-1.756425c0-.92546625.70327313-1.67772019 1.60587578-1.75063192zm5.599875.000015c.970575 0 1.749975.78225 1.749975 1.756425s-.7794 1.756425-1.749975 1.756425-1.749975-.78225-1.749975-1.756425c0-.6161475.3127575-1.15365.7875-1.46685l.6371325 1.597275c.1722.4377675.826275.17571.65082-.2607225l-.6356925-1.5945.1531331-.02251687z" fill="#000"/></g></svg>