<svg width="18" height="18" viewBox="0 0 18 18" fill="none" xmlns="http://www.w3.org/2000/svg">
<path d="M13.5 3C15.433 3 17 4.567 17 6.5C17 8.43298 15.433 10 13.5 10C12.9579 10 12.4444 9.87722 11.9863 9.65723C11.994 9.77054 12 9.88474 12 10C12 12.7614 9.7614 15 7 15C4.23857 15 2 12.7614 2 10C2 7.23857 4.23857 5 7 5C8.14041 5 9.191 5.38264 10.0322 6.02539C10.2639 4.3169 11.728 3 13.5 3ZM5.44824 13.6885C5.92532 13.8894 6.44985 14 7 14C7.23105 14 7.45743 13.98 7.67773 13.9424C7.5491 13.0314 7.67084 12.0803 8.07031 11.1963L7.18262 10.6826L5.44824 13.6885ZM13.5 11C14.3284 11 15 11.6716 15 12.5C15 13.3284 14.3284 14 13.5 14C12.6716 14 12 13.3284 12 12.5C12 11.6716 12.6716 11 13.5 11ZM8.94141 11.6982C8.67561 12.3279 8.58354 12.9974 8.64844 13.6455C9.25864 13.3695 9.7871 12.9441 10.1875 12.417L8.94141 11.6982ZM5.42969 9.6709C4.86372 10.4592 4.09978 11.0403 3.24707 11.3848C3.51299 12.1066 3.98135 12.7305 4.58301 13.1875L6.31738 10.1826L5.42969 9.6709ZM10.8516 9.66602C10.3096 9.93396 9.82358 10.3278 9.44141 10.833L10.6875 11.5518C10.8885 11.0746 11 10.5503 11 10C11 9.8669 10.9932 9.73522 10.9805 9.60547L10.8516 9.66602ZM3.31152 8.44824C3.11058 8.92532 3 9.44985 3 10C3 10.1331 3.00683 10.2648 3.01953 10.3945C3.61325 10.1268 4.14557 9.71244 4.55762 9.16797L3.31152 8.44824ZM7.68262 9.81738L8.57031 10.3291C9.12952 9.55011 9.88222 8.97494 10.7227 8.62891C10.4769 8.30878 10.2841 7.94561 10.1602 7.55176C9.97827 7.31734 9.7727 7.10185 9.54395 6.91309L9.41699 6.8125L7.68262 9.81738ZM7 6C6.76875 6 6.54179 6.01994 6.32129 6.05762C6.45048 6.96897 6.32947 7.92053 5.92969 8.80469L6.81738 9.31738L8.55176 6.31152C8.07471 6.11058 7.55015 6 7 6ZM12.4141 9.08203C12.748 9.22264 13.115 9.2998 13.5 9.2998C13.6618 9.2998 13.8204 9.28609 13.9746 9.25977C13.8845 8.62198 13.9693 7.95579 14.249 7.33691L13.6279 6.97852L12.4141 9.08203ZM14.8594 7.68945C14.6734 8.13013 14.6089 8.59818 14.6543 9.05176C15.0813 8.85852 15.4512 8.56127 15.7314 8.19238L14.8594 7.68945ZM12.4004 6.26953C12.0814 6.71388 11.6716 7.06214 11.2129 7.30762C11.4842 7.73124 11.693 8.1983 11.8271 8.69629L13.0215 6.62793L12.4004 6.26953ZM5.25586 6.39941C4.6863 6.67582 4.19189 7.08355 3.8125 7.58301L5.05762 8.30176C5.32357 7.67203 5.41647 7.00275 5.35156 6.35449L5.25586 6.39941ZM16.1963 6.2666C15.8169 6.45417 15.4765 6.72936 15.209 7.08301L16.0811 7.58594C16.2217 7.25196 16.2998 6.88516 16.2998 6.5C16.2998 6.40683 16.295 6.31446 16.2861 6.22363L16.1963 6.2666ZM10.918 5.41406C10.7774 5.74796 10.7002 6.11498 10.7002 6.5C10.7002 6.54853 10.7046 6.59661 10.707 6.64453C10.7351 6.67549 10.7618 6.7076 10.7891 6.73926C11.1742 6.55156 11.5203 6.27484 11.791 5.91699L10.918 5.41406ZM13.9785 6.37207L14.5996 6.73047C14.9959 6.17843 15.5308 5.77142 16.1279 5.53027C15.9551 5.06162 15.6599 4.65131 15.2812 4.33887L15.1924 4.26855L13.9785 6.37207ZM13.5 3.7002C13.3382 3.7002 13.1797 3.71389 13.0254 3.74023C13.1158 4.37811 13.0307 5.04423 12.751 5.66309L13.3721 6.02148L14.5859 3.91797C14.2521 3.77737 13.885 3.7002 13.5 3.7002ZM12.2793 3.97949C11.8806 4.17298 11.5341 4.45797 11.2686 4.80762L12.1406 5.31152C12.3268 4.87071 12.3911 4.40202 12.3457 3.94824L12.2793 3.97949Z" fill="#51585E"/>
</svg>
