<svg height="19" viewBox="0 0 14 19" width="14" xmlns="http://www.w3.org/2000/svg" xmlns:xlink="http://www.w3.org/1999/xlink"><defs><path id="a" d="m0 0h13.9333333v19h-13.9333333z"/></defs><g fill="none" fill-rule="evenodd" xlink:href="#a"><path d="m12.6668608 16.9593863c.3821487.2687357.8146898.4530049 1.2663825.5528076l.0002762 1.1790563c-.441894-.0803744-.8708522-.2269957-1.2666587-.4398639-1.285706.684-2.8998259.684-4.18562888 0-1.28570593.684-2.89982587.684-4.17165378 0-1.28570593.684-2.89982587.684-4.18562885 0l-.12395432.0595333.00210417-1.2706282.12185015-.0809051c1.2367932.855 2.95572613.855 4.18562885 0 1.2158306.855 2.94175106.855 4.17165378 0 1.2367932.855 2.95572608.855 4.18562888 0z" fill="#0a6074"/><path d="m7.65063804 4.97140084 1.29324822 7.51520976 2.63409054 1.0410521-.4391184 2.7646415c-.9157564.1367474-1.88159937-.0631142-2.65762648-.5995848-1.22990272.855-2.95582318.855-4.17165378 0-.28603256.1988432-.59851509.3514425-.92523157.4577977l-.63929612-1.8500735 2.41329596-1.4826412-.0314016-7.62560701zm-.33125055-3.78621115.22081925 2.52397561-2.52369323.22079455-.22081926-2.52397561z" fill="#750105"/></g></svg>