<svg height="15" viewBox="0 0 13 15" width="13" xmlns="http://www.w3.org/2000/svg" xmlns:xlink="http://www.w3.org/1999/xlink"><defs><path id="a" d="m0 0h12.2727273v15h-12.2727273z"/></defs><g fill="none" fill-rule="evenodd" transform="translate(.2273)" xlink:href="#a"><path d="m12.2729416 12.8045455v1.390909c-1.3841331.7363637-3.12182206.7363637-4.50605972 0-1.38413317.7363637-3.12182211.7363637-4.49101483 0-.99657589.5301819-2.17643508.6786328-3.27568861.4453528l.00027153-1.2761567c1.10548222.2867205 2.32584016.1000188 3.27541708-.5601051 1.30890854.9204545 3.16695688.9204545 4.49101483 0 1.33147594.9204545 3.18200182.9204545 4.50605972 0z" fill="#0a6074"/><path d="m8.38433816 11.7833779c-.21594047-.0937648-.42227812-.2089162-.6174618-.3438474-1.24617219.8663101-2.96536008.9172695-4.25455102.1528782l-.15550076-.1010451-.11288294-.2009297c-.12664063-.2456273-.22109086-.5105575-.27777343-.7892134l6.01317333-.0002715c-.09698662.4770153-.30464609.9138166-.59500338 1.2824289zm-2.41161089-4.96519608c1.10851903 0 2.07973376.58786959 2.6188922 1.46885679l.09554157.16776159h-5.42886753c.51438532-.97332607 1.53694943-1.63661838 2.71443376-1.63661838zm.00528399-4.09090909c.75311556 0 1.36363636.61052079 1.36363636 1.36363636s-.6105208 1.36363636-1.36363636 1.36363636c-.75311557 0-1.36363637-.61052079-1.36363637-1.36363636s.6105208-1.36363636 1.36363637-1.36363636zm0-2.72727273c.75311556 0 1.36363636.6105208 1.36363636 1.36363636 0 .75311557-.6105208 1.36363637-1.36363636 1.36363637-.75311557 0-1.36363637-.6105208-1.36363637-1.36363637 0-.75311556.6105208-1.36363636 1.36363637-1.36363636z" fill="#000"/><path d="m8.68716104 8.4548002c.22586324.42738114.35374805.91453774.35374805 1.43156344 0 .21038256-.02117455.41581956-.06150874.61429606h-6.01334615c-.04033419-.1984765-.06150875-.4039135-.06150875-.61429606 0-.5170257.12788481-1.0041823.35374806-1.43156344z" fill="#750105"/></g></svg>