<svg height="11" viewBox="0 0 9 11" width="9" xmlns="http://www.w3.org/2000/svg" xmlns:xlink="http://www.w3.org/1999/xlink"><defs><path id="a" d="m0 0h9v11h-9z"/></defs><g fill="none" fill-rule="evenodd" xlink:href="#a"><path d="m9.00015721 9.39v1.02c-1.015031.54-2.28933622.54-3.30444383 0-1.015031.54-2.28933621.54-3.29341088 0-.73082232.3888-1.59605239.497664-2.40217165.326592l.00019913-.9358482c.81068696.2102617 1.70561612.07334711 2.40197252-.4107438.95986627.675 2.32243505.675 3.29341088 0 .97641569.675 2.33346799.675 3.30444383 0z" fill="#0a6074"/><path d="m2.16090586 6.87621536-.01722221.12422421h4.4726327c.00904194.08194169.01368365.16520899.01368365.24956043 0 .52516362-.17992128 1.00830438-.48148535 1.39114377-.15835634-.06876082-.30967062-.15320519-.45280532-.25215477-.9138596.63529412-2.17459739.67266436-3.12000408.11211073l-.11403389-.07409973-.08278082-.14734851c-.15907551-.3085367-.24889054-.65860538-.24889054-1.02965149l.00783033-.18905703z" fill="#c99e01"/><path d="m4.38 5c1.15828925 0 2.11215517.87524032 2.23631635 2.00043957h-4.4726327c.12416118-1.12519925 1.0780271-2.00043957 2.23631635-2.00043957zm.003875-3 1 2h-2zm0-2 1 2h-2z" fill="#000"/></g></svg>