<svg height="10" viewBox="0 0 9 10" width="9" xmlns="http://www.w3.org/2000/svg" xmlns:xlink="http://www.w3.org/1999/xlink"><defs><path id="a" d="m0 0h9v10h-9z"/></defs><g fill="none" fill-rule="evenodd" xlink:href="#a"><path d="m9.00015721 8.39v1.02c-1.015031.54-2.28933622.54-3.30444383 0-1.015031.54-2.28933621.54-3.29341088 0-.73082232.3888-1.59605239.497664-2.40217165.326592l.00019913-.9358482c.81068696.21026171 1.70561612.07334711 2.40197252-.4107438.95986627.675 2.32243505.675 3.29341088 0 .97641569.675 2.33346799.675 3.30444383 0z" fill="#0a6074"/><path d="m4.30591297 4.01702448c1.23791206-.10830327 2.32923522.80742559 2.43753849 2.04533765.04462496.51006562-.08460464.99524418-.3385921 1.39702449-.13874365-.05223971-.27351239-.11493438-.40321616-.18878492-.90845085.75705754-2.26583465.87581323-3.28087846.28703967l-.03502668.02869714c-.23561199-.32147665-.38806295-.70772301-.42516274-1.13177554-.10830327-1.23791206.80742558-2.32923522 2.04533765-2.43753849zm.74987329-3.07706492.17433099 1.99261233-1.99238939.17431148-.17433099-1.99261233z" fill="#750105"/></g></svg>