<svg height="16" viewBox="0 0 13 16" width="13" xmlns="http://www.w3.org/2000/svg" xmlns:xlink="http://www.w3.org/1999/xlink"><defs><path id="a" d="m0 0h12.2727273v15h-12.2727273z"/></defs><g fill="none" fill-rule="evenodd" transform="translate(.6727 .6)" xlink:href="#a"><path d="m12.2729416 12.8045455v1.390909c-1.3841331.7363637-3.12182206.7363637-4.50605972 0-1.38413317.7363637-3.12182211.7363637-4.49101483 0-.99657589.5301819-2.17643508.6786328-3.27568861.4453528l.00027153-1.2761567c1.10548222.2867205 2.32584016.1000188 3.27541708-.5601051 1.30890854.9204545 3.16695688.9204545 4.49101483 0 1.33147594.9204545 3.18200182.9204545 4.50605972 0z" fill="#0a6074"/><path d="m2.94668981 9.37665731-.02348484.16939665h6.0990446c.01232991.11173866.01865952.22528499.01865952.34030968 0 .71613226-.2453472 1.37496056-.65657093 1.89701426-.21594047-.0937648-.42227812-.2089162-.6174618-.3438474-1.24617219.8663101-2.96536008.9172695-4.25455102.1528782l-.15550076-.1010451-.11288294-.2009297c-.21692114-.4207319-.33939619-.8980983-.33939619-1.40407026 0-.17364912.0144258-.3439289.04214436-.50970633zm4.39495781-6.64938458-1.36363636 2.72727272-1.36363637-2.72727272zm0-2.72727273-1.36363636 2.72727273-1.36363637-2.72727273z" fill="#000"/><path d="m5.97272727 6.81818182c1.57948534 0 2.8802116 1.19350953 3.0495223 2.72787214h-6.0990446c.16931071-1.53436261 1.47003696-2.72787214 3.0495223-2.72787214z" fill="#c99e01"/></g></svg>