<svg height="15" viewBox="0 0 14 15" width="14" xmlns="http://www.w3.org/2000/svg" xmlns:xlink="http://www.w3.org/1999/xlink"><defs><path id="a" d="m0 0h12.6v14h-12.6z"/></defs><g fill="none" fill-rule="evenodd" transform="translate(.6 .9)" xlink:href="#a"><path d="m12.6002201 11.746v1.428c-1.4210434.756-3.20507071.756-4.62622137 0-1.42104339.756-3.20507069.756-4.61077523 0-1.02315124.54432-2.23447334.6967296-3.36304031.4572288l.00027878-1.3101875c1.13496175.2943664 2.38786257.102686 3.36276153-.5750413 1.34381277.945 3.25140907.945 4.61077523 0 1.36698196.945 3.26685517.945 4.62622137 0z" fill="#0a6074"/><path d="m6.00502536 5.58764334.21548103.01155725c1.73307689.15162458 3.01509729 1.67947699 2.86347271 3.41255388-.05339822.61034447-.27748512 1.16474603-.62111257 1.62028623-.16995857-.0840911-.33288552-.179621-.4888735-.2874561-1.35936616.945-3.26696246.945-4.61077523 0l-.08986418.0605878c-.35024577-.56159299-.5273043-1.23494251-.46540112-1.94249911.14530689-1.66086535 1.55454525-2.90747917 3.19707286-2.87502995zm.67261328-4.16449218 1.1506365 2.91136319-2.78934515-.24403608z" fill="#01421d"/></g></svg>