<svg height="10" viewBox="0 0 9 10" width="9" xmlns="http://www.w3.org/2000/svg" xmlns:xlink="http://www.w3.org/1999/xlink"><defs><path id="a" d="m0 0h9v10h-9z"/></defs><g fill="none" fill-rule="evenodd" xlink:href="#a"><path d="m9.00015721 8.39v1.02c-1.015031.54-2.28933622.54-3.30444383 0-1.015031.54-2.28933621.54-3.29341088 0-.73082232.3888-1.59605239.497664-2.40217165.326592l.00019913-.9358482c.81068696.21026171 1.70561612.07334711 2.40197252-.4107438.95986627.675 2.32243505.675 3.29341088 0 .97641569.675 2.33346799.675 3.30444383 0z" fill="#0a6074"/><path d="m4.28930383 3.99117381.15391502.00825518c1.23791206.10830327 2.15364092 1.19962643 2.04533765 2.43753849-.03814159.43596034-.19820366.83196143-.44365183 1.1573473-.12139898-.06006506-.23777538-.12830071-.34919536-.20532578-.97097583.675-2.33354461.675-3.29341088 0l-.0641887.04327703c-.25017555-.40113788-.37664593-.88210182-.33242937-1.38749939.10379063-1.1863324 1.11038946-2.07677084 2.28362347-2.05359283zm.48043806-2.97463727.82188321 2.07954514-1.9923894-.17431149z" fill="#01421d"/></g></svg>