<svg height="21" viewBox="0 0 15 21" width="15" xmlns="http://www.w3.org/2000/svg" xmlns:xlink="http://www.w3.org/1999/xlink"><defs><path id="a" d="m0 0h13.75v20h-13.75z"/></defs><g fill="none" fill-rule="evenodd" transform="translate(.3245 .8386)" xlink:href="#a"><path d="m12.5001965 17.9875c.3771204.2651997.8039702.4470443 1.2497196.5455338l.0002726 1.1635424c-.4360796-.0793169-.8593936-.2240089-1.2499922-.4340762-1.2687887.675-2.86167026.675-4.13055477 0-1.26878875.675-2.86167027.675-4.1167636 0-1.26878875.675-2.86167027.675-4.13055479 0l-.12232334.05875.00207649-1.2539094.12024685-.0798406c1.22051961.84375 2.916835.84375 4.13055479 0 1.19983283.84375 2.90304381.84375 4.1167636 0 1.2205196.84375 2.91683497.84375 4.13055477 0z" fill="#0a6074"/><path d="m8.60484375 13.75 2.50000005 1.25-.5912659 2.3682807c-.75352099.015209-1.51242157-.1954725-2.14394114-.6320444-1.21371979.84375-2.91693076.84375-4.1167636 0-.40009633.2781377-.85263422.4645888-1.32328309.5593533l-.57474632-2.2955896 2.5-1.25zm-.625-7.499335.20875 2.50058556h-2.9175l.20875-2.50058556zm-1.25-6.25066444 1.25 2.5-1.25 2.5-1.25-2.5z" fill="#000"/><path d="m8.18831423 8.751915.41652952 4.998085h-3.75l.41597048-4.998085z" fill="#c99e01"/></g></svg>