<svg height="16" viewBox="0 0 14 16" width="14" xmlns="http://www.w3.org/2000/svg" xmlns:xlink="http://www.w3.org/1999/xlink"><defs><path id="a" d="m0 0h12.2727273v15h-12.2727273z"/></defs><g fill="none" fill-rule="evenodd" transform="translate(.9273 .5)" xlink:href="#a"><path d="m12.2729416 12.8045455v1.390909c-1.3841331.7363637-3.12182206.7363637-4.50605972 0-1.38413317.7363637-3.12182211.7363637-4.49101483 0-.99657589.5301819-2.17643508.6786328-3.27568861.4453528l.00027153-1.2761567c1.10548222.2867205 2.32584016.1000188 3.27541708-.5601051 1.30890854.9204545 3.16695688.9204545 4.49101483 0 1.33147594.9204545 3.18200182.9204545 4.50605972 0z" fill="#0a6074"/><path d="m5.97272727 6.81818182c1.69451003 0 3.06818182 1.37367179 3.06818182 3.06818182 0 .71613226-.2453472 1.37496056-.65657093 1.89701426-.21594047-.0937648-.42227812-.2089162-.6174618-.3438474-1.24617219.8663101-2.96536008.9172695-4.25455102.1528782l-.15218238-.0964582c-.28889536-.467921-.45559751-1.0192862-.45559751-1.60958686 0-1.69451003 1.37367179-3.06818182 3.06818182-3.06818182zm1.527375-3.40909091-.68181818.68181818.68181818.68181818-.68181818.68181818-.68181818-.68181818-.68181818.68181818-.68181818-.68181818.68181818-.68181818-.68181818-.68181818.68181818-.68181818.68181818.68181818.68181818-.68181818z" fill="#c99e01"/></g></svg>