<svg height="15" viewBox="0 0 15 15" width="15" xmlns="http://www.w3.org/2000/svg"><g fill="none"><rect fill="#000" height="15" opacity=".6" rx="1.875" width="15"/><rect fill="#2f6499" height="13.750313" rx="1.5" width="13.750313" x=".625004" y=".625004"/><path d="m4.3216665 11.3262494c.17716912.0556928.36570987.0857185.56126351.0857185h.56008709l.00074777.3771972c0 .3097405-.25109432.5608349-.56083486.5608349-.30974055 0-.56083486-.2510944-.56083486-.5608349zm6.3562423.0002335.0003148.4626822c0 .3097405-.2510943.5608349-.5608349.5608349-.3097405 0-.56083482-.2510944-.56083482-.5608349l-.00074778-.3771972h.5615826c.1952802 0 .383567-.0299418.5605201-.085485zm-.5605201-8.5139829c.8259748 0 1.4955597.66958486 1.4955597 1.49555964v5.23445874c0 .82597472-.6695849 1.49555962-1.4955597 1.49555962h-5.23445869c-.82597479 0-1.49555964-.6695849-1.49555964-1.49555963v-5.23445873c0-.82597478.66958485-1.49555964 1.49555964-1.49555964zm-5.42140328 6.35612846c-.30974053 0-.56083486.25109433-.56083486.56083487 0 .30974057.25109433.56083487.56083486.56083487.30974055 0 .56083488-.2510943.56083488-.56083487 0-.30974054-.25109433-.56083487-.56083488-.56083487zm5.60834868 0c-.30974058 0-.56083489.25109433-.56083489.56083487 0 .30974057.25109431.56083487.56083489.56083487.3097405 0 .5608348-.2510943.5608348-.56083487 0-.30974054-.2510943-.56083487-.5608348-.56083487zm.5608348-4.112789h-6.73001834v2.80417431c0 .4129874.33479244.74777982.74777983.74777982h5.23445871c.4129874 0 .7477798-.33479242.7477798-.74777982zm-.7477798-1.49555964h-5.23445871c-.41298739 0-.74777983.33479243-.74777983.74777982v.37388991h6.73001834v-.37388991c0-.41298739-.3347924-.74777982-.7477798-.74777982z" fill="#000" fill-rule="evenodd"/></g></svg>