<svg height="18" viewBox="0 0 18 18" width="18" xmlns="http://www.w3.org/2000/svg"><g fill="none"><circle cx="9" cy="9" fill="#000" opacity=".6" r="9"/><circle cx="9" cy="9" fill="#6b425c" r="8.25"/><path d="m6.30055657 9.36465433.00689805.0737763c.14582844 1.17941477.67189526 2.27631057 1.56061293 3.27868287l-.00113465.0761216c-1.22761107.0592649-2.19488995-.2708693-2.90183667-.9904025-.70694671-.7195332-1.02550703-1.6981313-.95568097-2.93579437.9045588-.05286646 1.66827257.11300557 2.29114131.4976161zm7.46682273-.50627566.2232054.00865956c.0698261 1.23766307-.2487342 2.21626117-.9556809 2.93579437s-1.6742256 1.0496674-2.9018367.9904025l-.0011346-.0761216c.8887176-1.0023723 1.4147844-2.0992681 1.5606129-3.27868287l.006898-.0737763c.570963-.35255965 1.260275-.5213182 2.0679359-.50627566zm-4.7673793-4.05837867.19024281.17805949c1.17397699 1.13425665 1.76096549 2.39289765 1.76096549 3.77592299 0 1.45581612-.6504028 2.78575212-1.9512083 3.98980792-1.30080552-1.2040558-1.95120828-2.5339918-1.95120828-3.98980792 0-1.45581615.65040276-2.77381031 1.95120828-3.95398248zm-3.64250524 1.23453276c.52429331.11064075.98164792.28211324 1.37206381.51441745-.26807889.60635877-.42055963 1.24178775-.45592669 1.90388473-.3404372-.15607091-.70942568-.26527279-1.10368332-.32818887-.12186067-.63450512-.05872551-1.33159631.1875462-2.09011331zm7.28501044 0c.2462718.758517.3094069 1.45560819.1875462 2.09011331-.3942576.06291608-.7632461.17211796-1.1036833.32818887-.035367-.66209698-.1878478-1.29752596-.4559267-1.90388473.3904159-.23230421.8477705-.4037767 1.3720638-.51441745z" fill="#000" fill-rule="evenodd"/></g></svg>