<svg height="18" viewBox="0 0 18 18" width="18" xmlns="http://www.w3.org/2000/svg">
  <title>disusedbusiness-m</title>
  <path d="m9 0c4.9705627 0 9 4.02943725 9 9 0 4.9705627-4.0294373 9-9 9-4.97056275 0-9-4.0294373-9-9 0-4.97056275 4.02943725-9 9-9zm0 .75c-4.55634919 0-8.25 3.69365081-8.25 8.25 0 4.5563492 3.69365081 8.25 8.25 8.25 4.5563492 0 8.25-3.6936508 8.25-8.25 0-4.55634919-3.6936508-8.25-8.25-8.25zm-5.266875 2.983125c.174375-.17625.459375-.17625.635625 0l1.2075 1.209375c.1725-.091875.365625-.1425.56625-.1425h5.715c.455625 0 .87.256875 1.074375.66375l1.063125 2.131875c.0675.135.103125.285.103125.435 0 .511875-.3975.931875-.9.9675v3.568125l1.06875 1.06875c.17625.174375.174375.459375 0 .635625s-.459375.17625-.635625 0l-9.9-9.9c-.174375-.17625-.1725-.46125.001875-.6375zm.830625 2.739375 2.5275 2.5275h-1.09125v2.1c0 .165.135.3.3.3h2.4c.165 0 .3-.135.3-.3v-.19125l1.2 1.2v.19125c0 .496875-.403125.9-.9.9h-3.6c-.496875 0-.9-.403125-.9-.9v-3.301875c-.5025-.035625-.9-.455625-.9-.9675 0-.151875.035625-.3.103125-.435zm7.43625 2.5275h-2.36625l2.36625 2.36625z" fill="#777777"/>
</svg>
