<svg height="18" viewBox="0 0 18 18" width="18" xmlns="http://www.w3.org/2000/svg"><g fill="none"><circle cx="9" cy="9" fill="#000" opacity=".6" r="9"/><circle cx="9" cy="9" fill="#802D19" r="8.25"/><path d="m5.76444667 7.15180795-.00079758 4.30727755c.70365888.1596615 1.22895391.7889434 1.22895391 1.5409145h-3.16012898c0-.7519513.52526729-1.3812198 1.22889819-1.5409018l-.00102083-4.30736855c.11200594.03144969.2301322.04827035.35218713.04827035.1219536 0 .23998505-.01679275.35190816-.04819205zm7.17492303 0-.0007976 4.30727755c.7036589.1596615 1.2289539.7889434 1.2289539 1.5409145h-3.160129c0-.7519513.5252673-1.3812198 1.2288982-1.5409018l-.0010208-4.30736855c.1120059.03144969.2301322.04827035.3521871.04827035.1219536 0 .239985-.01679275.3519082-.04819205zm-1.439232.13414319-.000511 1.32883788c-.8202555.33857253-1.70874329.48521098-2.66017493.48521098-.86442373 0-1.64662204-.12220797-2.34024547-.40049064l.00037658-1.33179277c.64537299.38162813 1.42038298.53228341 2.33986889.53228341.97712706 0 1.86058283-.17294307 2.66068593-.61404886zm-6.08759919-2.28595114c.49705627 0 .9.40294373.9.9s-.40294373.9-.9.9c-.49705628 0-.9-.40294373-.9-.9s.40294372-.9.9-.9zm7.17492299 0c.4970563 0 .9.40294373.9.9s-.4029437.9-.9.9-.9-.40294373-.9-.9.4029437-.9.9-.9z" fill="#000"/></g></svg>