<svg height="11" viewBox="0 0 10 11" width="10" xmlns="http://www.w3.org/2000/svg"><path d="m1.40439659 6.9208845 1.66497587 2.79364231-1.40439659.78547319-1.66497587-2.79364231zm8.4849796-1.30248563c.16487591.16547497.10670169.33549981.06975361.38988026l-.43800423.52780539-.62597187.74047497-.53694807.61881334-.30691719.3410534-.1751764.18625299c-.10683664.11054758-.19209936.19172754-.24571639.23078713l-.04525857.02577662-.01284708.00430951c-.19301982.05924488-.99660972.09410524-2.41076971.10458107l-1.41415344.0028978-.56983671.3962246-1.22668022-2.05836008 1.15247826-.83001081c.39709497-.25233656.78419173-.3824476 1.16129028-.39033312l.0364622-.00038156c.38859717 0 .73067579.13023823 1.02623587.39071468h1.72754994c.23698041.05141129.35547062.18715372.35547062.40722729 0 .22007356-.11849021.3663265-.35547062.43875883h-1.86216445c-.07860487.00513887-.11790731.04260011-.11790731.11238372 0 .10467541.05865282.14917992.11790731.14917992l.90691261-.01038221.49426323-.01604024.36592704-.02276118c.1048133-.00920099.18874632-.02012325.24064542-.03308879.32932419-.08227242 2.11000399-1.67235874 2.21252409-1.75200674.10252009-.079648.3026137-.12817636.47640178.04624321zm-2.38737619-4.86878187-.00166678 4.000383h-5.00033322l-.001-3.997383zm-5.49948258 0-.00045062 1.65580113-.42167958.90580112-.63441545-.29583278zm5.99572437 0 1.05654565 2.26576947-.63441545.29583278-.42167957-.90580112z" fill="#777" fill-rule="evenodd"/></svg>