<?xml version="1.0" encoding="UTF-8"?>
<svg width="18" height="18" version="1.1" viewBox="0 0 24 24" xmlns="http://www.w3.org/2000/svg">
<title>hydrant-m</title>
<g transform="translate(.25781 -.90528)" fill="none" fill-rule="evenodd">
<g fill-rule="nonzero">
<g transform="translate(6,5)" fill="#0a6074">
<polygon points="6.1523 7.6631 6.1523 8.4834 5.332 8.4834 5.332 7.6631"/>
<path d="m4.4427 2.5134c-1.0818 0.17522-1.9368 1.0328-2.112 2.1146h-0.6875v0.82031h0.65365l3.72e-5 1.0908h-1.5703v1.125h-0.51823v0.82031h0.51823v1.125h1.5703l-3.72e-5 1.0889c-0.71616 0-1.2995 0.58335-1.2995 1.2995v1.2995h9.4896v-1.2995c0-0.71616-0.58335-1.2995-1.2995-1.2995l3.72e-5 -1.0889h1.5677v-1.125h0.52083v-0.82031h-0.52083v-1.125h-1.5677l-3.72e-5 -1.0908h0.65365v-0.82031h-0.6875c-0.17522-1.0818-1.0302-1.9394-2.112-2.1146zm0.41146 0.78646h1.776c0.81613 0 1.5027 0.56804 1.6875 1.3281h-5.151c0.18482-0.76005 0.87142-1.3281 1.6875-1.3281zm-1.737 2.1484h5.25v5.25h-5.25zm-1.5703 1.9111h0.75v1.4271h-0.75zm7.6406 0h0.7474v1.4271h-0.7474zm-6.8907 4.1592h6.8906c0.26384 0 0.47917 0.21533 0.47917 0.47917v0.47917h-7.849v-0.47917c0-0.26384 0.21533-0.47917 0.47917-0.47917z"/>
<path d="m5.7421 6.1696a1.8285 1.9033 0 0 0-1.8281 1.9036 1.8285 1.9033 0 0 0 1.8281 1.9036 1.8285 1.9033 0 0 0 1.8281-1.9036 1.8285 1.9033 0 0 0-1.8281-1.9036zm0 0.83073a1.0311 1.0732 0 0 1 1.0312 1.0729 1.0311 1.0732 0 0 1-1.0312 1.0729 1.0311 1.0732 0 0 1-1.0312-1.0729 1.0311 1.0732 0 0 1 1.0312-1.0729z"/>
</g>
</g>
</g>
</svg>
