<svg height="12" viewBox="0 0 12 12" width="12" xmlns="http://www.w3.org/2000/svg"><path d="m6 0c3.23839694 0 5.8775718 2.56557489 5.9958615 5.77506174l.0041385.22493826c0 3.23839694-2.56557489 5.8775718-5.77506174 5.9958615l-.22493826.0041385c-3.3137085 0-6-2.6862915-6-6s2.6862915-6 6-6zm-3 6h-2.4c0 2.98233765 2.41766235 5.4 5.4 5.4v-2.4c-1.65685425 0-3-1.34314575-3-3zm3-2.4c-1.3254834 0-2.4 1.0745166-2.4 2.4s1.0745166 2.4 2.4 2.4 2.4-1.0745166 2.4-2.4-1.0745166-2.4-2.4-2.4zm0-3v2.4c1.59768088 0 2.90366088 1.24891996 2.99490731 2.82372721l.00509269.17627279h2.4c0-2.98233765-2.41766235-5.4-5.4-5.4z" fill="#983E44" opacity=".6"/></svg>