<?xml version="1.0" encoding="UTF-8"?>
<svg width="18" height="18" version="1.1" viewBox="0 0 24 24" xml:space="preserve" xmlns="http://www.w3.org/2000/svg"><circle cx="12" cy="12" r="12" opacity=".6"/><circle cx="12" cy="12" r="11" fill="#584569"/><path d="m15.307 4c-0.026331 0.0010051-0.051767 0.0036319-0.078125 0.0078125-0.53812 0.085031-0.75203 0.7446-0.36719 1.1302l1.724 1.724c0.318 0.318 0.54285 0.71102 0.65885 1.138h-0.57812c-1.097 0-2 0.903-2 2s0.903 2 2 2h0.66667v4.6667c0 0.19857-0.081823 0.37424-0.21354 0.49479 0.44732 0.17344 0.91602 0.24812 1.3932 0.27083 0.099508-0.23649 0.15365-0.49501 0.15365-0.76562v-8c5.2e-5 -1.0304-0.40934-2.0189-1.138-2.7474l-1.724-1.724c-0.13213-0.13206-0.31308-0.20235-0.4974-0.19531zm-8.6406 1.3333c-0.73767-0.0022219-1.3356 0.59567-1.3333 1.3333v10.667c0.012717 0.035447 0.026538 0.069954 0.041667 0.10417 0.81711-0.024473 1.602-0.19452 2.3255-0.72396 1.2528 0.9 3.0322 0.9 4.2995 0 0.40488 0.28594 0.86025 0.48169 1.3333 0.58594v-2.6328h0.66667c0.376 0 0.66667 0.29067 0.66667 0.66667v1.3333c0 0.23498 0.041162 0.46157 0.11719 0.67188 0.43754-0.072235 0.86386-0.22015 1.2526-0.44531-0.024544-0.070431-0.03755-0.14754-0.036458-0.22656v-1.3333c0-1.096-0.903-2-2-2h-0.66667v-6.6667c0.002219-0.73727-0.59606-1.335-1.3333-1.3333h-5.3333zm0.66406 1.3333h0.0026041 3.9974c0.37 0 0.66927 0.29767 0.66927 0.66667v3.3333h-5.3333v-3.3333c0-0.36811 0.29629-0.66525 0.66406-0.66667zm9.3359 2.3333c1.3333 0 1.3333 2 0 2s-1.3333-2 0-2z"/><path d="m18.473 19.373c-0.76321 0-1.4832-0.17333-2.16-0.53333-1.3248 0.72-2.988 0.72-4.3129 0-1.3248 0.72-2.988 0.72-4.2985 0-0.88561 0.4968-1.9008 0.56933-2.88 0.53333v-1.1733c1.0152 0.036 1.9944-0.072 2.88-0.72 1.2528 0.9 3.0312 0.9 4.2985 0 1.2744 0.9 3.0456 0.9 4.3129 0 0.87121 0.648 1.8576 0.756 2.8656 0.72v1.1733z" fill-rule="evenodd" stroke-width="1.3333"/></svg>
