<svg height="18" viewBox="0 0 24 24" width="18" xmlns="http://www.w3.org/2000/svg"><circle cx="12" cy="12" opacity=".6" r="12"/><circle cx="12" cy="12" fill="#6B425C" r="11"/><path d="m10.335317 4.7439836a1.7077391 1.7077391 0 0 0 -1.7077388 1.7077387 1.7077391 1.7077391 0 0 0 1.7077388 1.7077391 1.7077391 1.7077391 0 0 0 1.707739-1.7077391 1.7077391 1.7077391 0 0 0 -1.707739-1.7077387zm-1.3830908 3.9958426c-.4433274.0582851-.8431645.3633975-.9939571.8027261l-1.4787064 4.3093727h2.3548124l1.0784539-3.13975 1.158506 1.191861c.01776.01828.04059.02685.06003.04225.01938.01702.04267.02785.06448.04225.03393.02005.06573.04096.10229.05337.01883.0075.0334.02107.05337.02668l2.190264.615943c.303566.08544.617216-.09002.702664-.39358.08544-.303567-.09002-.614992-.393581-.700441l-2.059067-.580366-1.8878517-1.9412191c-.0132241-.013594-.0303107-.0191346-.0444732-.0311324-.1249451-.1201084-.2721685-.2203322-.4580619-.2690574-.1497695-.039261-.3013945-.0483376-.4491711-.0289035zm8.1629038 3.9736058a1.7077391 1.7077391 0 0 0 -1.707739 1.707739 1.7077391 1.7077391 0 0 0 1.707739 1.707739 1.7077391 1.7077391 0 0 0 1.707738-1.707739 1.7077391 1.7077391 0 0 0 -1.707738-1.707739zm-11.9541732 2.276986c-.6307244 0-1.1384924.507768-1.1384924 1.138492 0 .630725.507768 1.138493 1.1384924 1.138493h5.1676892 1.663267 2.499347l2.343694 1.080679c.07626.03521.156121.04911.233479.04891.01616.0014.03017.0088.0467.0088h2.276985c.315358.000013.569242-.253872.569242-.569234.000002-.31536-.253881-.569244-.569244-.569244h-2.208053l-4.800793-2.216948c-.09397-.04337-.190665-.04749-.284622-.03779-.03693-.0036-.06883-.02224-.106732-.02224h-3.5488984-2.3548115z"/></svg>