<svg height="18" viewBox="0 0 18 18" width="18" xmlns="http://www.w3.org/2000/svg"><g fill="none"><circle cx="9" cy="9" fill="#000" opacity=".6" r="9"/><circle cx="9" cy="9" fill="#6b425c" r="8.25"/><path d="m11.3068855 7.79744628c.2660818.39143376.434642.85491199.4713535 1.35761533l.2671914 3.65874019c.0482703.6609814-.4484303 1.2359436-1.1094118 1.284214l-.0436715.00239-3.74096459.0007971c-.6627417 0-1.2-.5372583-1.2-1.2l.00318713-.0874011.26719134-3.65874019c.03402228-.46587839.18128389-.89806797.41366076-1.27042362l.05861214-.08773368-.07742212 1.60884098-.00280641.11671571c0 1.2272994.91033155 2.2222222 2.03328243 2.2222222l.76013224-.0007669.05337767-.0023003c1.12140091-.0644603 1.98266351-1.1102652 1.92368381-2.33587071zm-2.30643887-3.89864928c.27723165 0 .65337303.43058372.98287113 1.26364976.26967134.68180667.47230104 1.58891008.48902314 1.93639653l.1128653 2.34535583c.0385946.80200078-.5036245 1.46040098-1.17051828 1.49873528l-.0419112.0017492h-.72649609c-.66366659 0-1.23247528-.6216648-1.23247528-1.4222226l.11566443-2.44268114c.01652017-.34329115.21891042-1.24559252.48806605-1.92351364.32920022-.82915515.70475843-1.25746922.9829108-1.25746922z" fill="#000" fill-rule="evenodd"/></g></svg>