<svg height="12" viewBox="0 0 18 12" width="18" xmlns="http://www.w3.org/2000/svg"><g fill="none"><path d="m3.90636316.31547368c1.12239473 0 2.13645789.23717369 2.88558947.86134737.79215632.65884737 1.10188421 1.59844737 1.10188421 2.65428948 0 .44481455-.05591709.86993955-.17772557 1.26421496.06932743-.00813528.14048371-.01190393.2125202-.01190393.63277103 0 1.19762539.29078582 1.56822398.74601837.36018795-.63396245 1.04220365-1.06119256 1.82400435-1.06119256.7736977 0 1.4496682.41842001 1.8139718 1.04132029.3702218-.4436091.9279632-.7261461 1.5516946-.7261461 1.1162431 0 2.0211369.90489381 2.0211369 2.02113689 0 .46189369-.1549402.88759915-.4156819 1.22797764l-.0471391.05783284.0890005.05339291c.7727601.48461638 1.3188248 1.30082194 1.4340384 2.25531406l.0135061.1372759.0621528.8154908h-13.07192207l.06215279-.8154908c.0772275-1.01328225.63798628-1.88489661 1.44754451-2.39258996l.08815855-.05339291-.04629724-.05783284c-.23901318-.31201361-.38912375-.69572559-.41248237-1.11328658l-.00319948-.11469106c-.53670156.23169325-1.14829501.35182404-1.80223143.38093102v1.98819474c0 .52321737-.42413684.94736839-.94736842.94736839h-1.89568421c-.52321737 0-.94736842-.42413681-.94736842-.94736839v-8.2108421c0-.52321737.42413684-.94736843.94736842-.94736843z" fill="#111" opacity=".6"/><path d="m7.92863147 8.72872693c.34136694 0 .66570485.07290994.95829094.20400705-.42078106.47422827-.70480741 1.07292512-.78977674 1.73642682l-.02177725.2247871h-2.48589474c.09231105-1.21118954 1.10432143-2.16522097 2.33915779-2.16522097zm6.75789473 0c1.2348364 0 2.2468468.95403143 2.3391578 2.16522097h-2.4602103l-.0038406-.0575961-.0136661-.1397773c-.0810611-.6785181-.3700266-1.29048128-.8000838-1.77262609.2874149-.12552769.60489-.19522148.938643-.19522148zm-3.3656664-.13506265c1.3118632 0 2.387001 1.01354223 2.4850703 2.30028362h-4.97014063c.09806925-1.28674139 1.17320703-2.30028362 2.48507033-2.30028362zm-7.41416506-7.3306327c.99407368 0 1.75959473.20803737 2.28003158.64165263.51459157.42797368.7606421 1.07630526.7606421 1.92666316 0 .8785421-.26303684 1.55917895-.81857368 2.02656316-.54383685.46174736-1.33384737.68750526-2.34544737.68750526h-.62512105v2.92826842h-1.89506843l.00014211-8.21051053zm4.02193673 4.57828472c.69766938 0 1.26324215.56557277 1.26324215 1.26324215 0 .69766937-.56557277 1.26324215-1.26324215 1.26324215-.69766937 0-1.26324215-.56557278-1.26324215-1.26324215 0-.69766938.56557278-1.26324215 1.26324215-1.26324215zm6.75789473 0c.6976694 0 1.2632422.56557277 1.2632422 1.26324215 0 .69766937-.5655728 1.26324215-1.2632422 1.26324215s-1.2632421-.56557278-1.2632421-1.26324215c0-.69766938.5655727-1.26324215 1.2632421-1.26324215zm-3.3656664-.31517419c.7411887 0 1.3420409.6008522 1.3420409 1.34204095s-.6008522 1.34204095-1.3420409 1.34204095c-.7411888 0-1.34204098-.6008522-1.34204098-1.34204095s.60085218-1.34204095 1.34204098-1.34204095zm-7.48422296-2.82661579h-.67841052v2.43783947h.44386579c.53218421 0 .93580105-.12370263 1.1989421-.33206211.26899579-.21396315.38592947-.52347789.38592947-.92330526 0-.41111053-.11045842-.70370526-.33266368-.90080526-.21642632-.19146316-.54985263-.28166684-1.01766316-.28166684z" fill="#20607c"/></g></svg>