<svg height="19" viewBox="0 0 29 19" width="29" xmlns="http://www.w3.org/2000/svg"><g fill="none"><path d="m6.185075.4995c1.777125 0 3.382725.375525 4.56885 1.3638 1.2542475 1.043175 1.74465 2.530875 1.74465 4.202625 0 .70428972-.0885354 1.37740429-.2813988 2.0016737.1097684-.01288087.2224325-.01884789.3364903-.01884789 1.0018875 0 1.8962402.46041088 2.4830213 1.18119574.5702976-1.00377388 1.6501558-1.68022155 2.8880068-1.68022155 1.2250215 0 2.2953081.66249835 2.872122 1.64875713.5861846-.70238108 1.4692751-1.14973132 2.4568499-1.14973132 1.7673849 0 3.2001334 1.43274852 3.2001334 3.20013339 0 .7313317-.245322 1.4053653-.6581629 1.944298l-.074637.0915686.1409174.0845388c1.2235368.7673092 2.0881394 2.0596347 2.2705608 3.570914l.0213847.2173535.0984085 1.2911937h-20.69720984l.09840858-1.2911937c.12227689-1.6043637 1.01014496-2.9844197 2.29194549-3.7882675l.13958437-.0845388-.073304-.0915686c-.37843751-.4940216-.61611258-1.1015656-.65309705-1.7627038l-.00506585-.1815942c-.84977747.3668477-1.81813376.5570547-2.8535331.6031408v3.147975c0 .8284275-.67155 1.5-1.5 1.5h-3.0015c-.8284275 0-1.5-.67155-1.5-1.5v-13.0005c0-.8284275.67155-1.5 1.5-1.5z" fill="#111" opacity=".6"/><path d="m12.5536665 13.8204843c.5404977 0 1.0540327.1154407 1.517294.3230112-.6662367.7508614-1.1159451 1.6987981-1.2504799 2.7493425l-.0344806.3559128h-3.936c.14615915-1.9177167 1.7485089-3.4282665 3.7036665-3.4282665zm10.7 0c1.9551576 0 3.5575073 1.5105498 3.7036665 3.4282665h-3.895333l-.0060809-.0911937-.0216381-.2213141c-.1283466-1.0743203-.5858754-2.0432621-1.2667992-2.806658.4550736-.1987522.9577425-.3091007 1.4861847-.3091007zm-5.3289719-.2138492c2.0771169 0 3.7794184 1.6047752 3.9346947 3.6421157h-7.8693893c.1552763-2.0373405 1.8575778-3.6421157 3.9346946-3.6421157zm-11.7390946-11.6068351c1.57395 0 2.786025.3293925 3.61005 1.01595.81477.677625 1.20435 1.70415 1.20435 3.05055 0 1.391025-.416475 2.4687-1.296075 3.208725-.861075.7311-2.111925 1.08855-3.713625 1.08855h-.989775v4.636425h-3.000525l.000225-12.999975zm6.3680665 7.24895081c1.1046432 0 2.0001334.89549019 2.0001334 2.00013339s-.8954902 2.0001334-2.0001334 2.0001334-2.0001334-.8954902-2.0001334-2.0001334.8954902-2.00013339 2.0001334-2.00013339zm10.7 0c1.1046432 0 2.0001334.89549019 2.0001334 2.00013339s-.8954902 2.0001334-2.0001334 2.0001334-2.0001334-.8954902-2.0001334-2.0001334.8954902-2.00013339 2.0001334-2.00013339zm-5.3289719-.49902581c1.1735489 0 2.1248982.95134932 2.1248982 2.1248982 0 1.1735488-.9513493 2.1248982-2.1248982 2.1248982-1.1735488 0-2.1248981-.9513494-2.1248981-2.1248982 0-1.17354888.9513493-2.1248982 2.1248981-2.1248982zm-11.8500196-4.475475h-1.07415v3.8599125h.7027875c.842625 0 1.481685-.1958625 1.898325-.525765.42591-.338775.611055-.82884.611055-1.4619 0-.650925-.1748925-1.1142-.5267175-1.426275-.342675-.30315-.8706-.4459725-1.6113-.4459725z" fill="#20607c"/></g></svg>