<svg width="18" height="18" viewBox="0 0 18 18" fill="none" xmlns="http://www.w3.org/2000/svg">
<path d="M3 14.6119C3.28108 15.5075 3.28108 15.5075 4.12432 15.806L7.4973 12.2239C8.05946 11.6269 8.9027 11.9851 9.74595 12.2239C10.8703 12.6418 11.7135 11.9254 12.5568 11.0299L15.3676 8.04478C16.2108 7.14925 16.2108 5.95522 15.3676 5.0597L13.1189 2.67164C12.2757 1.77612 11.1514 1.77612 10.3081 2.67164L7.4973 5.65672C6.65405 6.55224 5.97946 7.44776 6.37297 8.64179C6.59784 9.53731 6.93514 10.4328 6.37297 11.0299L3 14.6119ZM11.9946 13.4179C11.5473 13.4179 11.1183 13.6066 10.8021 13.9425C10.4858 14.2784 10.3081 14.7339 10.3081 15.209C10.3081 15.684 10.4858 16.1395 10.8021 16.4754C11.1183 16.8113 11.5473 17 11.9946 17C12.4419 17 12.8708 16.8113 13.1871 16.4754C13.5034 16.1395 13.6811 15.684 13.6811 15.209C13.6811 14.7339 13.5034 14.2784 13.1871 13.9425C12.8708 13.6066 12.4419 13.4179 11.9946 13.4179Z" fill="#51585E"/>
</svg>
