<svg height="37" viewBox="0 0 37 37" width="37" xmlns="http://www.w3.org/2000/svg"><g fill="none"><path d="m18.5 0 .4327198.09615995 13.4644918 2.99210929 1.239152.27536712.2753672 1.23915204 2.9921093 13.4644918.0961599.4327198-.0961599.4327198-2.9921093 13.4644918-.2753672 1.239152-1.239152.2753672-13.4644918 2.9921093-.4327198.0961599-.4327198-.0961599-13.4644918-2.9921093-1.23915204-.2753672-.27536712-1.239152-2.99210929-13.4644918-.09615995-.4327198.09615995-.4327198 2.99210929-13.4644918.27536712-1.23915204 1.23915204-.27536712 13.4644918-2.99210929z" fill="#B7B6B6"/><path d="m5.04878766 5.04878766 13.50000004-3 13.5 3 3 13.50000004-3 13.5-13.5 3-13.50000004-3-3-13.5z" fill="#136C30"/></g></svg>