<svg xmlns="http://www.w3.org/2000/svg" xml:space="preserve" width="30" height="27" viewBox="0 0 549.9 498.4"><path d="M152.4 441.5c18.8-20.8 45.5-33 73.6-33s54.8 12.2 73.3 33c18.6-20.8 45.3-33 73.4-33s54.7 12.2 73.3 33l59.7-67.5c-18-15.9-28.1-38.8-28.1-62.6 0-15.1 4-29.5 11.6-42.6 10.7-18.5 16.5-39.4 16.5-60.8 0-67.2-54.5-121.56-121.7-121.56h-11.9c-25.5 0-50.4-6.49-72.8-18.83-22.3 12.34-47.2 18.83-72.7 18.83h-11.9C147.5 86.44 93.18 140.8 93.18 208c0 21.4 5.68 42.3 16.42 60.8 7.5 13.1 11.5 27.5 11.5 42.6 0 23.8-10.1 46.7-27.98 62.6z" style="fill:#006a51;stroke-width:2.1775;stroke-miterlimit:10" transform="matrix(1.333 0 0 -1.333 -124.1 588.5)"/><g style="stroke:#f9f9f9;fill:#006a51;fill-opacity:1;stroke-width:8.37584396;stroke-dasharray:none"><path d="M299.3 430.9c-19.8-19.1-45.6-30-73.3-30-27.1 0-53.7 10.9-73 29.4l-49.6-55.7c16.3-17.1 25.2-39.8 25.2-63.2 0-16.1-4.3-32.4-12.3-46.3-10.3-17.4-15.7-36.8-15.7-57 0-63 51.3-114.13 114.1-114.35h12c25.4.22 50.2-5.87 72.6-17.61 22.6 11.74 47.6 17.83 72.8 17.61h11.8c63.2.22 114.3 51.35 114.3 114.35 0 20.2-5.6 39.6-15.4 57-8.5 13.9-12.8 30.2-12.8 46.3 0 23.4 9.1 46.1 25.2 63.2l-49.1 55.7c-19.8-18.5-46.1-29.4-73.5-29.4-27.2 0-53.5 10.9-73.3 30z" style="fill:#006a51;stroke-width:4.37584396;stroke-miterlimit:10;stroke:#f9f9f9;fill-opacity:1;stroke-dasharray:none" transform="matrix(1.333 0 0 -1.333 -124.1 588.5)"/></g></svg>
