<svg
   height="18"
   viewBox="0 0 29 18"
   width="29"
   xmlns="http://www.w3.org/2000/svg">
   <path
      d="M 28.229757,13.346912 C 27.754145,13.798656 15.451225,17.693823 14.5,17.693823 c -0.951226,0 -13.2541449,-3.895167 -13.72975757,-4.346912 -0.4756127,-0.451744 -0.47561263,-8.2420781 10e-8,-8.6938224 C 1.2458552,4.2013443 13.548774,0.306177 14.5,0.306177 c 0.951225,0 13.254145,3.8951673 13.729757,4.3469117 0.475613,0.4517443 0.475613,8.2420783 0,8.6938233 z"
      fill="#999999"
      style="stroke-width:0.427404" />
   <path
      d="m 27,12.645834 c -0.433012,0.378886 -11.633974,3.645833 -12.5,3.645833 -0.866025,0 -12.0669874,-3.266947 -12.5000002,-3.645833 C 1.5669871,12.266948 1.5669872,5.7330535 1.9999999,5.3541673 2.4330126,4.9752812 13.633975,1.708334 14.5,1.708334 c 0.866026,0 12.066988,3.2669473 12.5,3.6458334 0.433013,0.3788861 0.433013,6.9127806 0,7.2916666 z"
      fill="#294c88"
      style="stroke-width:0.373483" />
   </svg>
