<svg
    height="25"
    viewBox="0 0 40 25"
    width="40"
    xmlns="http://www.w3.org/2000/svg">
    <path
        d="M 39.091407,18.544437 C 38.430061,19.172594 21.322691,24.588874 20,24.588874 c -1.322691,0 -18.4300616,-5.41628 -19.09140734,-6.044437 -0.6613457,-0.628156 -0.6613456,-11.4607175 10e-8,-12.0888738 C 1.5699385,5.8274068 18.677309,0.411126 20,0.411126 c 1.322691,0 18.430061,5.4162809 19.091407,6.0444372 0.661346,0.6281564 0.661346,11.4607178 0,12.0888738 z"
        fill="#212121"
        style="stroke-width:0.594311" />
    <path
        d="M 37.381413,17.569578 C 36.779304,18.096424 21.204219,22.639156 20,22.639156 18.79578,22.639156 3.2206952,18.096424 2.6185853,17.569577 2.0164755,17.042731 2.0164756,7.9572668 2.6185854,7.4304207 3.2206953,6.9035747 18.79578,2.3608422 20,2.3608422 c 1.204219,0 16.779304,4.5427325 17.381413,5.0695786 0.60211,0.5268461 0.60211,9.6123102 0,10.1391572 z"
        fill="#9f5a17"
        style="stroke-width:0.519333" />
    </svg>
