<svg height="19" viewBox="0 0 19 19" width="19" xmlns="http://www.w3.org/2000/svg"><path d="m2.885 12.0615528 12.23 3.2475375h-12.23zm1.11669573-3.0534098 10.69279887 2.8651268c-.8793687 1.3974981-2.1028262 1.8862358-3.6703724 1.4662131l-5.30380311-1.4211498c-1.08914156-.2918346-1.82105491-1.311646-1.74895082-2.43690057zm6.89827777-6.31723332.3483726.65749533c.7729657 1.48426312 1.2666065 2.61927763 1.4809223 3.40504355.2449323.89801819.4566462 2.21363954.6351416 3.94686404l-3.99974232-1.07172772c.53186611-1.23336117.90993282-2.26853038 1.13420022-3.10550762.2242674-.83697725.3579692-2.11436644.4011056-3.83216758zm-.6797974 1.45913545-1.4269431 5.32542429-3.23029843-.86555585z" fill="#777" transform="translate(.6688 .9588)"/></svg>