<svg height="15" viewBox="0 0 14 15" width="14" xmlns="http://www.w3.org/2000/svg"><path d="m7.82311911 5.67246657 3.40536139 7.66676663c.1034778.2351768 0 .507982-.244584.6208669-.2351769.1034779-.5079821 0-.620867-.2445839l-1.12884905-2.5399104h-4.40251137l-1.12884907 2.5399104c-.1128849.2445839-.38569009.3480618-.62086698.2445839-.24458397-.1128849-.3480618-.3856901-.24458397-.6208669l3.00085711-6.74487323-1.63683115.76197312-1.1946986-2.54931747 6.38740431-2.98204296 1.19469857 2.54931748zm-.79019435.54561038-1.78734435 4.01682125h3.57468871zm2.59635286-5.02337835 2.55872458-1.1946986 1.5897957 3.41476843-2.5587245 1.1946986zm-9.40707557 5.4278826 2.55872456-1.1946986.79019435 1.70268068-2.55872456 1.1946986z" fill="#777" transform="translate(0 .5)"/></svg>