<svg height="18" viewBox="0 0 19 18" width="19" xmlns="http://www.w3.org/2000/svg"><g fill="none" transform="translate(.5)"><rect fill="#000" height="18" opacity=".6" rx="1.875" width="18"/><rect fill="#2f6499" height="16.5" rx="1.5" width="16.5" x=".75" y=".75"/><path d="m11.1635042 3.32c.9166667 0 1.6666667.66666667 1.75 1.66666667l.4166667 6.16666673c.0658591.7244508-.3887734 1.3968526-1.0759527 1.6881253l1.6207932 2.432708h-.5115744c-.5433269 0-1.0507006-.2715375-1.3520813-.7236125l-.0592588-.0888875h-5.90419379l-.05925887.0888875c-.30135625.452075-.80875438.7236125-1.35208125.7236125h-.51157438l1.60894392-2.4139894c-.64154773-.2540677-1.07042832-.8673091-1.07042832-1.6235106v-.0833333l.25-6.16666673c0-.91666667.75-1.66666667 1.66666667-1.58333333zm-.1955156 9.6666667h-3.93699999l-.44136412.6625h4.82080621zm-4.47115106-2.6666667c-.41666666 0-.75.3333334-.75.75 0 .4166667.33333334.75.75.75.41666667 0 .75-.4166666.75-.8333333s-.33333333-.6666667-.75-.6666667zm4.83333336 0c-.4166667 0-.75.3333334-.75.75 0 .4166667.3333333.75.75.75s.75-.4166666.75-.75c0-.4166666-.3333333-.75-.75-.75zm-.4166667-5.66666666h-3.99999999c-.5 0-.91666667.41666666-.91666667 1l-.08333333 2.41666666c0 .58333334.41666667.99999997.91666667.99999997h4.25000002c.5 0 .8333333-.41666663.8333333-.99999997l-.0833333-2.41666666c-.0833333-.58333334-.4166667-1-.9166667-1z" fill="#000"/></g></svg>