<svg height="12" viewBox="0 0 13 12" width="13" xmlns="http://www.w3.org/2000/svg"><g fill="none" transform="translate(.5)"><rect fill="#000" height="12" opacity=".6" rx="1.875" width="12"/><rect fill="#2f6499" height="11.00025" rx="1.5" width="11.00025" x=".500003" y=".500003"/><path d="m7.39726314 2.38c.59201388 0 1.07638889.43055555 1.13020833 1.07638889l.26909723 3.98263889c.04497326.49470585-.28586452.95183061-.77268547 1.12014242l.97612377 1.4638854h-.314815c-.334355 0-.646585-.16710005-.83205-.44530005l-.036467-.0547h-3.63335l-.036467.0547c-.18545.2782-.497695.44530005-.83205.44530005h-.314815l.96794325-1.45430125c-.45680561-.14353251-.76858978-.55775579-.76858978-1.07590713v-.05381944l.16145834-3.98263889c0-.59201389.484375-1.07638889 1.07638889-1.02256945zm-.18027014 6.24305555h-2.435l-.265301.4h2.96665zm-2.83361875-1.72222222c-.26909722 0-.484375.21527778-.484375.484375s.21527778.484375.484375.484375.484375-.26909722.484375-.53819445c0-.26909721-.21527778-.43055555-.484375-.43055555zm3.12152778 0c-.26909723 0-.484375.21527778-.484375.484375s.21527777.484375.484375.484375c.26909722 0 .48437499-.26909722.48437499-.484375 0-.26909722-.21527777-.484375-.48437499-.484375zm-.26909723-3.65972222h-2.58333333c-.32291667 0-.59201388.26909722-.59201388.64583333l-.05381946 1.56076389c0 .37673611.26909723.64583334.59201389.64583334h2.74479167c.32291667 0 .53819445-.26909723.53819445-.64583334l-.05381944-1.56076389c-.05381945-.37673611-.26909723-.64583333-.5920139-.64583333z" fill="#000"/></g></svg>