<svg height="18" viewBox="0 0 18 18" width="18" xmlns="http://www.w3.org/2000/svg"><path d="m13.7300186 2.40798662 2.506362 1.52925v11.99024998l-.085702.073305c-.0631313.0539897-.1272846.0696445-.3559646.0727147l-.1085554.0006203c-.3144867 0-.3738504-.0049422-.4416079-.0677755l-.1154251-.1205045v-2.6877h-2.8118745v2.709225l-.0840225.0833775c-.0658613.0653494-.1112402.0801733-.3505585.0828581l-.115064.0005194c-.3128334 0-.3758771-.0054518-.4371509-.0641527l-.1023241-.1133873v-11.97899998zm-3.3478492 12.24023488v1.02c-.99359997.54-2.24099997.54-3.23467497 0-.9936.54-2.241.54-3.223875 0-.6642075.3726-1.4256.427-2.16.4v-.88c.7614.027 1.4958-.054 2.16-.54.9396.675 2.2734.675 3.223875 0 .9558.675 2.2842.675 3.23467497 0zm.0202567-7.13653093c.0103452.0099604.0174392.52677332.0192424 1.27711024l-.0010849 1.16128976-.009345 2.41192503-1.86740767 1.3908424c-.2696146.1981014-.52049671.3794027-.72693714.5256253-.23569509-.0813658-.4613723-.1963026-.66939936-.3432144-.950475.675-2.284275.675-3.223875 0-.10225953.0748241-.20618303.1400483-.31161286.1967564-.25819887-.2952135-.44975134-.6512178-.533938-1.0282747-.1216425-.5449425-.0365295-1.17705.2259075-1.677825.1735875-.331215.54351-.71178.863025-.887925l.16483991-.0877242c.30482986-.1534274.49510933-.1813697 1.1927264-.2033546l.71731857-.0224595c.35971712-.0156364.41502512-.0368517.55709012-.1088467l.12361282-.079056c.26788276-.18203371.90013889-.64160524 1.60131368-1.16495992l1.18834275-.88036754c.41048008-.29888759.68126898-.48814451.69018078-.47954157zm4.7266925-2.40458145h-2.811875v2.87595h2.811875z" fill="#0a6074"/></svg>