<svg height="1024" viewBox="0 0 1024 1024" width="1024" xmlns="http://www.w3.org/2000/svg"><path d="m1024 512c0-282.769408-229.230592-512-512-512s-512 229.230592-512 512c0 240.11776 165.30432 441.593856 388.313088 496.92262v-340.463612h-105.578496v-156.459008h105.578496v-67.418112c0-174.268416 78.864384-255.041536 249.954304-255.041536 32.436224 0 88.406016 6.35904 111.302656 12.720128v141.832192c-12.085248-1.271808-33.073152-1.908736-59.150336-1.908736-83.953664 0-116.391936 31.801344-116.391936 114.4832v55.332864h167.237632l-28.729344 156.459008h-138.508288v351.791102c253.513728-30.619646 449.972224-246.478846 449.972224-508.25011"/></svg>