<svg height="1024" viewBox="0 0 1024 1024" width="1024" xmlns="http://www.w3.org/2000/svg"><path d="m493.33632 0h185.477365l14.130389.02949672c108.666529.26880068 113.975748 1.34538731 136.937183 4.66550676 49.363524 7.12126482 90.788773 26.81543252 124.661224 59.17693702 18.979719 18.2675924 32.053046 36.1342265 43.826741 60.0585805 14.348958 29.226213 21.397468 56.876459 24.626418 97.997506.6793 8.646555.99545 143.670048 1.00782 281.310324l-.01624 65.713883c-.07056 119.192153-.36951 225.073525-.96758 232.6901l-.19605 2.413052c-3.2785 39.170094-10.32033 66.514522-23.94272 94.61573-27.642506 57.033978-78.439572 98.62797-139.789656 114.461944l-1.402474.35918c-21.232695 5.38653-40.836124 8.01365-73.450409 9.61993l-2.169401.10445c-11.38999.58043-122.025624.75984-240.482117.78451h-53.570364c-121.224288-.04436-236.248507-.42372-248.173785-.94242-29.926729-1.41767-53.238034-4.41131-74.344457-9.84669-60.956479-15.755415-112.697887-57.979484-139.7896555-114.225479l-.841614-1.760145c-13.4620628-28.411524-19.96585688-54.796367-23.46505769-95.906696l-.10726904-1.276167c-.92330047-10.937936-1.20606295-62.794797-1.2527707-229.470754l-.04181249-172.822554v-30.339774l.03442893-22.024074c.20473637-122.323979 1.21293718-127.207851 4.67797437-151.155813 7.12745732-49.329853 26.81620652-90.829024 59.30233312-124.5609851 17.8379945-18.4967114 35.9124614-31.6915638 58.829775-43.0751379 29.738248-14.8095217 57.034365-21.71830969 100.900583-25.36563579 11.787265-.97795478 70.962003-1.21486011 269.591198-1.22880521zm37.309937 131.487513h-33.113441c-90.073735.044609-103.707.539475-142.312503 2.295123-40.126674 1.836079-67.643879 8.139071-91.679626 17.394087l-.7273.281357c-25.040921 9.717043-46.282803 22.715674-67.444957 43.870088-21.178023 21.14706-34.186716 42.372687-43.942849 67.387291l-.56272 1.456123c-9.038419 23.610123-15.210962 50.647857-17.069395 89.67155l-.514566 11.582819c-.189847 4.388098-.361515 8.531537-.516496 12.634143l-.149474 4.096544-.155275 4.632471c-.726502 22.808645-.980238 48.749497-1.00967 111.734103v28.245985c.046496 89.850574.549199 103.444824 2.297121 141.996914 1.864301 40.502194 8.28118 68.148183 17.688216 92.338423 9.732524 25.022731 22.74083 46.248358 43.911112 67.395031 20.883586 20.891227 41.851656 33.857837 66.460705 43.534962l.960644.375377c23.981672 9.314115 51.345772 15.691887 91.210924 17.618427l11.492534.517946c32.26853 1.414313 51.243475 1.811522 137.686614 1.835997h28.745452c62.607886-.049783 86.78835-.334385 110.101401-1.159012l5.12455-.190049c6.168144-.238777 12.467349-.516645 19.586641-.839106l2.404416-.109147c40.532382-1.854625 68.230619-8.266859 92.454531-17.675443 25.033181-9.716657 46.243326-22.74741 67.39774-43.909952 21.178023-21.146673 34.186716-42.3723 43.942849-67.386904l.558032-1.456123c9.056591-23.853527 15.264482-51.2057 17.130183-90.882299l.451783-10.173573c1.420677-32.660103 1.830438-51.613069 1.84773-140.574964l-.008716-28.892243c-.0741-82.738791-.610482-96.688128-2.290797-134.071837-1.903777-40.502194-8.328783-68.147796-17.688215-92.338036-9.756133-25.022731-22.764826-46.248745-43.942849-67.395418-21.178409-21.162542-42.356819-34.161172-67.421349-43.870475l-1.460482-.560884c-23.679734-9.009102-50.746002-15.169916-89.81367-17.057168l-7.111025-.323691c-6.102226-.273556-11.647051-.512601-17.118565-.721001l-3.073186-.114019-3.529603-.122982c-22.732426-.763238-47.547911-1.027892-108.796449-1.070435zm-52.591865 68.461349-.000387.095596 8.125109-.006772 51.021571.016118c79.019504.066704 92.269159.516739 128.855873 2.17812l2.207005.107138c35.717713 1.836711 55.329928 7.891165 68.482386 12.994442 17.767556 6.895629 30.434893 15.13888 43.752432 28.454484 13.325667 13.315991 21.574723 25.997648 28.491639 43.751658l.471565 1.224012c5.055634 13.256051 10.87959 33.003916 12.587658 68.289519l.463012 10.254534c.272442 6.182648.506005 11.826186.705757 17.508099l.209022 6.382588c.61627 20.354468.837982 43.836138.885178 95.53077l.010201 25.11755c0 99.501563-.380992 113.062586-2.113377 151.312196l-.107761 2.373601c-1.697493 37.093662-7.89996 57.225943-13.111255 70.620887-6.900661 17.754397-15.165972 30.396577-28.491639 43.704054-13.106833 13.097696-25.56214 21.287234-42.882342 28.114252l-.87009.340232c-13.270957 5.179107-33.165281 11.289831-69.580822 13.057477l-10.262179.462861c-5.459377.240184-10.498803.450125-15.515441.6333l-3.47275.122527c-23.487344.798967-48.476951 1.031195-115.470833 1.051279l-32.550422-.006338c-59.325956-.045988-82.393595-.307164-104.857585-1.095617l-5.021945-.184995c-6.721777-.258694-13.625425-.566209-21.652561-.930787l-2.206982-.108048c-35.717352-1.851297-55.329727-7.906123-68.490149-13.009399-17.767556-6.895629-30.458889-15.13888-43.784169-28.454485-13.107213-13.097315-21.302898-25.550594-28.150372-42.858579l-.341267-.86947c-5.211295-13.394945-11.421889-33.527225-13.111254-70.620887l-.410404-9.146902c-.255668-5.819072-.476215-11.160704-.666125-16.506616l-.142975-4.209415c-.746973-23.078578-.952006-48.556213-.968749-114.433152v-31.381623c.049289-61.326072.308484-83.970153 1.147692-107.114906l.151185-4.020289c.248776-6.39724.542733-13.00212.889376-20.622164 1.697492-37.094049 7.899959-57.225943 13.111254-70.636755 6.900661-17.754397 15.165972-30.436054 28.491639-43.751658 13.106833-13.097696 25.600333-21.287234 42.914422-28.129353l1.683162-.655982c13.283507-5.109253 33.095802-11.010718 68.775161-12.75038l11.294144-.504791c3.94342-.170711 7.676744-.325219 11.353994-.464922l5.679935-.205005c20.735655-.706768 42.227291-.961549 92.473463-1.018004zm34.150659 116.607138c-107.973406 0-195.517747 87.480573-195.517747 195.377798 0 107.897226 87.544341 195.33707 195.52168 195.33707 107.97734 0 195.490332-87.439844 195.490332-195.33707 0-106.818253-85.77907-193.625297-192.264956-195.350756zm.003933 68.56123c70.086406 0 126.911003 56.774284 126.911003 126.816568 0 70.034544-56.824597 126.816569-126.911003 126.816569-70.094145 0-126.910615-56.782025-126.910615-126.816569 0-70.042284 56.81647-126.816568 126.910615-126.816568zm203.231611-121.91799.000387.015481c-25.223597 0-45.688332 20.425646-45.688332 45.638019 0 25.205021 20.464735 45.654275 45.688332 45.654275 25.223211 0 45.687946-20.449254 45.687946-45.654275 0-25.204633-20.464735-45.6535-45.688333-45.6535z"/></svg>