<svg height="1391" viewBox="0 0 1024 1391" width="1024" xmlns="http://www.w3.org/2000/svg"><path d="m472.746667.06666667 2.528133 4.17263616c25.746555 42.55862787 237.702267 394.47056417 151.071867 303.02736417-16.812119-17.746126-39.644489-25.893928-65.285295-27.872795l-.005002.011374c9.209154 36.883832 22.676171 62.99936 40.104143 82.079709 18.226654 19.954755 41.092655 33.662948 83.419646 51.285971l3.95615 1.635707c2.028461.833616 4.145382 1.697018 6.447226 2.630062l21.711531 8.736902c21.258694 8.586654 36.594278 15.110912 50.662474 21.849172l1.319998.634665 1.31338.636349 1.307625.638455c1.087528.533039 2.169958 1.068711 3.249533 1.608112l1.327423.665836c4.420969 2.226238 8.809392 4.522816 13.320205 6.965492 31.099357 16.840785 58.150234 36.324099 82.429377 60.603241 198.615449 198.615448 198.615449 520.634711 0 719.250161-198.615448 198.61545-520.634714 198.61545-719.250162 0-194.1701369-194.17014-198.5159549-506.281984-13.037454-705.731545l-.045179-.050411c8.513359-9.180055 17.361457-18.045291 26.524887-26.5763l136.199827 136.200753 38.618029-38.616968 38.617458 142.401878-142.401878-38.617458 38.617391-38.618452-34.66222-34.660249c-58.209623 64.418863-89.393786 144.580875-93.552488 225.867635l49.012708.002614.000667-54.613244 128 73.386667-128 73.386667-.000667-54.61409-49.012792.001809c4.158345 81.286957 35.342272 161.449264 93.551781 225.868414l34.663011-34.66122-38.617391-38.61661 142.401878-38.61746-38.617458 142.40188-38.618029-38.61781-34.660672 34.66264c64.41877 58.20954 144.580646 89.3937 225.867286 93.55247l.002386-49.01411-54.612667.00075 73.386667-128 73.386667 128-54.613667-.00075.002386 49.01416c81.286983-4.15857 161.449251-35.34274 225.868286-93.55252l-34.661672-34.66264-38.617029 38.61781-38.617458-142.40188 142.401878 38.61746-38.618391 38.61661 34.664011 34.66122c58.209509-64.41915 89.393436-144.581457 93.551781-225.868414l-49.013792-.001809.000333 54.61409-128-73.386667 128-73.386667-.000333 54.613244 49.013708-.002614c-4.158724-81.287178-35.343186-161.449599-93.553387-225.868631l-34.662321 34.661245 38.618391 38.618452-142.401878 38.617458 38.617458-142.401878 38.617029 38.616968 34.392312-34.393754c-21.664651-17.907593-47.653819-30.917637-95.498244-50.231268l-15.467286-6.216147c-4.837148-1.949906-8.930932-3.615176-12.872335-5.240727-61.843421-25.506043-101.219487-48.796076-137.226472-88.216947-35.588628-38.962848-60.416248-88.590258-75.139854-151.680757-71.254504 25.120193-121.788169 52.302229-83.956788 9.312023 75.093334-85.333333 136.533334-315.73333333 136.533334-315.73333333zm39.253333 708.26666633c94.256597 0 170.666667 76.41007 170.666667 170.666667s-76.41007 170.66667-170.666667 170.66667-170.666667-76.410073-170.666667-170.66667 76.41007-170.666667 170.666667-170.666667z"/></svg>