<svg height="649" viewBox="0 0 1024 649" width="1024" xmlns="http://www.w3.org/2000/svg"><path d="m1024 11.4541777c0 3.6925241-1.1708 7.0248021-3.42234 10.0868953-2.3416 2.9720317-4.77326 4.5030783-7.56517 4.5030783-22.425331 2.1614775-40.887952 9.3664028-55.117679 21.7048373-14.319789 12.2483729-28.999824 35.7544415-44.220229 70.3380824l-232.358839 523.617942c-1.531046 4.863325-5.76394 7.294987-12.788742 7.294987-5.493756 0-9.726649-2.431662-12.788742-7.294987l-130.319086-272.526297-149.862445 272.526297c-3.062093 4.863325-7.294987 7.294987-12.788742 7.294987-6.664556 0-11.077573-2.431662-13.23905-7.294987l-228.306069-523.617942c-14.229727-32.5122249-29.2700086-55.2077394-45.1208441-68.0865433-15.760774-12.8788039-37.8258576-20.8942832-66.0151276-23.9563764-2.43166223 0-4.77326293-1.2608619-6.84467894-3.8726473-2.16147757-2.5217239-3.24221636-5.4937555-3.24221636-8.8260335 0-8.55584869 2.43166227-12.78874227 7.29498681-12.78874227 20.35391379 0 41.60844329.90061566 63.85364999 2.70184697 20.6240985 1.89129287 40.0773962 2.79190853 58.2698332 2.79190853 18.552682 0 40.437643-.90061566 65.654881-2.79190853 26.388039-1.80123131 49.804046-2.70184697 70.157959-2.70184697 4.863325 0 7.294987 4.23289358 7.294987 12.78874227 0 8.4657872-1.531046 12.6986808-4.503078 12.6986808-20.353914 1.5310466-36.384872 6.7546174-48.092876 15.4905892-11.708004 8.8260335-17.562005 20.3539139-17.562005 34.6737028 0 7.2949868 2.431662 16.3912049 7.294987 27.2886547l188.678979 426.081266 107.083202-202.278276-99.788215-209.213017c-17.922251-37.2854879-32.692348-61.4219874-44.220229-72.2293753-11.52788-10.7173263-28.999824-17.3818822-52.415831-19.8135444-2.161477 0-4.142832-1.2608619-6.124186-3.8726473-1.981355-2.5217239-2.972032-5.4937555-2.972032-8.8260335 0-8.55584869 2.071416-12.78874227 6.394371-12.78874227 20.353914 0 38.996658.90061566 56.018294 2.70184697 16.391205 1.89129287 33.863149 2.79190853 52.415831 2.79190853 18.192436 0 37.465611-.90061566 57.819525-2.79190853 20.984345-1.80123131 41.608444-2.70184697 61.962357-2.70184697 4.863325 0 7.294987 4.23289358 7.294987 12.78874227 0 8.4657872-1.440985 12.6986808-4.503078 12.6986808-40.707828 2.7919085-61.061742 14.3197889-61.061742 34.6737027 0 9.0962181 4.683202 23.2358839 14.139666 42.328936l66.015128 134.011609 65.654881-122.57379c9.096218-17.291821 13.689358-31.8817946 13.689358-43.7699212 0-27.9190853-20.353914-42.7792436-61.061741-44.6705365-3.692525 0-5.493756-4.2328936-5.493756-12.6986808 0-3.0620932.900616-5.94406329 2.701847-8.64591025 1.891293-2.79190853 3.692524-4.14283202 5.493756-4.14283202 14.589973 0 32.512225.90061566 53.766754 2.70184697 20.353914 1.89129287 37.105365 2.79190853 50.164292 2.79190853 9.366403 0 23.235884-.81055409 41.42832-2.3416007 23.055761-2.07141601 42.418998-3.1521548 57.909587-3.1521548 3.602463 0 5.403694 3.60246262 5.403694 10.89744947 0 9.726649-3.332278 14.5899736-9.996834 14.5899736-23.686192 2.4316622-42.779244 9.0061565-57.189094 19.6334213-14.40985 10.6272647-32.422164 34.7637643-53.946878 72.4094984l-87.539841 161.840633 118.52102 241.455058 174.989622-406.898153c6.034125-14.8601587 9.096218-28.5495167 9.096218-40.9780127 0-29.8103782-20.353914-45.5711521-61.061742-47.462445-3.692524 0-5.493755-4.2328936-5.493755-12.6986808 0-8.55584869 2.701847-12.78874227 8.195602-12.78874227 14.860159 0 32.512225.90061566 52.866139 2.70184697 18.822867 1.89129287 34.673703 2.79190853 47.372384 2.79190853 13.419173 0 28.909762-.90061566 46.471768-2.79190853 18.282497-1.80123131 34.673707-2.70184697 49.263677-2.70184697 4.23289 0 6.39437 3.60246262 6.39437 10.89744947z" fill-rule="evenodd"/></svg>