<?xml version="1.0" encoding="UTF-8"?>
<!--Generator: Apple Native CoreSVG 341-->
<!DOCTYPE svg
PUBLIC "-//W3C//DTD SVG 1.1//EN"
       "http://www.w3.org/Graphics/SVG/1.1/DTD/svg11.dtd">
<svg version="1.1" xmlns="http://www.w3.org/2000/svg" xmlns:xlink="http://www.w3.org/1999/xlink" viewBox="0 0 3300 2200">
 <!--glyph: "", point size: 100.0, font version: "21.0d6e2", template writer version: "138.0.0"-->
 <style>.defaults {-sfsymbols-variable-value-mode:color;-sfsymbols-draw-reverses-motion-groups:true}

.monochrome-0 {-sfsymbols-motion-group:1;-sfsymbols-layer-tags:-51684adb517ebb26 -8a15606371dbe21}
.monochrome-1 {opacity:0.0;-sfsymbols-clear-behind:true;-sfsymbols-motion-group:0;-sfsymbols-layer-tags:-8a15606371dbe21 _slash}
.monochrome-2 {-sfsymbols-motion-group:0;-sfsymbols-layer-tags:-8a15606371dbe21 _slash}

.multicolor-0:tintColor {-sfsymbols-motion-group:1;-sfsymbols-layer-tags:-51684adb517ebb26 -8a15606371dbe21}
.multicolor-1:tintColor {opacity:0.0;-sfsymbols-clear-behind:true;-sfsymbols-motion-group:0;-sfsymbols-layer-tags:-8a15606371dbe21 _slash}
.multicolor-2:tintColor {-sfsymbols-motion-group:0;-sfsymbols-layer-tags:-8a15606371dbe21 _slash}

.hierarchical-0:secondary {-sfsymbols-motion-group:1;-sfsymbols-layer-tags:-51684adb517ebb26 -8a15606371dbe21}
.hierarchical-1:primary {opacity:0.0;-sfsymbols-clear-behind:true;-sfsymbols-motion-group:0;-sfsymbols-layer-tags:-8a15606371dbe21 _slash}
.hierarchical-2:primary {-sfsymbols-motion-group:0;-sfsymbols-layer-tags:-8a15606371dbe21 _slash}

.SFSymbolsPreviewWireframe {fill:none;opacity:1.0;stroke:black;stroke-width:0.5}
</style>
 <g id="Notes">
  <rect height="2200" id="artboard" style="fill:white;opacity:1" width="3300" x="0" y="0"/>
  <line style="fill:none;stroke:black;opacity:1;stroke-width:0.5;" x1="263" x2="3036" y1="292" y2="292"/>
  <text style="stroke:none;fill:black;font-family:sans-serif;font-size:13;font-weight:bold;" transform="matrix(1 0 0 1 263 322)">Weight/Scale Variations</text>
  <text style="stroke:none;fill:black;font-family:sans-serif;font-size:13;text-anchor:middle;" transform="matrix(1 0 0 1 559.711 322)">Ultralight</text>
  <text style="stroke:none;fill:black;font-family:sans-serif;font-size:13;text-anchor:middle;" transform="matrix(1 0 0 1 856.422 322)">Thin</text>
  <text style="stroke:none;fill:black;font-family:sans-serif;font-size:13;text-anchor:middle;" transform="matrix(1 0 0 1 1153.13 322)">Light</text>
  <text style="stroke:none;fill:black;font-family:sans-serif;font-size:13;text-anchor:middle;" transform="matrix(1 0 0 1 1449.84 322)">Regular</text>
  <text style="stroke:none;fill:black;font-family:sans-serif;font-size:13;text-anchor:middle;" transform="matrix(1 0 0 1 1746.56 322)">Medium</text>
  <text style="stroke:none;fill:black;font-family:sans-serif;font-size:13;text-anchor:middle;" transform="matrix(1 0 0 1 2043.27 322)">Semibold</text>
  <text style="stroke:none;fill:black;font-family:sans-serif;font-size:13;text-anchor:middle;" transform="matrix(1 0 0 1 2339.98 322)">Bold</text>
  <text style="stroke:none;fill:black;font-family:sans-serif;font-size:13;text-anchor:middle;" transform="matrix(1 0 0 1 2636.69 322)">Heavy</text>
  <text style="stroke:none;fill:black;font-family:sans-serif;font-size:13;text-anchor:middle;" transform="matrix(1 0 0 1 2933.4 322)">Black</text>
  <line style="fill:none;stroke:black;opacity:1;stroke-width:0.5;" x1="263" x2="3036" y1="1903" y2="1903"/>
  <g transform="matrix(0.2 0 0 0.2 263 1933)">
   <path d="m46.2402 4.15039c21.7773 0 39.4531-17.627 39.4531-39.4043s-17.6758-39.4043-39.4531-39.4043c-21.7285 0-39.4043 17.627-39.4043 39.4043s17.6758 39.4043 39.4043 39.4043Zm0-7.42188c-17.6758 0-31.9336-14.3066-31.9336-31.9824s14.2578-31.9824 31.9336-31.9824 31.9824 14.3066 31.9824 31.9824-14.3066 31.9824-31.9824 31.9824Zm3.61328-17.7734v-28.4668c0-2.24609-1.46484-3.75977-3.71094-3.75977-2.14844 0-3.61328 1.51367-3.61328 3.75977v28.4668c0 2.19727 1.46484 3.71094 3.61328 3.71094 2.24609 0 3.71094-1.51367 3.71094-3.71094Zm-17.8223-10.5957h28.418c2.19727 0 3.71094-1.46484 3.71094-3.61328 0-2.19727-1.51367-3.71094-3.71094-3.71094h-28.418c-2.24609 0-3.75977 1.51367-3.75977 3.71094 0 2.14844 1.51367 3.61328 3.75977 3.61328Z"/>
  </g>
  <g transform="matrix(0.2 0 0 0.2 281.506 1933)">
   <path d="m58.5449 14.5508c27.4902 0 49.8047-22.3145 49.8047-49.8047s-22.3145-49.8047-49.8047-49.8047-49.8047 22.3145-49.8047 49.8047 22.3145 49.8047 49.8047 49.8047Zm0-8.30078c-22.9492 0-41.5039-18.5547-41.5039-41.5039s18.5547-41.5039 41.5039-41.5039 41.5039 18.5547 41.5039 41.5039-18.5547 41.5039-41.5039 41.5039Zm4.05273-23.0957v-36.9141c0-2.49023-1.70898-4.19922-4.15039-4.19922-2.39258 0-4.05273 1.70898-4.05273 4.19922v36.9141c0 2.44141 1.66016 4.15039 4.05273 4.15039 2.44141 0 4.15039-1.66016 4.15039-4.15039Zm-22.5586-14.4043h36.9629c2.44141 0 4.15039-1.61133 4.15039-4.00391 0-2.44141-1.70898-4.15039-4.15039-4.15039h-36.9629c-2.49023 0-4.15039 1.70898-4.15039 4.15039 0 2.39258 1.66016 4.00391 4.15039 4.00391Z"/>
  </g>
  <g transform="matrix(0.2 0 0 0.2 304.924 1933)">
   <path d="m74.8535 28.3203c35.1074 0 63.623-28.4668 63.623-63.5742s-28.5156-63.623-63.623-63.623-63.5742 28.5156-63.5742 63.623 28.4668 63.5742 63.5742 63.5742Zm0-9.08203c-30.127 0-54.4922-24.3652-54.4922-54.4922s24.3652-54.4922 54.4922-54.4922 54.4922 24.3652 54.4922 54.4922-24.3652 54.4922-54.4922 54.4922Zm4.44336-30.3223v-48.4863c0-2.73438-1.85547-4.63867-4.54102-4.63867-2.58789 0-4.44336 1.9043-4.44336 4.63867v48.4863c0 2.68555 1.85547 4.58984 4.44336 4.58984 2.68555 0 4.54102-1.85547 4.54102-4.58984Zm-28.7109-19.7754h48.4863c2.68555 0 4.58984-1.80664 4.58984-4.39453 0-2.73438-1.85547-4.58984-4.58984-4.58984h-48.4863c-2.73438 0-4.58984 1.85547-4.58984 4.58984 0 2.58789 1.85547 4.39453 4.58984 4.39453Z"/>
  </g>
  <text style="stroke:none;fill:black;font-family:sans-serif;font-size:13;font-weight:bold;" transform="matrix(1 0 0 1 263 1953)">Design Variations</text>
  <text style="stroke:none;fill:black;font-family:sans-serif;font-size:13;" transform="matrix(1 0 0 1 263 1971)">Symbols are supported in up to nine weights and three scales.</text>
  <text style="stroke:none;fill:black;font-family:sans-serif;font-size:13;" transform="matrix(1 0 0 1 263 1989)">For optimal layout with text and other symbols, vertically align</text>
  <text style="stroke:none;fill:black;font-family:sans-serif;font-size:13;" transform="matrix(1 0 0 1 263 2007)">symbols with the adjacent text.</text>
  <line style="fill:none;stroke:#00AEEF;stroke-width:0.5;opacity:1.0;" x1="776" x2="776" y1="1919" y2="1933"/>
  <g transform="matrix(0.2 0 0 0.2 776 1933)">
   <path d="m16.5527 0.78125c2.58789 0 3.85742-0.976562 4.78516-3.71094l20.5566-57.5195h0.244141l20.6055 57.5195c0.927734 2.73438 2.19727 3.71094 4.73633 3.71094 2.58789 0 4.24805-1.5625 4.24805-4.00391 0-0.830078-0.146484-1.61133-0.537109-2.63672l-22.9004-60.9863c-1.12305-2.97852-3.125-4.49219-6.25-4.49219-3.02734 0-5.07812 1.46484-6.15234 4.44336l-22.9004 61.084c-0.390625 1.02539-0.537109 1.80664-0.537109 2.63672 0 2.44141 1.5625 3.95508 4.10156 3.95508Zm10.2051-20.9473h30.6641c2.00195 0 3.66211-1.66016 3.66211-3.66211 0-2.05078-1.66016-3.66211-3.66211-3.66211h-30.6641c-2.00195 0-3.66211 1.61133-3.66211 3.66211 0 2.00195 1.66016 3.66211 3.66211 3.66211Z"/>
  </g>
  <line style="fill:none;stroke:#00AEEF;stroke-width:0.5;opacity:1.0;" x1="792.836" x2="792.836" y1="1919" y2="1933"/>
  <text style="stroke:none;fill:black;font-family:sans-serif;font-size:13;font-weight:bold;" transform="matrix(1 0 0 1 776 1953)">Margins</text>
  <text style="stroke:none;fill:black;font-family:sans-serif;font-size:13;" transform="matrix(1 0 0 1 776 1971)">Leading and trailing margins on the left and right side of each symbol</text>
  <text style="stroke:none;fill:black;font-family:sans-serif;font-size:13;" transform="matrix(1 0 0 1 776 1989)">can be adjusted by modifying the x-location of the margin guidelines.</text>
  <text style="stroke:none;fill:black;font-family:sans-serif;font-size:13;" transform="matrix(1 0 0 1 776 2007)">Modifications are automatically applied proportionally to all</text>
  <text style="stroke:none;fill:black;font-family:sans-serif;font-size:13;" transform="matrix(1 0 0 1 776 2025)">scales and weights.</text>
  <g transform="matrix(0.2 0 0 0.2 1289 1933)">
   <path d="m14.209 13.1348 7.86133 7.86133c4.29688 4.39453 9.32617 4.10156 13.8672-1.02539l60.6934-68.2129-4.88281-4.88281-60.2539 67.6758c-1.80664 1.95312-3.4668 2.44141-5.81055 0.0976562l-5.17578-5.12695c-2.29492-2.29492-1.80664-3.95508 0.195312-5.81055l67.4805-62.1582-4.88281-4.83398-68.0664 62.5977c-4.98047 4.58984-5.32227 9.47266-1.02539 13.8184Zm44.873-97.4609c-2.05078 2.00195-2.24609 4.88281-1.07422 6.78711 1.12305 1.80664 3.4668 3.02734 6.5918 2.24609 5.85938-1.66016 12.5977-2.39258 18.8965 0.927734l-2.68555 7.12891c-1.61133 4.00391-0.732422 6.88477 1.70898 9.42383l10.2539 10.3027c2.34375 2.39258 4.54102 2.44141 7.08008 1.95312l4.44336-0.732422 2.58789 2.53906-0.195312 2.24609c-0.0976562 2.29492 0.537109 4.29688 2.7832 6.49414l3.36914 3.32031c2.29492 2.29492 5.51758 2.49023 7.8125 0.195312l12.9883-13.0371c2.29492-2.34375 2.14844-5.37109-0.195312-7.66602l-3.41797-3.41797c-2.19727-2.19727-4.05273-3.02734-6.34766-2.88086l-2.34375 0.244141-2.44141-2.44141 1.02539-4.6875c0.634766-2.73438-0.244141-4.98047-2.88086-7.61719l-11.2793-11.1816c-12.9395-12.8418-35.5957-11.0352-46.6797-0.146484Zm7.08008 2.05078c8.78906-6.39648 25.9766-5.66406 33.6914 1.95312l12.3047 12.207c1.02539 1.02539 1.2207 1.80664 0.927734 3.32031l-1.46484 6.64062 6.73828 6.68945 4.39453-0.244141c1.12305-0.0488281 1.51367 0.0488281 2.34375 0.878906l2.53906 2.49023-10.8398 10.8398-2.49023-2.49023c-0.830078-0.878906-0.976562-1.2207-0.927734-2.39258l0.292969-4.3457-6.68945-6.73828-6.83594 1.17188c-1.41602 0.292969-2.05078 0.195312-3.17383-0.878906l-8.93555-8.88672c-1.07422-1.02539-1.17188-1.70898-0.488281-3.36914l4.58984-11.4746c-6.10352-6.34766-17.041-7.51953-25.5859-4.58984-0.683594 0.244141-0.927734-0.390625-0.390625-0.78125Z"/>
  </g>
  <text style="stroke:none;fill:black;font-family:sans-serif;font-size:13;font-weight:bold;" transform="matrix(1 0 0 1 1289 1953)">Exporting</text>
  <text style="stroke:none;fill:black;font-family:sans-serif;font-size:13;" transform="matrix(1 0 0 1 1289 1971)">Symbols should be outlined when exporting to ensure the</text>
  <text style="stroke:none;fill:black;font-family:sans-serif;font-size:13;" transform="matrix(1 0 0 1 1289 1989)">design is preserved when submitting to Xcode.</text>
  <text id="template-version" style="stroke:none;fill:black;font-family:sans-serif;font-size:13;text-anchor:end;" transform="matrix(1 0 0 1 3036 1933)">Template v.7.0</text>
  <text style="stroke:none;fill:black;font-family:sans-serif;font-size:13;text-anchor:end;" transform="matrix(1 0 0 1 3036 1951)">Requires Xcode 17 or greater</text>
  <text id="descriptive-name" style="stroke:none;fill:black;font-family:sans-serif;font-size:13;text-anchor:end;" transform="matrix(1 0 0 1 3036 1969)">Generated from </text>
  <text style="stroke:none;fill:black;font-family:sans-serif;font-size:13;text-anchor:end;" transform="matrix(1 0 0 1 3036 1987)">Typeset at 100.0 points</text>
  <text style="stroke:none;fill:black;font-family:sans-serif;font-size:13;" transform="matrix(1 0 0 1 263 726)">Small</text>
  <text style="stroke:none;fill:black;font-family:sans-serif;font-size:13;" transform="matrix(1 0 0 1 263 1156)">Medium</text>
  <text style="stroke:none;fill:black;font-family:sans-serif;font-size:13;" transform="matrix(1 0 0 1 263 1586)">Large</text>
 </g>
 <g id="Guides">
  <g id="H-reference" style="fill:#27AAE1;stroke:none;" transform="matrix(1 0 0 1 339 696)">
   <path d="M0.993654 0L3.63775 0L29.3281-67.1323L30.0303-67.1323L30.0303-70.459L28.1226-70.459ZM11.6885-24.4799L46.9815-24.4799L46.2315-26.7285L12.4385-26.7285ZM55.1196 0L57.7637 0L30.6382-70.459L29.4326-70.459L29.4326-67.1323Z"/>
  </g>
  <line id="Baseline-S" style="fill:none;stroke:#27AAE1;opacity:1;stroke-width:0.5;" x1="263" x2="3036" y1="696" y2="696"/>
  <line id="Capline-S" style="fill:none;stroke:#27AAE1;opacity:1;stroke-width:0.5;" x1="263" x2="3036" y1="625.541" y2="625.541"/>
  <g id="H-reference" style="fill:#27AAE1;stroke:none;" transform="matrix(1 0 0 1 339 1126)">
   <path d="M0.993654 0L3.63775 0L29.3281-67.1323L30.0303-67.1323L30.0303-70.459L28.1226-70.459ZM11.6885-24.4799L46.9815-24.4799L46.2315-26.7285L12.4385-26.7285ZM55.1196 0L57.7637 0L30.6382-70.459L29.4326-70.459L29.4326-67.1323Z"/>
  </g>
  <line id="Baseline-M" style="fill:none;stroke:#27AAE1;opacity:1;stroke-width:0.5;" x1="263" x2="3036" y1="1126" y2="1126"/>
  <line id="Capline-M" style="fill:none;stroke:#27AAE1;opacity:1;stroke-width:0.5;" x1="263" x2="3036" y1="1055.54" y2="1055.54"/>
  <g id="H-reference" style="fill:#27AAE1;stroke:none;" transform="matrix(1 0 0 1 339 1556)">
   <path d="M0.993654 0L3.63775 0L29.3281-67.1323L30.0303-67.1323L30.0303-70.459L28.1226-70.459ZM11.6885-24.4799L46.9815-24.4799L46.2315-26.7285L12.4385-26.7285ZM55.1196 0L57.7637 0L30.6382-70.459L29.4326-70.459L29.4326-67.1323Z"/>
  </g>
  <line id="Baseline-L" style="fill:none;stroke:#27AAE1;opacity:1;stroke-width:0.5;" x1="263" x2="3036" y1="1556" y2="1556"/>
  <line id="Capline-L" style="fill:none;stroke:#27AAE1;opacity:1;stroke-width:0.5;" x1="263" x2="3036" y1="1485.54" y2="1485.54"/>
  <line id="right-margin-Black-S" style="fill:none;stroke:#00AEEF;stroke-width:0.5;opacity:1.0;" x1="2987.45" x2="2987.45" y1="600.785" y2="720.121"/>
  <line id="left-margin-Black-S" style="fill:none;stroke:#00AEEF;stroke-width:0.5;opacity:1.0;" x1="2879.35" x2="2879.35" y1="600.785" y2="720.121"/>
  <line id="right-margin-Regular-S" style="fill:none;stroke:#00AEEF;stroke-width:0.5;opacity:1.0;" x1="1500.8" x2="1500.8" y1="600.785" y2="720.121"/>
  <line id="left-margin-Regular-S" style="fill:none;stroke:#00AEEF;stroke-width:0.5;opacity:1.0;" x1="1398.89" x2="1398.89" y1="600.785" y2="720.121"/>
  <line id="right-margin-Ultralight-S" style="fill:none;stroke:#00AEEF;stroke-width:0.5;opacity:1.0;" x1="608.098" x2="608.098" y1="600.785" y2="720.121"/>
  <line id="left-margin-Ultralight-S" style="fill:none;stroke:#00AEEF;stroke-width:0.5;opacity:1.0;" x1="511.325" x2="511.325" y1="600.785" y2="720.121"/>
 </g>
 <g id="Symbols">
  <g id="Black-S" transform="matrix(1 0 0 1 2879.35 696)">
   <path class="monochrome-0 multicolor-0:tintColor hierarchical-0:secondary SFSymbolsPreviewWireframe" d="M94.6752-10.9807L94.6752-6.5807L81.4741-6.5807L81.4752 2.2193L68.2741 2.2193L68.2752 11.0193L55.0741 11.0193L55.0752 19.8193L37.4752 19.8193L37.4752 15.4193L50.6741 15.4193L50.6752 6.6193L63.8741 6.6193L63.8752-2.1807L77.0741-2.1807L77.0752-10.9807L94.6752-10.9807ZM33.1352-20.7953C33.584-20.6414 34.0505-20.5203 34.5325-20.4353L43.8534-18.3752L41.5266-5.17269C41.4516-4.74757 41.3205-4.34649 41.1421-3.97572C41.0252-3.35045 40.7763-2.73882 40.3873-2.18333L26.3533 17.8593C24.8976 19.9383 22.0321 20.4436 19.9531 18.9878C17.8741 17.5321 17.3688 14.6666 18.8246 12.5876L32.033-6.27598C31.958-6.67756 31.9358-7.09589 31.9731-7.52275L33.1352-20.7953ZM45.6505-67.5302C48.0568-66.7501 50.0137-65.4921 51.3395-63.8741C51.6417-63.5827 51.9087-63.2445 52.1292-62.8626L60.0249-49.1856L76.4561-49.1847C78.9941-49.1847 81.0516-47.1273 81.0516-44.5893C81.0516-42.0512 78.9941-39.9938 76.4561-39.9938L57.4998-39.9938C55.8726-39.9938 54.4429-40.8395 53.6263-42.1154C53.3976-42.3624 53.1928-42.6385 53.0174-42.9422L51.2015-46.0871L48.8901-32.976L63.9704-27.4869C64.3738-27.3401 64.7441-27.1426 65.0769-26.9044C66.9993-25.8198 67.9123-23.4739 67.1325-21.3315L59.391-0.0618459C58.5229 2.32311 55.8858 3.5528 53.5009 2.68474C51.1159 1.81669 49.8863-0.820386 50.7543-3.20534L56.9598-20.258L35.8067-24.9354C30.8078-25.8169 27.4699-30.5838 28.3514-35.5827L32.0925-56.8086L22.6212-51.34L22.6212-35.1111C22.6212-32.5731 20.5637-30.5156 18.0257-30.5156C15.4877-30.5156 13.4302-32.5731 13.4302-35.1111L13.4302-54.0674C13.4302-56.1652 14.8358-57.9347 16.7566-58.4854C16.9568-58.6539 17.1752-58.8071 17.41-58.9427L32.7954-67.8254C34.5443-68.8351 40.4206-69.2257 45.6505-67.5302ZM47.6091-90.1807C52.6851-90.1807 56.8-86.0658 56.8-80.9897C56.8-75.9137 52.6851-71.7988 47.6091-71.7988C42.5331-71.7988 38.4181-75.9137 38.4181-80.9897C38.4181-86.0658 42.5331-90.1807 47.6091-90.1807Z"/>
   <path class="monochrome-1 multicolor-1:tintColor hierarchical-1:primary SFSymbolsPreviewWireframe" d="M98.0218-4.48836C101.673-0.837264 101.673 5.09118 98.0218 8.74227C94.3707 12.3934 88.4422 12.3934 84.7911 8.74227L10.0782-65.9706C6.42714-69.6217 6.42714-75.5502 10.0782-79.2013C13.7293-82.8524 19.6578-82.8524 23.3089-79.2013Z" data-clipstroke-keyframes="0 0 0 0.49990463 0.6089134 0 1 0 0.10891342"/>
   <path class="monochrome-2 multicolor-2:tintColor hierarchical-2:primary SFSymbolsPreviewWireframe" d="M93.8717-0.338247C95.2322 1.02234 95.2322 3.23158 93.8717 4.59217C92.5111 5.95275 90.3018 5.95275 88.9412 4.59217L14.2283-70.1207C12.8678-71.4813 12.8678-73.6906 14.2283-75.0511C15.5889-76.4117 17.7982-76.4117 19.1588-75.0511Z" data-clipstroke-keyframes="0 0 0 0.49988937 0.54707384 0 1 0 0.04707384"/>
  </g>
  <g id="Regular-S" transform="matrix(1 0 0 1 1398.89 696)">
   <path class="monochrome-0 multicolor-0:tintColor hierarchical-0:secondary SFSymbolsPreviewWireframe" d="M87.8817-12.668L87.8817-8.66795L75.8807-8.66795L75.8817-0.66795L63.8807-0.66795L63.8817 7.33205L51.8807 7.33205L51.8817 15.332L35.8817 15.332L35.8817 11.332L47.8807 11.332L47.8817 3.33205L59.8807 3.33205L59.8817-4.66795L71.8807-4.66795L71.8817-12.668L87.8817-12.668ZM31.9362-21.5903C32.3442-21.4504 32.7684-21.3403 33.2065-21.263L41.68-19.3903L39.5647-7.38794C39.4966-7.00147 39.3774-6.63685 39.2152-6.29978C39.109-5.73136 38.8827-5.17533 38.5291-4.67034L25.7709 13.5502C24.4475 15.4402 21.8425 15.8996 19.9525 14.5762C18.0625 13.2528 17.6031 10.6478 18.9265 8.75775L30.9343-8.39093C30.8661-8.756 30.8458-9.1363 30.8798-9.52436L31.9362-21.5903ZM43.3137-64.0766C45.5013-63.3674 47.2803-62.2237 48.4855-60.7529C48.7604-60.4879 49.0031-60.1805 49.2035-59.8334L56.3814-47.3997L71.3189-47.3989C73.6262-47.3989 75.4966-45.5285 75.4966-43.2212C75.4966-40.9139 73.6262-39.0435 71.3189-39.0435L54.0858-39.0435C52.6066-39.0435 51.3069-39.8123 50.5645-40.9722C50.3566-41.1967 50.1704-41.4478 50.011-41.7239L48.3602-44.5829L46.2589-32.6637L59.9682-27.6736C60.3349-27.5401 60.6716-27.3606 60.9741-27.144C62.7218-26.158 63.5518-24.0254 62.8429-22.0778L55.8051-2.74172C55.016-0.573582 52.6186 0.544318 50.4505-0.244819C48.2824-1.03396 47.1645-3.4313 47.9536-5.59944L53.595-21.1019L34.3648-25.3541C29.8204-26.1554 26.786-30.489 27.5873-35.0334L30.9883-54.3297L22.378-49.3582L22.378-34.6047C22.378-32.2974 20.5076-30.427 18.2003-30.427C15.893-30.427 14.0226-32.2974 14.0226-34.6047L14.0226-51.8377C14.0226-53.7448 15.3004-55.3534 17.0465-55.8541C17.2286-56.0072 17.4271-56.1465 17.6406-56.2697L31.6273-64.3449C33.2172-65.2629 38.5593-65.618 43.3137-64.0766ZM45.0943-84.668C49.7089-84.668 53.4497-80.9271 53.4497-76.3125C53.4497-71.698 49.7089-67.9571 45.0943-67.9571C40.4797-67.9571 36.7389-71.698 36.7389-76.3125C36.7389-80.9271 40.4797-84.668 45.0943-84.668Z"/>
   <path class="monochrome-1 multicolor-1:tintColor hierarchical-1:primary SFSymbolsPreviewWireframe" d="M92.0083-6.06714C95.2898-2.78573 95.2898 2.54245 92.0083 5.82386C88.7269 9.10527 83.3988 9.10527 80.1174 5.82386L9.90165-64.3918C6.62024-67.6733 6.62024-73.0014 9.90165-76.2828C13.1831-79.5643 18.5112-79.5643 21.7926-76.2828Z" data-clipstroke-keyframes="0 0 0 0.50010824 0.6049547 0 1 0 0.10495472"/>
   <path class="monochrome-2 multicolor-2:tintColor hierarchical-2:primary SFSymbolsPreviewWireframe" d="M88.5419-2.60066C89.9101-1.23245 89.9101 0.98917 88.5419 2.35738C87.1737 3.72558 84.952 3.72558 83.5838 2.35738L13.3681-67.8583C11.9999-69.2265 11.9999-71.4482 13.3681-72.8164C14.7363-74.1846 16.958-74.1846 18.3262-72.8164Z" data-clipstroke-keyframes="0 0 0 0.50020504 0.5497174 0 1 0 0.049717426"/>
  </g>
  <g id="Ultralight-S" transform="matrix(1 0 0 1 511.325 696)">
   <path class="monochrome-0 multicolor-0:tintColor hierarchical-0:secondary SFSymbolsPreviewWireframe" d="M81.6231-15.4583L81.6231-11.8583L70.8222-11.8583L70.8231-4.65832L60.0222-4.65832L60.0231 2.54168L49.2222 2.54168L49.2231 9.74168L34.8231 9.74168L34.8231 6.14168L45.6222 6.14168L45.6231-1.05832L56.4222-1.05832L56.4231-8.25832L67.2222-8.25832L67.2231-15.4583L81.6231-15.4583ZM31.2721-23.4885C31.6394-23.3625 32.0211-23.2634 32.4154-23.1939L40.0416-21.5084L38.1378-10.7063C38.0765-10.3585 37.9692-10.0303 37.8232-9.72697C37.7276-9.21539 37.524-8.71496 37.2057-8.26047L25.7234 8.13803C24.5323 9.83905 22.1878 10.2524 20.4868 9.06138C18.7858 7.87032 18.3724 5.52583 19.5634 3.82481L30.3704-11.609C30.309-11.9376 30.2908-12.2798 30.3214-12.6291L31.2721-23.4885ZM41.5119-61.7261C43.4808-61.0878 45.0818-60.0585 46.1665-58.7348C46.4139-58.4963 46.6323-58.2196 46.8127-57.9072L53.2728-46.7169L66.7165-46.7162C68.7931-46.7162 70.4765-45.0328 70.4765-42.9562C70.4765-40.8797 68.7931-39.1963 66.7165-39.1963L51.2068-39.1963C49.8755-39.1963 48.7057-39.8882 48.0376-40.9321C47.8504-41.1342 47.6829-41.3602 47.5394-41.6087L46.0537-44.1817L44.1626-33.4545L56.501-28.9634C56.831-28.8433 57.134-28.6817 57.4062-28.4868C58.9791-27.5994 59.7261-25.6801 59.0881-23.9272L52.7542-6.52471C52.0439-4.57339 49.8863-3.56728 47.935-4.2775C45.9837-4.98773 44.9776-7.14534 45.6878-9.09666L50.765-23.0489L33.4579-26.8758C29.3679-27.597 26.6369-31.4972 27.3581-35.5873L30.419-52.9539L22.6698-48.4795L22.6698-35.2014C22.6698-33.1248 20.9864-31.4414 18.9098-31.4414C16.8333-31.4414 15.1499-33.1248 15.1499-35.2014L15.1499-50.7111C15.1499-52.4274 16.2999-53.8752 17.8714-54.3258C18.0353-54.4637 18.214-54.589 18.4061-54.6999L30.9941-61.9676C32.425-62.7938 37.2329-63.1133 41.5119-61.7261ZM43.1144-80.2583C47.2675-80.2583 50.6343-76.8916 50.6343-72.7384C50.6343-68.5853 47.2675-65.2186 43.1144-65.2186C38.9613-65.2186 35.5946-68.5853 35.5946-72.7384C35.5946-76.8916 38.9613-80.2583 43.1144-80.2583Z"/>
   <path class="monochrome-1 multicolor-1:tintColor hierarchical-1:primary SFSymbolsPreviewWireframe" d="M86.0727-3.06064C87.5953-1.53808 87.5953 0.934172 86.0727 2.45673C84.5502 3.97929 82.0779 3.97929 80.5554 2.45673L10.7003-67.3983C9.17772-68.9209 9.17772-71.3932 10.7003-72.9157C12.2228-74.4383 14.6951-74.4383 16.2176-72.9157Z" data-clipstroke-keyframes="0 0 0 0.5001135 0.5550747 0 1 0 0.05507469"/>
   <path class="monochrome-2 multicolor-2:tintColor hierarchical-2:primary SFSymbolsPreviewWireframe" d="M84.0218-1.00975C84.4125-0.619106 84.4125 0.0152006 84.0218 0.405845C83.6312 0.796489 82.9969 0.796489 82.6062 0.405845L12.7512-69.4492C12.3605-69.8399 12.3605-70.4742 12.7512-70.8648C13.1418-71.2555 13.7761-71.2555 14.1668-70.8648Z" data-clipstroke-keyframes="0 0 0 0.50012684 0.51529884 0 1 0 0.015298843"/>
  </g>
 </g>
</svg>
