<?xml version="1.0" encoding="UTF-8"?>
<!--Generator: Apple Native CoreSVG 341-->
<!DOCTYPE svg
PUBLIC "-//W3C//DTD SVG 1.1//EN"
       "http://www.w3.org/Graphics/SVG/1.1/DTD/svg11.dtd">
<svg version="1.1" xmlns="http://www.w3.org/2000/svg" xmlns:xlink="http://www.w3.org/1999/xlink" viewBox="0 0 3300 2200">
 <!--glyph: "", point size: 100.0, font version: "21.0d6e2", template writer version: "138.0.0"-->
 <style>.defaults {-sfsymbols-draw-reverses-motion-groups:true}

.monochrome-0 {-sfsymbols-motion-group:1;-sfsymbols-layer-tags:-2d1e265917a563be _enclosure.stroke circle}
.monochrome-1 {-sfsymbols-motion-group:0;-sfsymbols-always-pulses:true;-sfsymbols-layer-tags:-2d1e265917a563be 55194837de271852}

.multicolor-0:tintColor {-sfsymbols-motion-group:1;-sfsymbols-layer-tags:-2d1e265917a563be _enclosure.stroke circle}
.multicolor-1:tintColor {-sfsymbols-motion-group:0;-sfsymbols-always-pulses:true;-sfsymbols-layer-tags:-2d1e265917a563be 55194837de271852}

.hierarchical-0:secondary {-sfsymbols-motion-group:1;-sfsymbols-layer-tags:-2d1e265917a563be _enclosure.stroke circle}
.hierarchical-1:primary {-sfsymbols-motion-group:0;-sfsymbols-always-pulses:true;-sfsymbols-layer-tags:-2d1e265917a563be 55194837de271852}

.SFSymbolsPreviewWireframe {fill:none;opacity:1.0;stroke:black;stroke-width:0.5}
</style>
 <g id="Notes">
  <rect height="2200" id="artboard" style="fill:white;opacity:1" width="3300" x="0" y="0"/>
  <line style="fill:none;stroke:black;opacity:1;stroke-width:0.5;" x1="263" x2="3036" y1="292" y2="292"/>
  <text style="stroke:none;fill:black;font-family:sans-serif;font-size:13;font-weight:bold;" transform="matrix(1 0 0 1 263 322)">Weight/Scale Variations</text>
  <text style="stroke:none;fill:black;font-family:sans-serif;font-size:13;text-anchor:middle;" transform="matrix(1 0 0 1 559.711 322)">Ultralight</text>
  <text style="stroke:none;fill:black;font-family:sans-serif;font-size:13;text-anchor:middle;" transform="matrix(1 0 0 1 856.422 322)">Thin</text>
  <text style="stroke:none;fill:black;font-family:sans-serif;font-size:13;text-anchor:middle;" transform="matrix(1 0 0 1 1153.13 322)">Light</text>
  <text style="stroke:none;fill:black;font-family:sans-serif;font-size:13;text-anchor:middle;" transform="matrix(1 0 0 1 1449.84 322)">Regular</text>
  <text style="stroke:none;fill:black;font-family:sans-serif;font-size:13;text-anchor:middle;" transform="matrix(1 0 0 1 1746.56 322)">Medium</text>
  <text style="stroke:none;fill:black;font-family:sans-serif;font-size:13;text-anchor:middle;" transform="matrix(1 0 0 1 2043.27 322)">Semibold</text>
  <text style="stroke:none;fill:black;font-family:sans-serif;font-size:13;text-anchor:middle;" transform="matrix(1 0 0 1 2339.98 322)">Bold</text>
  <text style="stroke:none;fill:black;font-family:sans-serif;font-size:13;text-anchor:middle;" transform="matrix(1 0 0 1 2636.69 322)">Heavy</text>
  <text style="stroke:none;fill:black;font-family:sans-serif;font-size:13;text-anchor:middle;" transform="matrix(1 0 0 1 2933.4 322)">Black</text>
  <line style="fill:none;stroke:black;opacity:1;stroke-width:0.5;" x1="263" x2="3036" y1="1903" y2="1903"/>
  <g transform="matrix(0.2 0 0 0.2 263 1933)">
   <path d="m46.2402 4.15039c21.7773 0 39.4531-17.627 39.4531-39.4043s-17.6758-39.4043-39.4531-39.4043c-21.7285 0-39.4043 17.627-39.4043 39.4043s17.6758 39.4043 39.4043 39.4043Zm0-7.42188c-17.6758 0-31.9336-14.3066-31.9336-31.9824s14.2578-31.9824 31.9336-31.9824 31.9824 14.3066 31.9824 31.9824-14.3066 31.9824-31.9824 31.9824Zm3.61328-17.7734v-28.4668c0-2.24609-1.46484-3.75977-3.71094-3.75977-2.14844 0-3.61328 1.51367-3.61328 3.75977v28.4668c0 2.19727 1.46484 3.71094 3.61328 3.71094 2.24609 0 3.71094-1.51367 3.71094-3.71094Zm-17.8223-10.5957h28.418c2.19727 0 3.71094-1.46484 3.71094-3.61328 0-2.19727-1.51367-3.71094-3.71094-3.71094h-28.418c-2.24609 0-3.75977 1.51367-3.75977 3.71094 0 2.14844 1.51367 3.61328 3.75977 3.61328Z"/>
  </g>
  <g transform="matrix(0.2 0 0 0.2 281.506 1933)">
   <path d="m58.5449 14.5508c27.4902 0 49.8047-22.3145 49.8047-49.8047s-22.3145-49.8047-49.8047-49.8047-49.8047 22.3145-49.8047 49.8047 22.3145 49.8047 49.8047 49.8047Zm0-8.30078c-22.9492 0-41.5039-18.5547-41.5039-41.5039s18.5547-41.5039 41.5039-41.5039 41.5039 18.5547 41.5039 41.5039-18.5547 41.5039-41.5039 41.5039Zm4.05273-23.0957v-36.9141c0-2.49023-1.70898-4.19922-4.15039-4.19922-2.39258 0-4.05273 1.70898-4.05273 4.19922v36.9141c0 2.44141 1.66016 4.15039 4.05273 4.15039 2.44141 0 4.15039-1.66016 4.15039-4.15039Zm-22.5586-14.4043h36.9629c2.44141 0 4.15039-1.61133 4.15039-4.00391 0-2.44141-1.70898-4.15039-4.15039-4.15039h-36.9629c-2.49023 0-4.15039 1.70898-4.15039 4.15039 0 2.39258 1.66016 4.00391 4.15039 4.00391Z"/>
  </g>
  <g transform="matrix(0.2 0 0 0.2 304.924 1933)">
   <path d="m74.8535 28.3203c35.1074 0 63.623-28.4668 63.623-63.5742s-28.5156-63.623-63.623-63.623-63.5742 28.5156-63.5742 63.623 28.4668 63.5742 63.5742 63.5742Zm0-9.08203c-30.127 0-54.4922-24.3652-54.4922-54.4922s24.3652-54.4922 54.4922-54.4922 54.4922 24.3652 54.4922 54.4922-24.3652 54.4922-54.4922 54.4922Zm4.44336-30.3223v-48.4863c0-2.73438-1.85547-4.63867-4.54102-4.63867-2.58789 0-4.44336 1.9043-4.44336 4.63867v48.4863c0 2.68555 1.85547 4.58984 4.44336 4.58984 2.68555 0 4.54102-1.85547 4.54102-4.58984Zm-28.7109-19.7754h48.4863c2.68555 0 4.58984-1.80664 4.58984-4.39453 0-2.73438-1.85547-4.58984-4.58984-4.58984h-48.4863c-2.73438 0-4.58984 1.85547-4.58984 4.58984 0 2.58789 1.85547 4.39453 4.58984 4.39453Z"/>
  </g>
  <text style="stroke:none;fill:black;font-family:sans-serif;font-size:13;font-weight:bold;" transform="matrix(1 0 0 1 263 1953)">Design Variations</text>
  <text style="stroke:none;fill:black;font-family:sans-serif;font-size:13;" transform="matrix(1 0 0 1 263 1971)">Symbols are supported in up to nine weights and three scales.</text>
  <text style="stroke:none;fill:black;font-family:sans-serif;font-size:13;" transform="matrix(1 0 0 1 263 1989)">For optimal layout with text and other symbols, vertically align</text>
  <text style="stroke:none;fill:black;font-family:sans-serif;font-size:13;" transform="matrix(1 0 0 1 263 2007)">symbols with the adjacent text.</text>
  <line style="fill:none;stroke:#00AEEF;stroke-width:0.5;opacity:1.0;" x1="776" x2="776" y1="1919" y2="1933"/>
  <g transform="matrix(0.2 0 0 0.2 776 1933)">
   <path d="m16.5527 0.78125c2.58789 0 3.85742-0.976562 4.78516-3.71094l20.5566-57.5195h0.244141l20.6055 57.5195c0.927734 2.73438 2.19727 3.71094 4.73633 3.71094 2.58789 0 4.24805-1.5625 4.24805-4.00391 0-0.830078-0.146484-1.61133-0.537109-2.63672l-22.9004-60.9863c-1.12305-2.97852-3.125-4.49219-6.25-4.49219-3.02734 0-5.07812 1.46484-6.15234 4.44336l-22.9004 61.084c-0.390625 1.02539-0.537109 1.80664-0.537109 2.63672 0 2.44141 1.5625 3.95508 4.10156 3.95508Zm10.2051-20.9473h30.6641c2.00195 0 3.66211-1.66016 3.66211-3.66211 0-2.05078-1.66016-3.66211-3.66211-3.66211h-30.6641c-2.00195 0-3.66211 1.61133-3.66211 3.66211 0 2.00195 1.66016 3.66211 3.66211 3.66211Z"/>
  </g>
  <line style="fill:none;stroke:#00AEEF;stroke-width:0.5;opacity:1.0;" x1="792.836" x2="792.836" y1="1919" y2="1933"/>
  <text style="stroke:none;fill:black;font-family:sans-serif;font-size:13;font-weight:bold;" transform="matrix(1 0 0 1 776 1953)">Margins</text>
  <text style="stroke:none;fill:black;font-family:sans-serif;font-size:13;" transform="matrix(1 0 0 1 776 1971)">Leading and trailing margins on the left and right side of each symbol</text>
  <text style="stroke:none;fill:black;font-family:sans-serif;font-size:13;" transform="matrix(1 0 0 1 776 1989)">can be adjusted by modifying the x-location of the margin guidelines.</text>
  <text style="stroke:none;fill:black;font-family:sans-serif;font-size:13;" transform="matrix(1 0 0 1 776 2007)">Modifications are automatically applied proportionally to all</text>
  <text style="stroke:none;fill:black;font-family:sans-serif;font-size:13;" transform="matrix(1 0 0 1 776 2025)">scales and weights.</text>
  <g transform="matrix(0.2 0 0 0.2 1289 1933)">
   <path d="m14.209 13.1348 7.86133 7.86133c4.29688 4.39453 9.32617 4.10156 13.8672-1.02539l60.6934-68.2129-4.88281-4.88281-60.2539 67.6758c-1.80664 1.95312-3.4668 2.44141-5.81055 0.0976562l-5.17578-5.12695c-2.29492-2.29492-1.80664-3.95508 0.195312-5.81055l67.4805-62.1582-4.88281-4.83398-68.0664 62.5977c-4.98047 4.58984-5.32227 9.47266-1.02539 13.8184Zm44.873-97.4609c-2.05078 2.00195-2.24609 4.88281-1.07422 6.78711 1.12305 1.80664 3.4668 3.02734 6.5918 2.24609 5.85938-1.66016 12.5977-2.39258 18.8965 0.927734l-2.68555 7.12891c-1.61133 4.00391-0.732422 6.88477 1.70898 9.42383l10.2539 10.3027c2.34375 2.39258 4.54102 2.44141 7.08008 1.95312l4.44336-0.732422 2.58789 2.53906-0.195312 2.24609c-0.0976562 2.29492 0.537109 4.29688 2.7832 6.49414l3.36914 3.32031c2.29492 2.29492 5.51758 2.49023 7.8125 0.195312l12.9883-13.0371c2.29492-2.34375 2.14844-5.37109-0.195312-7.66602l-3.41797-3.41797c-2.19727-2.19727-4.05273-3.02734-6.34766-2.88086l-2.34375 0.244141-2.44141-2.44141 1.02539-4.6875c0.634766-2.73438-0.244141-4.98047-2.88086-7.61719l-11.2793-11.1816c-12.9395-12.8418-35.5957-11.0352-46.6797-0.146484Zm7.08008 2.05078c8.78906-6.39648 25.9766-5.66406 33.6914 1.95312l12.3047 12.207c1.02539 1.02539 1.2207 1.80664 0.927734 3.32031l-1.46484 6.64062 6.73828 6.68945 4.39453-0.244141c1.12305-0.0488281 1.51367 0.0488281 2.34375 0.878906l2.53906 2.49023-10.8398 10.8398-2.49023-2.49023c-0.830078-0.878906-0.976562-1.2207-0.927734-2.39258l0.292969-4.3457-6.68945-6.73828-6.83594 1.17188c-1.41602 0.292969-2.05078 0.195312-3.17383-0.878906l-8.93555-8.88672c-1.07422-1.02539-1.17188-1.70898-0.488281-3.36914l4.58984-11.4746c-6.10352-6.34766-17.041-7.51953-25.5859-4.58984-0.683594 0.244141-0.927734-0.390625-0.390625-0.78125Z"/>
  </g>
  <text style="stroke:none;fill:black;font-family:sans-serif;font-size:13;font-weight:bold;" transform="matrix(1 0 0 1 1289 1953)">Exporting</text>
  <text style="stroke:none;fill:black;font-family:sans-serif;font-size:13;" transform="matrix(1 0 0 1 1289 1971)">Symbols should be outlined when exporting to ensure the</text>
  <text style="stroke:none;fill:black;font-family:sans-serif;font-size:13;" transform="matrix(1 0 0 1 1289 1989)">design is preserved when submitting to Xcode.</text>
  <text id="template-version" style="stroke:none;fill:black;font-family:sans-serif;font-size:13;text-anchor:end;" transform="matrix(1 0 0 1 3036 1933)">Template v.7.0</text>
  <text style="stroke:none;fill:black;font-family:sans-serif;font-size:13;text-anchor:end;" transform="matrix(1 0 0 1 3036 1951)">Requires Xcode 17 or greater</text>
  <text id="descriptive-name" style="stroke:none;fill:black;font-family:sans-serif;font-size:13;text-anchor:end;" transform="matrix(1 0 0 1 3036 1969)">Generated from circle</text>
  <text style="stroke:none;fill:black;font-family:sans-serif;font-size:13;text-anchor:end;" transform="matrix(1 0 0 1 3036 1987)">Typeset at 100.0 points</text>
  <text style="stroke:none;fill:black;font-family:sans-serif;font-size:13;" transform="matrix(1 0 0 1 263 726)">Small</text>
  <text style="stroke:none;fill:black;font-family:sans-serif;font-size:13;" transform="matrix(1 0 0 1 263 1156)">Medium</text>
  <text style="stroke:none;fill:black;font-family:sans-serif;font-size:13;" transform="matrix(1 0 0 1 263 1586)">Large</text>
 </g>
 <g id="Guides">
  <g id="H-reference" style="fill:#27AAE1;stroke:none;" transform="matrix(1 0 0 1 339 696)">
   <path d="M0.993654 0L3.63775 0L29.3281-67.1323L30.0303-67.1323L30.0303-70.459L28.1226-70.459ZM11.6885-24.4799L46.9815-24.4799L46.2315-26.7285L12.4385-26.7285ZM55.1196 0L57.7637 0L30.6382-70.459L29.4326-70.459L29.4326-67.1323Z"/>
  </g>
  <line id="Baseline-S" style="fill:none;stroke:#27AAE1;opacity:1;stroke-width:0.5;" x1="263" x2="3036" y1="696" y2="696"/>
  <line id="Capline-S" style="fill:none;stroke:#27AAE1;opacity:1;stroke-width:0.5;" x1="263" x2="3036" y1="625.541" y2="625.541"/>
  <g id="H-reference" style="fill:#27AAE1;stroke:none;" transform="matrix(1 0 0 1 339 1126)">
   <path d="M0.993654 0L3.63775 0L29.3281-67.1323L30.0303-67.1323L30.0303-70.459L28.1226-70.459ZM11.6885-24.4799L46.9815-24.4799L46.2315-26.7285L12.4385-26.7285ZM55.1196 0L57.7637 0L30.6382-70.459L29.4326-70.459L29.4326-67.1323Z"/>
  </g>
  <line id="Baseline-M" style="fill:none;stroke:#27AAE1;opacity:1;stroke-width:0.5;" x1="263" x2="3036" y1="1126" y2="1126"/>
  <line id="Capline-M" style="fill:none;stroke:#27AAE1;opacity:1;stroke-width:0.5;" x1="263" x2="3036" y1="1055.54" y2="1055.54"/>
  <g id="H-reference" style="fill:#27AAE1;stroke:none;" transform="matrix(1 0 0 1 339 1556)">
   <path d="M0.993654 0L3.63775 0L29.3281-67.1323L30.0303-67.1323L30.0303-70.459L28.1226-70.459ZM11.6885-24.4799L46.9815-24.4799L46.2315-26.7285L12.4385-26.7285ZM55.1196 0L57.7637 0L30.6382-70.459L29.4326-70.459L29.4326-67.1323Z"/>
  </g>
  <line id="Baseline-L" style="fill:none;stroke:#27AAE1;opacity:1;stroke-width:0.5;" x1="263" x2="3036" y1="1556" y2="1556"/>
  <line id="Capline-L" style="fill:none;stroke:#27AAE1;opacity:1;stroke-width:0.5;" x1="263" x2="3036" y1="1485.54" y2="1485.54"/>
  <line id="right-margin-Black-S" style="fill:none;stroke:#00AEEF;stroke-width:0.5;opacity:1.0;" x1="2982.23" x2="2982.23" y1="600.785" y2="720.121"/>
  <line id="left-margin-Black-S" style="fill:none;stroke:#00AEEF;stroke-width:0.5;opacity:1.0;" x1="2884.57" x2="2884.57" y1="600.785" y2="720.121"/>
  <line id="right-margin-Regular-S" style="fill:none;stroke:#00AEEF;stroke-width:0.5;opacity:1.0;" x1="1496.11" x2="1496.11" y1="600.785" y2="720.121"/>
  <line id="left-margin-Regular-S" style="fill:none;stroke:#00AEEF;stroke-width:0.5;opacity:1.0;" x1="1403.58" x2="1403.58" y1="600.785" y2="720.121"/>
  <line id="right-margin-Ultralight-S" style="fill:none;stroke:#00AEEF;stroke-width:0.5;opacity:1.0;" x1="603.773" x2="603.773" y1="600.785" y2="720.121"/>
  <line id="left-margin-Ultralight-S" style="fill:none;stroke:#00AEEF;stroke-width:0.5;opacity:1.0;" x1="515.649" x2="515.649" y1="600.785" y2="720.121"/>
 </g>
 <g id="Symbols">
  <g id="Black-S" transform="matrix(1 0 0 1 2884.57 696)">
   <path class="monochrome-0 multicolor-0:tintColor hierarchical-0:secondary SFSymbolsPreviewWireframe" d="M48.8281 6.73828C72.0215 6.73828 90.8203-12.0605 90.8203-35.2539C90.8203-58.4473 72.0215-77.2461 48.8281-77.2461C25.6348-77.2461 6.83594-58.4473 6.83594-35.2539C6.83594-12.0605 25.6348 6.73828 48.8281 6.73828ZM48.8281-7.42188C33.4473-7.42188 20.9961-19.873 20.9961-35.2539C20.9961-50.6348 33.4473-63.0859 48.8281-63.0859C64.209-63.0859 76.6602-50.6348 76.6602-35.2539C76.6602-19.873 64.209-7.42188 48.8281-7.42188Z" data-clipstroke-keyframes="0 4 0 0.49909934 1.5010297 0 0.24858454 0.2505148 1.749485 0 0.49588796 0.0032113674 1.996659 0 0.7506426 0.7484567 1.251544 0 1 0.49909934 1.5010297"/>
   <path class="monochrome-1 multicolor-1:tintColor hierarchical-1:primary SFSymbolsPreviewWireframe" d="M60.554-14.248C62.8762-14.248 64.4984-13.6712 66.7416-12.3402L67.7413-11.7392C68.3287-11.3878 68.8529-11.0951 69.3512-10.8502L69.4148-10.8314C70.2872-10.5735 70.7853-9.6573 70.5275-8.78493C70.3897-8.31872 70.0549-7.94225 69.6197-7.74786L69.3472-7.65382C68.5836-7.94444 67.8321-8.31134 67.005-8.77694L65.9788-9.3791L65.246-9.81948C63.4148-10.906 62.259-11.3169 60.554-11.3169C59.1982-11.3169 58.2903-10.9939 56.8964-10.0835L55.8714-9.38118C53.3645-7.63685 51.6482-6.92034 48.8298-6.92034C46.2446-6.92034 44.6625-7.50767 42.5097-8.97154L41.6554-9.57321C39.8081-10.8956 38.846-11.3169 37.1056-11.3169C35.6145-11.3169 34.8013-11.1051 33.8515-10.5306L33.1913-10.0948L32.5906-9.67794C32.1787-9.39518 31.8273-9.16908 31.4449-8.94731C30.5234-8.41285 29.5127-7.96628 28.3187-7.59451C27.4628-7.81681 26.9491-8.69089 27.1714-9.54682C27.2921-10.0116 27.6132-10.3924 28.0389-10.5929L28.3172-10.6938C28.9275-10.9284 29.4698-11.1901 29.9744-11.4828L30.5945-11.8674L31.856-12.7329C33.4434-13.7963 34.8244-14.248 37.1056-14.248C39.3814-14.248 40.8095-13.7057 42.8028-12.3474L43.614-11.7756C45.6382-10.3257 46.7419-9.85139 48.8298-9.85139C50.7432-9.85139 51.9105-10.2661 53.6553-11.4188L54.6784-12.1223C56.8457-13.6258 58.3041-14.248 60.554-14.248ZM48.8298-38.6517L73.7438-32.8524L66.4184-15.4602C64.3389-16.657 62.7632-17.179 60.554-17.179C58.5291-17.179 57.1453-16.675 55.3088-15.4783L54.1974-14.7182C52.1365-13.2842 50.9346-12.7825 48.8298-12.7825C46.9317-12.7825 45.847-13.1745 44.1446-14.335L43.3615-14.8876C41.0622-16.5336 39.5883-17.179 37.1056-17.179C34.8244-17.179 33.4434-16.7274 31.856-15.664L31.3044-15.2844L23.9158-32.8524L48.8298-38.6517ZM53.6761-57.2129L59.5787-57.2066C60.2326-57.2066 60.8061-56.7702 60.9805-56.14L66.229-37.153L48.8298-41.2064L31.4262-37.153L36.6791-56.14C36.8535-56.7702 37.427-57.2066 38.0809-57.2066L53.6761-57.2129ZM47.6158-53.6672L39.3333-53.6634C39.1154-53.6634 38.9243-53.5179 38.8662-53.3079L36.9524-46.3905L47.6158-46.3943L47.6158-53.6672ZM50.04-53.6672L50.04-46.3943L60.7072-46.3905L58.7934-53.3079C58.7353-53.5179 58.5442-53.6634 58.3263-53.6634L50.04-53.6672ZM50.7692-63.5063C51.037-63.5063 51.2541-63.2893 51.2541-63.0215L51.247-58.7111L46.4033-58.7111L46.4055-63.0215C46.4055-63.2893 46.6226-63.5063 46.8904-63.5063L50.7692-63.5063Z"/>
  </g>
  <g id="Regular-S" transform="matrix(1 0 0 1 1403.58 696)">
   <path class="monochrome-0 multicolor-0:tintColor hierarchical-0:secondary SFSymbolsPreviewWireframe" d="M46.2402 4.15039C68.0176 4.15039 85.6934-13.4766 85.6934-35.2539C85.6934-57.0312 68.0176-74.6582 46.2402-74.6582C24.5117-74.6582 6.83594-57.0312 6.83594-35.2539C6.83594-13.4766 24.5117 4.15039 46.2402 4.15039ZM46.2402-3.27148C28.5645-3.27148 14.3066-17.5781 14.3066-35.2539C14.3066-52.9297 28.5645-67.2363 46.2402-67.2363C63.916-67.2363 78.2227-52.9297 78.2227-35.2539C78.2227-17.5781 63.916-3.27148 46.2402-3.27148Z" data-clipstroke-keyframes="0 4 0 0.49914446 1.5008684 0 0.24828511 0.25085935 1.7491465 0 0.49580374 0.0033407123 1.9966576 0 0.75060123 0.7485432 1.2514638 0 1 0.49914446 1.5008684"/>
   <path class="monochrome-1 multicolor-1:tintColor hierarchical-1:primary SFSymbolsPreviewWireframe" d="M57.213-15.4768C59.3815-15.4768 60.8964-14.9382 62.9912-13.6953L63.9248-13.134C64.4732-12.8058 64.9628-12.5326 65.4281-12.3038L65.4875-12.2863C66.3022-12.0455 66.7674-11.1899 66.5266-10.3752C66.3979-9.93987 66.0853-9.5883 65.6788-9.40678L65.4244-9.31896C64.7113-9.59035 64.0096-9.93298 63.2371-10.3678L62.2788-10.9301L61.5945-11.3413C59.8845-12.3559 58.8052-12.7397 57.213-12.7397C55.9468-12.7397 55.099-12.438 53.7974-11.5879L52.8402-10.932C50.4991-9.30311 48.8964-8.63401 46.2645-8.63401C43.8503-8.63401 42.3729-9.18248 40.3625-10.5495L39.5648-11.1114C37.8397-12.3463 36.9413-12.7397 35.316-12.7397C33.9236-12.7397 33.1642-12.5419 32.2772-12.0054L31.6608-11.5984L31.0998-11.2092C30.7151-10.9451 30.387-10.734 30.0299-10.5269C29.1694-10.0278 28.2255-9.61075 27.1106-9.26357C26.3113-9.47116 25.8316-10.2874 26.0392-11.0867C26.1519-11.5207 26.4517-11.8763 26.8492-12.0636L27.1091-12.1578C27.679-12.3769 28.1854-12.6213 28.6567-12.8946L29.2358-13.2538L30.4138-14.062C31.8962-15.055 33.1858-15.4768 35.316-15.4768C37.4412-15.4768 38.7749-14.9704 40.6363-13.702L41.3938-13.168C43.284-11.8141 44.3148-11.3711 46.2645-11.3711C48.0513-11.3711 49.1414-11.7584 50.7707-12.8349L51.7261-13.4918C53.75-14.8958 55.1119-15.4768 57.213-15.4768ZM46.2645-38.2658L69.5301-32.8502L62.6894-16.6089C60.7474-17.7265 59.276-18.2139 57.213-18.2139C55.322-18.2139 54.0298-17.7433 52.3148-16.6257L51.2769-15.9159C49.3524-14.5768 48.23-14.1083 46.2645-14.1083C44.492-14.1083 43.479-14.4743 41.8893-15.5581L41.158-16.0741C39.0108-17.6112 37.6344-18.2139 35.316-18.2139C33.1858-18.2139 31.8962-17.7922 30.4138-16.7992L29.8987-16.4446L22.9989-32.8502L46.2645-38.2658ZM50.7902-55.599L56.3022-55.5931C56.9128-55.5931 57.4484-55.1856 57.6113-54.597L62.5125-36.8664L46.2645-40.6515L30.0124-36.8664L34.9177-54.597C35.0806-55.1856 35.6162-55.5931 36.2268-55.5931L50.7902-55.599ZM45.1308-52.2878L37.3963-52.2844C37.1928-52.2843 37.0144-52.1485 36.9601-51.9523L35.1729-45.4926L45.1308-45.4962L45.1308-52.2878ZM47.3947-52.2878L47.3947-45.4962L57.3561-45.4926L55.5689-51.9523C55.5146-52.1485 55.3362-52.2843 55.1327-52.2844L47.3947-52.2878ZM48.0756-61.476C48.3257-61.476 48.5284-61.2733 48.5284-61.0232L48.5218-56.9981L43.9986-56.9981L44.0006-61.0232C44.0006-61.2733 44.2033-61.476 44.4534-61.476L48.0756-61.476Z"/>
  </g>
  <g id="Ultralight-S" transform="matrix(1 0 0 1 515.649 696)">
   <path class="monochrome-0 multicolor-0:tintColor hierarchical-0:secondary SFSymbolsPreviewWireframe" d="M44.0606 1.97072C64.6118 1.97072 81.2886-14.7026 81.2886-35.2539C81.2886-55.8052 64.6118-72.4785 44.0606-72.4785C23.5127-72.4785 6.83594-55.8052 6.83594-35.2539C6.83594-14.7026 23.5127 1.97072 44.0606 1.97072ZM44.0606-0.274438C24.7046-0.274438 9.0391-15.898 9.0391-35.2539C9.0391-54.6099 24.7046-70.2334 44.0606-70.2334C63.4165-70.2334 79.04-54.6099 79.04-35.2539C79.04-15.898 63.4165-0.274438 44.0606-0.274438Z" data-clipstroke-keyframes="0 4 0 0.49911258 1.5011578 0 0.24859153 0.25052106 1.7495481 0 0.49577427 0.0033383023 1.9966562 0 0.75064886 0.74846375 1.2516088 0 1 0.49911258 1.5011578"/>
   <path class="monochrome-1 multicolor-1:tintColor hierarchical-1:primary SFSymbolsPreviewWireframe" d="M53.7648-17.7847C55.6866-17.7847 57.0292-17.3074 58.8857-16.2059L59.7131-15.7084C60.1991-15.4176 60.633-15.1754 61.0454-14.9727L61.098-14.9571C61.82-14.7437 62.2323-13.9854 62.0189-13.2635C61.9049-12.8776 61.6278-12.566 61.2676-12.4052L61.0421-12.3273C60.4102-12.5679 59.7882-12.8715 59.1036-13.2568L58.2544-13.7552L57.6479-14.1197C56.1324-15.0189 55.1758-15.359 53.7648-15.359C52.6427-15.359 51.8913-15.0916 50.7377-14.3381L49.8894-13.7569C47.8147-12.3133 46.3943-11.7203 44.0617-11.7203C41.9222-11.7203 40.6129-12.2064 38.8312-13.4179L38.1241-13.9158C36.5953-15.0103 35.7991-15.359 34.3587-15.359C33.1246-15.359 32.4516-15.1837 31.6656-14.7082L31.1192-14.3475L30.6221-14.0025C30.2811-13.7685 29.9904-13.5814 29.6739-13.3978C28.9112-12.9555 28.0748-12.5859 27.0866-12.2783C26.3783-12.4622 25.9531-13.1856 26.1371-13.894C26.237-14.2786 26.5027-14.5938 26.855-14.7597L27.0853-14.8432C27.5904-15.0374 28.0393-15.254 28.4569-15.4962L28.9701-15.8145L30.0141-16.5309C31.3279-17.4109 32.4708-17.7847 34.3587-17.7847C36.2422-17.7847 37.4241-17.3359 39.0738-16.2118L39.7451-15.7386C41.4203-14.5386 42.3338-14.1461 44.0617-14.1461C45.6453-14.1461 46.6113-14.4893 48.0553-15.4433L48.9021-16.0255C50.6957-17.2698 51.9027-17.7847 53.7648-17.7847ZM44.0617-37.9814L64.6808-33.1818L58.6182-18.788C56.8972-19.7785 55.5931-20.2105 53.7648-20.2105C52.0889-20.2105 50.9437-19.7934 49.4238-18.8029L48.504-18.1739C46.7984-16.9871 45.8037-16.5718 44.0617-16.5718C42.4909-16.5718 41.5931-16.8963 40.1843-17.8568L39.5362-18.3141C37.6332-19.6763 36.4134-20.2105 34.3587-20.2105C32.4708-20.2105 31.3279-19.8367 30.0141-18.9566L29.5576-18.6424L23.4427-33.1818L44.0617-37.9814ZM48.0726-53.3428L52.9576-53.3376C53.4988-53.3376 53.9734-52.9764 54.1178-52.4548L58.4615-36.7411L44.0617-40.0957L29.6584-36.7411L34.0057-52.4548C34.15-52.9764 34.6247-53.3376 35.1659-53.3376L48.0726-53.3428ZM43.057-50.4083L36.2023-50.4053C36.022-50.4052 35.8639-50.2848 35.8158-50.111L34.2319-44.3861L43.057-44.3893L43.057-50.4083ZM45.0633-50.4083L45.0633-44.3893L53.8916-44.3861L52.3077-50.111C52.2596-50.2848 52.1015-50.4052 51.9211-50.4053L45.0633-50.4083ZM45.6668-58.5513C45.8884-58.5513 46.0681-58.3717 46.0681-58.15L46.0622-54.5828L42.0536-54.5828L42.0554-58.15C42.0554-58.3717 42.2351-58.5513 42.4567-58.5513L45.6668-58.5513Z"/>
  </g>
 </g>
</svg>
