<?xml version="1.0" encoding="UTF-8" standalone="no"?>
<!-- Uploaded to: SVG Repo, www.svgrepo.com, Generator: SVG Repo Mixer Tools -->

<svg
   fill="#000000"
   version="1.1"
   id="Capa_1"
   width="24"
   height="24"
   viewBox="0 0 24 24"
   xml:space="preserve"
   sodipodi:docname="ic_user_verification.svg"
   inkscape:version="1.2.2 (b0a8486541, 2022-12-01)"
   xmlns:inkscape="http://www.inkscape.org/namespaces/inkscape"
   xmlns:sodipodi="http://sodipodi.sourceforge.net/DTD/sodipodi-0.dtd"
   xmlns="http://www.w3.org/2000/svg"
   xmlns:svg="http://www.w3.org/2000/svg"><defs
   id="defs9" /><sodipodi:namedview
   id="namedview7"
   pagecolor="#ffffff"
   bordercolor="#000000"
   borderopacity="0.25"
   inkscape:showpageshadow="2"
   inkscape:pageopacity="0.0"
   inkscape:pagecheckerboard="0"
   inkscape:deskcolor="#d1d1d1"
   showgrid="false"
   inkscape:zoom="11.313709"
   inkscape:cx="14.672466"
   inkscape:cy="29.742679"
   inkscape:window-width="1865"
   inkscape:window-height="1005"
   inkscape:window-x="849"
   inkscape:window-y="1469"
   inkscape:window-maximized="1"
   inkscape:current-layer="g4" />
<g
   id="g4"
   transform="matrix(0.04926836,0,0,0.04926836,2,2)">
	<path
   id="rect6102"
   style="fill:#ffffff;fill-opacity:1;stroke-width:19.2718"
   d="M 182.67302 40.594004 C 161.36123 40.594004 143.35545 47.959647 128.64018 62.674922 C 113.92489 77.390207 106.55926 95.395978 106.55926 116.70776 C 106.55926 138.01955 113.92489 156.02533 128.64018 170.7406 C 143.35545 185.4559 161.36123 192.82152 182.67302 192.82152 C 203.98481 192.82152 221.99056 185.4559 236.70586 170.7406 C 251.42113 156.02533 258.78678 138.01955 258.78678 116.70776 C 258.78678 95.395978 251.42113 77.390207 236.70586 62.674922 C 221.99056 47.959647 203.98481 40.594004 182.67302 40.594004 z M 182.67302 233.41552 C 173.87734 233.41552 165.35216 233.83872 157.06391 234.68409 C 148.77566 235.52943 140.21083 236.79801 131.41516 238.48977 C 131.32956 238.57537 122.77898 240.40892 119.9981 241.0269 C 99.19372 246.10112 77.450632 253.71256 54.786048 263.86103 C 44.637578 268.59731 36.357481 275.53976 29.930149 284.67338 C 23.50282 293.807 20.297002 304.80093 20.297002 317.65601 L 20.297002 365.34604 L 81.188008 365.34604 L 237.10228 365.34604 C 231.97732 353.03923 229.09448 339.55171 229.09448 325.38631 C 229.09448 294.33677 242.97366 266.78778 264.53495 247.72649 C 258.25368 245.79499 251.46723 242.51941 245.34794 241.0269 C 245.18295 241.0669 233.93088 238.48977 233.93088 238.48977 C 229.37611 237.61371 225.06904 237.15674 220.65061 236.50764 C 217.59924 236.0587 214.54817 235.50028 211.49317 235.1598 C 210.44767 235.0407 209.31971 234.78992 208.28213 234.68409 C 199.99385 233.83872 191.4687 233.41552 182.67302 233.41552 z M 333.15626 252.60253 C 292.94556 252.60253 260.33284 285.17466 260.33284 325.38631 C 260.33284 365.59794 292.95126 398.20974 333.15626 398.20974 C 373.36125 398.20974 405.94004 365.59129 405.94004 325.38631 C 405.93909 285.17466 373.36694 252.60253 333.15626 252.60253 z M 362.25391 290.54048 C 364.45101 290.54048 366.65335 291.37209 368.31923 293.03797 L 374.3449 299.10328 C 377.68235 302.43504 377.6757 307.86254 374.3449 311.19427 L 327.68558 357.89323 C 324.35383 361.22498 318.8867 361.22498 315.55495 357.89323 L 292.08654 334.38518 C 288.7548 331.05344 288.7548 325.62594 292.08654 322.29419 L 298.15186 316.22888 C 301.48361 312.89712 306.9111 312.89712 310.24285 316.22888 L 321.62027 327.56665 L 356.1886 293.03797 C 357.85446 291.37209 360.05682 290.54048 362.25391 290.54048 z " />
</g>
</svg>
