<?xml version="1.0" encoding="UTF-8"?>
<!--Generator: Apple Native CoreSVG 341-->
<!DOCTYPE svg
PUBLIC "-//W3C//DTD SVG 1.1//EN"
       "http://www.w3.org/Graphics/SVG/1.1/DTD/svg11.dtd">
<svg version="1.1" xmlns="http://www.w3.org/2000/svg" xmlns:xlink="http://www.w3.org/1999/xlink" viewBox="0 0 3300 2200">
 <!--glyph: "", point size: 100.0, font version: "21.0d6e2", template writer version: "138.0.0"-->
 <style>.defaults {-sfsymbols-variable-value-mode:color;-sfsymbols-draw-reverses-motion-groups:true}

.monochrome-0 {-sfsymbols-motion-group:1;-sfsymbols-layer-tags:-745dd7955d6b1309 55194837de271852}
.monochrome-1 {opacity:0.0;-sfsymbols-clear-behind:true;-sfsymbols-motion-group:0;-sfsymbols-layer-tags:-745dd7955d6b1309 _slash}
.monochrome-2 {-sfsymbols-motion-group:0;-sfsymbols-layer-tags:-745dd7955d6b1309 _slash}

.multicolor-0:tintColor {-sfsymbols-motion-group:1;-sfsymbols-layer-tags:-745dd7955d6b1309 55194837de271852}
.multicolor-1:tintColor {opacity:0.0;-sfsymbols-clear-behind:true;-sfsymbols-motion-group:0;-sfsymbols-layer-tags:-745dd7955d6b1309 _slash}
.multicolor-2:tintColor {-sfsymbols-motion-group:0;-sfsymbols-layer-tags:-745dd7955d6b1309 _slash}

.hierarchical-0:secondary {-sfsymbols-motion-group:1;-sfsymbols-layer-tags:-745dd7955d6b1309 55194837de271852}
.hierarchical-1:primary {opacity:0.0;-sfsymbols-clear-behind:true;-sfsymbols-motion-group:0;-sfsymbols-layer-tags:-745dd7955d6b1309 _slash}
.hierarchical-2:primary {-sfsymbols-motion-group:0;-sfsymbols-layer-tags:-745dd7955d6b1309 _slash}

.SFSymbolsPreviewWireframe {fill:none;opacity:1.0;stroke:black;stroke-width:0.5}
</style>
 <g id="Notes">
  <rect height="2200" id="artboard" style="fill:white;opacity:1" width="3300" x="0" y="0"/>
  <line style="fill:none;stroke:black;opacity:1;stroke-width:0.5;" x1="263" x2="3036" y1="292" y2="292"/>
  <text style="stroke:none;fill:black;font-family:sans-serif;font-size:13;font-weight:bold;" transform="matrix(1 0 0 1 263 322)">Weight/Scale Variations</text>
  <text style="stroke:none;fill:black;font-family:sans-serif;font-size:13;text-anchor:middle;" transform="matrix(1 0 0 1 559.711 322)">Ultralight</text>
  <text style="stroke:none;fill:black;font-family:sans-serif;font-size:13;text-anchor:middle;" transform="matrix(1 0 0 1 856.422 322)">Thin</text>
  <text style="stroke:none;fill:black;font-family:sans-serif;font-size:13;text-anchor:middle;" transform="matrix(1 0 0 1 1153.13 322)">Light</text>
  <text style="stroke:none;fill:black;font-family:sans-serif;font-size:13;text-anchor:middle;" transform="matrix(1 0 0 1 1449.84 322)">Regular</text>
  <text style="stroke:none;fill:black;font-family:sans-serif;font-size:13;text-anchor:middle;" transform="matrix(1 0 0 1 1746.56 322)">Medium</text>
  <text style="stroke:none;fill:black;font-family:sans-serif;font-size:13;text-anchor:middle;" transform="matrix(1 0 0 1 2043.27 322)">Semibold</text>
  <text style="stroke:none;fill:black;font-family:sans-serif;font-size:13;text-anchor:middle;" transform="matrix(1 0 0 1 2339.98 322)">Bold</text>
  <text style="stroke:none;fill:black;font-family:sans-serif;font-size:13;text-anchor:middle;" transform="matrix(1 0 0 1 2636.69 322)">Heavy</text>
  <text style="stroke:none;fill:black;font-family:sans-serif;font-size:13;text-anchor:middle;" transform="matrix(1 0 0 1 2933.4 322)">Black</text>
  <line style="fill:none;stroke:black;opacity:1;stroke-width:0.5;" x1="263" x2="3036" y1="1903" y2="1903"/>
  <g transform="matrix(0.2 0 0 0.2 263 1933)">
   <path d="m46.2402 4.15039c21.7773 0 39.4531-17.627 39.4531-39.4043s-17.6758-39.4043-39.4531-39.4043c-21.7285 0-39.4043 17.627-39.4043 39.4043s17.6758 39.4043 39.4043 39.4043Zm0-7.42188c-17.6758 0-31.9336-14.3066-31.9336-31.9824s14.2578-31.9824 31.9336-31.9824 31.9824 14.3066 31.9824 31.9824-14.3066 31.9824-31.9824 31.9824Zm3.61328-17.7734v-28.4668c0-2.24609-1.46484-3.75977-3.71094-3.75977-2.14844 0-3.61328 1.51367-3.61328 3.75977v28.4668c0 2.19727 1.46484 3.71094 3.61328 3.71094 2.24609 0 3.71094-1.51367 3.71094-3.71094Zm-17.8223-10.5957h28.418c2.19727 0 3.71094-1.46484 3.71094-3.61328 0-2.19727-1.51367-3.71094-3.71094-3.71094h-28.418c-2.24609 0-3.75977 1.51367-3.75977 3.71094 0 2.14844 1.51367 3.61328 3.75977 3.61328Z"/>
  </g>
  <g transform="matrix(0.2 0 0 0.2 281.506 1933)">
   <path d="m58.5449 14.5508c27.4902 0 49.8047-22.3145 49.8047-49.8047s-22.3145-49.8047-49.8047-49.8047-49.8047 22.3145-49.8047 49.8047 22.3145 49.8047 49.8047 49.8047Zm0-8.30078c-22.9492 0-41.5039-18.5547-41.5039-41.5039s18.5547-41.5039 41.5039-41.5039 41.5039 18.5547 41.5039 41.5039-18.5547 41.5039-41.5039 41.5039Zm4.05273-23.0957v-36.9141c0-2.49023-1.70898-4.19922-4.15039-4.19922-2.39258 0-4.05273 1.70898-4.05273 4.19922v36.9141c0 2.44141 1.66016 4.15039 4.05273 4.15039 2.44141 0 4.15039-1.66016 4.15039-4.15039Zm-22.5586-14.4043h36.9629c2.44141 0 4.15039-1.61133 4.15039-4.00391 0-2.44141-1.70898-4.15039-4.15039-4.15039h-36.9629c-2.49023 0-4.15039 1.70898-4.15039 4.15039 0 2.39258 1.66016 4.00391 4.15039 4.00391Z"/>
  </g>
  <g transform="matrix(0.2 0 0 0.2 304.924 1933)">
   <path d="m74.8535 28.3203c35.1074 0 63.623-28.4668 63.623-63.5742s-28.5156-63.623-63.623-63.623-63.5742 28.5156-63.5742 63.623 28.4668 63.5742 63.5742 63.5742Zm0-9.08203c-30.127 0-54.4922-24.3652-54.4922-54.4922s24.3652-54.4922 54.4922-54.4922 54.4922 24.3652 54.4922 54.4922-24.3652 54.4922-54.4922 54.4922Zm4.44336-30.3223v-48.4863c0-2.73438-1.85547-4.63867-4.54102-4.63867-2.58789 0-4.44336 1.9043-4.44336 4.63867v48.4863c0 2.68555 1.85547 4.58984 4.44336 4.58984 2.68555 0 4.54102-1.85547 4.54102-4.58984Zm-28.7109-19.7754h48.4863c2.68555 0 4.58984-1.80664 4.58984-4.39453 0-2.73438-1.85547-4.58984-4.58984-4.58984h-48.4863c-2.73438 0-4.58984 1.85547-4.58984 4.58984 0 2.58789 1.85547 4.39453 4.58984 4.39453Z"/>
  </g>
  <text style="stroke:none;fill:black;font-family:sans-serif;font-size:13;font-weight:bold;" transform="matrix(1 0 0 1 263 1953)">Design Variations</text>
  <text style="stroke:none;fill:black;font-family:sans-serif;font-size:13;" transform="matrix(1 0 0 1 263 1971)">Symbols are supported in up to nine weights and three scales.</text>
  <text style="stroke:none;fill:black;font-family:sans-serif;font-size:13;" transform="matrix(1 0 0 1 263 1989)">For optimal layout with text and other symbols, vertically align</text>
  <text style="stroke:none;fill:black;font-family:sans-serif;font-size:13;" transform="matrix(1 0 0 1 263 2007)">symbols with the adjacent text.</text>
  <line style="fill:none;stroke:#00AEEF;stroke-width:0.5;opacity:1.0;" x1="776" x2="776" y1="1919" y2="1933"/>
  <g transform="matrix(0.2 0 0 0.2 776 1933)">
   <path d="m16.5527 0.78125c2.58789 0 3.85742-0.976562 4.78516-3.71094l20.5566-57.5195h0.244141l20.6055 57.5195c0.927734 2.73438 2.19727 3.71094 4.73633 3.71094 2.58789 0 4.24805-1.5625 4.24805-4.00391 0-0.830078-0.146484-1.61133-0.537109-2.63672l-22.9004-60.9863c-1.12305-2.97852-3.125-4.49219-6.25-4.49219-3.02734 0-5.07812 1.46484-6.15234 4.44336l-22.9004 61.084c-0.390625 1.02539-0.537109 1.80664-0.537109 2.63672 0 2.44141 1.5625 3.95508 4.10156 3.95508Zm10.2051-20.9473h30.6641c2.00195 0 3.66211-1.66016 3.66211-3.66211 0-2.05078-1.66016-3.66211-3.66211-3.66211h-30.6641c-2.00195 0-3.66211 1.61133-3.66211 3.66211 0 2.00195 1.66016 3.66211 3.66211 3.66211Z"/>
  </g>
  <line style="fill:none;stroke:#00AEEF;stroke-width:0.5;opacity:1.0;" x1="792.836" x2="792.836" y1="1919" y2="1933"/>
  <text style="stroke:none;fill:black;font-family:sans-serif;font-size:13;font-weight:bold;" transform="matrix(1 0 0 1 776 1953)">Margins</text>
  <text style="stroke:none;fill:black;font-family:sans-serif;font-size:13;" transform="matrix(1 0 0 1 776 1971)">Leading and trailing margins on the left and right side of each symbol</text>
  <text style="stroke:none;fill:black;font-family:sans-serif;font-size:13;" transform="matrix(1 0 0 1 776 1989)">can be adjusted by modifying the x-location of the margin guidelines.</text>
  <text style="stroke:none;fill:black;font-family:sans-serif;font-size:13;" transform="matrix(1 0 0 1 776 2007)">Modifications are automatically applied proportionally to all</text>
  <text style="stroke:none;fill:black;font-family:sans-serif;font-size:13;" transform="matrix(1 0 0 1 776 2025)">scales and weights.</text>
  <g transform="matrix(0.2 0 0 0.2 1289 1933)">
   <path d="m14.209 13.1348 7.86133 7.86133c4.29688 4.39453 9.32617 4.10156 13.8672-1.02539l60.6934-68.2129-4.88281-4.88281-60.2539 67.6758c-1.80664 1.95312-3.4668 2.44141-5.81055 0.0976562l-5.17578-5.12695c-2.29492-2.29492-1.80664-3.95508 0.195312-5.81055l67.4805-62.1582-4.88281-4.83398-68.0664 62.5977c-4.98047 4.58984-5.32227 9.47266-1.02539 13.8184Zm44.873-97.4609c-2.05078 2.00195-2.24609 4.88281-1.07422 6.78711 1.12305 1.80664 3.4668 3.02734 6.5918 2.24609 5.85938-1.66016 12.5977-2.39258 18.8965 0.927734l-2.68555 7.12891c-1.61133 4.00391-0.732422 6.88477 1.70898 9.42383l10.2539 10.3027c2.34375 2.39258 4.54102 2.44141 7.08008 1.95312l4.44336-0.732422 2.58789 2.53906-0.195312 2.24609c-0.0976562 2.29492 0.537109 4.29688 2.7832 6.49414l3.36914 3.32031c2.29492 2.29492 5.51758 2.49023 7.8125 0.195312l12.9883-13.0371c2.29492-2.34375 2.14844-5.37109-0.195312-7.66602l-3.41797-3.41797c-2.19727-2.19727-4.05273-3.02734-6.34766-2.88086l-2.34375 0.244141-2.44141-2.44141 1.02539-4.6875c0.634766-2.73438-0.244141-4.98047-2.88086-7.61719l-11.2793-11.1816c-12.9395-12.8418-35.5957-11.0352-46.6797-0.146484Zm7.08008 2.05078c8.78906-6.39648 25.9766-5.66406 33.6914 1.95312l12.3047 12.207c1.02539 1.02539 1.2207 1.80664 0.927734 3.32031l-1.46484 6.64062 6.73828 6.68945 4.39453-0.244141c1.12305-0.0488281 1.51367 0.0488281 2.34375 0.878906l2.53906 2.49023-10.8398 10.8398-2.49023-2.49023c-0.830078-0.878906-0.976562-1.2207-0.927734-2.39258l0.292969-4.3457-6.68945-6.73828-6.83594 1.17188c-1.41602 0.292969-2.05078 0.195312-3.17383-0.878906l-8.93555-8.88672c-1.07422-1.02539-1.17188-1.70898-0.488281-3.36914l4.58984-11.4746c-6.10352-6.34766-17.041-7.51953-25.5859-4.58984-0.683594 0.244141-0.927734-0.390625-0.390625-0.78125Z"/>
  </g>
  <text style="stroke:none;fill:black;font-family:sans-serif;font-size:13;font-weight:bold;" transform="matrix(1 0 0 1 1289 1953)">Exporting</text>
  <text style="stroke:none;fill:black;font-family:sans-serif;font-size:13;" transform="matrix(1 0 0 1 1289 1971)">Symbols should be outlined when exporting to ensure the</text>
  <text style="stroke:none;fill:black;font-family:sans-serif;font-size:13;" transform="matrix(1 0 0 1 1289 1989)">design is preserved when submitting to Xcode.</text>
  <text id="template-version" style="stroke:none;fill:black;font-family:sans-serif;font-size:13;text-anchor:end;" transform="matrix(1 0 0 1 3036 1933)">Template v.7.0</text>
  <text style="stroke:none;fill:black;font-family:sans-serif;font-size:13;text-anchor:end;" transform="matrix(1 0 0 1 3036 1951)">Requires Xcode 17 or greater</text>
  <text id="descriptive-name" style="stroke:none;fill:black;font-family:sans-serif;font-size:13;text-anchor:end;" transform="matrix(1 0 0 1 3036 1969)">Generated from </text>
  <text style="stroke:none;fill:black;font-family:sans-serif;font-size:13;text-anchor:end;" transform="matrix(1 0 0 1 3036 1987)">Typeset at 100.0 points</text>
  <text style="stroke:none;fill:black;font-family:sans-serif;font-size:13;" transform="matrix(1 0 0 1 263 726)">Small</text>
  <text style="stroke:none;fill:black;font-family:sans-serif;font-size:13;" transform="matrix(1 0 0 1 263 1156)">Medium</text>
  <text style="stroke:none;fill:black;font-family:sans-serif;font-size:13;" transform="matrix(1 0 0 1 263 1586)">Large</text>
 </g>
 <g id="Guides">
  <g id="H-reference" style="fill:#27AAE1;stroke:none;" transform="matrix(1 0 0 1 339 696)">
   <path d="M0.993654 0L3.63775 0L29.3281-67.1323L30.0303-67.1323L30.0303-70.459L28.1226-70.459ZM11.6885-24.4799L46.9815-24.4799L46.2315-26.7285L12.4385-26.7285ZM55.1196 0L57.7637 0L30.6382-70.459L29.4326-70.459L29.4326-67.1323Z"/>
  </g>
  <line id="Baseline-S" style="fill:none;stroke:#27AAE1;opacity:1;stroke-width:0.5;" x1="263" x2="3036" y1="696" y2="696"/>
  <line id="Capline-S" style="fill:none;stroke:#27AAE1;opacity:1;stroke-width:0.5;" x1="263" x2="3036" y1="625.541" y2="625.541"/>
  <g id="H-reference" style="fill:#27AAE1;stroke:none;" transform="matrix(1 0 0 1 339 1126)">
   <path d="M0.993654 0L3.63775 0L29.3281-67.1323L30.0303-67.1323L30.0303-70.459L28.1226-70.459ZM11.6885-24.4799L46.9815-24.4799L46.2315-26.7285L12.4385-26.7285ZM55.1196 0L57.7637 0L30.6382-70.459L29.4326-70.459L29.4326-67.1323Z"/>
  </g>
  <line id="Baseline-M" style="fill:none;stroke:#27AAE1;opacity:1;stroke-width:0.5;" x1="263" x2="3036" y1="1126" y2="1126"/>
  <line id="Capline-M" style="fill:none;stroke:#27AAE1;opacity:1;stroke-width:0.5;" x1="263" x2="3036" y1="1055.54" y2="1055.54"/>
  <g id="H-reference" style="fill:#27AAE1;stroke:none;" transform="matrix(1 0 0 1 339 1556)">
   <path d="M0.993654 0L3.63775 0L29.3281-67.1323L30.0303-67.1323L30.0303-70.459L28.1226-70.459ZM11.6885-24.4799L46.9815-24.4799L46.2315-26.7285L12.4385-26.7285ZM55.1196 0L57.7637 0L30.6382-70.459L29.4326-70.459L29.4326-67.1323Z"/>
  </g>
  <line id="Baseline-L" style="fill:none;stroke:#27AAE1;opacity:1;stroke-width:0.5;" x1="263" x2="3036" y1="1556" y2="1556"/>
  <line id="Capline-L" style="fill:none;stroke:#27AAE1;opacity:1;stroke-width:0.5;" x1="263" x2="3036" y1="1485.54" y2="1485.54"/>
  <line id="right-margin-Black-S" style="fill:none;stroke:#00AEEF;stroke-width:0.5;opacity:1.0;" x1="2987.45" x2="2987.45" y1="600.785" y2="720.121"/>
  <line id="left-margin-Black-S" style="fill:none;stroke:#00AEEF;stroke-width:0.5;opacity:1.0;" x1="2879.35" x2="2879.35" y1="600.785" y2="720.121"/>
  <line id="right-margin-Regular-S" style="fill:none;stroke:#00AEEF;stroke-width:0.5;opacity:1.0;" x1="1500.8" x2="1500.8" y1="600.785" y2="720.121"/>
  <line id="left-margin-Regular-S" style="fill:none;stroke:#00AEEF;stroke-width:0.5;opacity:1.0;" x1="1398.89" x2="1398.89" y1="600.785" y2="720.121"/>
  <line id="right-margin-Ultralight-S" style="fill:none;stroke:#00AEEF;stroke-width:0.5;opacity:1.0;" x1="608.098" x2="608.098" y1="600.785" y2="720.121"/>
  <line id="left-margin-Ultralight-S" style="fill:none;stroke:#00AEEF;stroke-width:0.5;opacity:1.0;" x1="511.325" x2="511.325" y1="600.785" y2="720.121"/>
 </g>
 <g id="Symbols">
  <g id="Black-S" transform="matrix(1 0 0 1 2879.35 696)">
   <path class="monochrome-0 multicolor-0:tintColor hierarchical-0:secondary SFSymbolsPreviewWireframe" d="M76.844 5.57477C81.358 5.57477 84.5116 6.69604 88.8723 9.28333L90.8157 10.4517C91.9574 11.1349 92.9765 11.7038 93.9452 12.1799L94.0688 12.2164C95.7646 12.7177 96.733 14.4988 96.2318 16.1946C95.9639 17.1009 95.3132 17.8328 94.467 18.2106L93.9374 18.3934C92.453 17.8285 90.9922 17.1153 89.3842 16.2102L87.3894 15.0396L85.9649 14.1835C82.4051 12.0714 80.1583 11.2726 76.844 11.2726C74.2082 11.2726 72.4433 11.9006 69.7337 13.6703L67.7412 15.0356C62.8679 18.4264 59.5315 19.8193 54.0527 19.8193C49.0272 19.8193 45.9517 18.6776 41.7667 15.8319L40.106 14.6623C36.5151 12.0916 34.6447 11.2726 31.2615 11.2726C28.3628 11.2726 26.782 11.6843 24.9357 12.8012L23.6524 13.6483L22.4847 14.4587C21.6838 15.0083 21.0008 15.4479 20.2575 15.879C18.4661 16.9179 16.5014 17.786 14.1804 18.5088C12.5165 18.0766 11.5179 16.3774 11.9501 14.7136C12.1847 13.8101 12.8088 13.0698 13.6363 12.6801L14.1773 12.484C15.3637 12.0278 16.4179 11.5191 17.3989 10.9502L18.6044 10.2025L21.0566 8.51991C24.1425 6.45276 26.827 5.57477 31.2615 5.57477C35.6855 5.57477 38.4617 6.629 42.3366 9.2694L43.9134 10.3809C47.8483 13.1994 49.994 14.1215 54.0527 14.1215C57.7723 14.1215 60.0414 13.3153 63.4332 11.0745L65.4221 9.7069C69.6351 6.78432 72.4702 5.57477 76.844 5.57477ZM54.0527-41.8646L102.484-30.5911L88.244 3.21819C84.2015 0.891763 81.1384-0.123042 76.844-0.123042C72.9076-0.123042 70.2175 0.85669 66.6476 3.1832L64.4869 4.6607C60.4807 7.44824 58.1442 8.42368 54.0527 8.42368C50.363 8.42368 48.2543 7.66161 44.945 5.40552L43.4227 4.33142C38.9528 1.13158 36.0877-0.123042 31.2615-0.123042C26.827-0.123042 24.1425 0.754951 21.0566 2.8221L19.9844 3.56011L5.62131-30.5911L54.0527-41.8646ZM63.4737-77.9467L74.9479-77.9343C76.2191-77.9343 77.334-77.086 77.6731-75.8609L87.8758-38.9514L54.0527-46.8309L20.2211-38.9514L30.4324-75.8609C30.7714-77.086 31.8863-77.9343 33.1575-77.9343L63.4737-77.9467ZM51.6927-71.0539L35.592-71.0467C35.1684-71.0465 34.797-70.7637 34.684-70.3555L30.9637-56.9084L51.6927-56.9159L51.6927-71.0539ZM56.4053-71.0539L56.4053-56.9159L77.1418-56.9084L73.4214-70.3555C73.3085-70.7637 72.937-71.0465 72.5134-71.0467L56.4053-71.0539ZM57.8228-90.1807C58.3434-90.1807 58.7654-89.7587 58.7654-89.2382L58.7516-80.8591L49.3358-80.8591L49.3401-89.2382C49.3401-89.7587 49.7621-90.1807 50.2826-90.1807L57.8228-90.1807Z"/>
   <path class="monochrome-1 multicolor-1:tintColor hierarchical-1:primary SFSymbolsPreviewWireframe" d="M98.0218-4.48836C101.673-0.837264 101.673 5.09118 98.0218 8.74227C94.3707 12.3934 88.4422 12.3934 84.7911 8.74227L10.0782-65.9706C6.42714-69.6217 6.42714-75.5502 10.0782-79.2013C13.7293-82.8524 19.6578-82.8524 23.3089-79.2013Z" data-clipstroke-keyframes="0 0 0 0.49990463 0.6089134 0 1 0 0.10891342"/>
   <path class="monochrome-2 multicolor-2:tintColor hierarchical-2:primary SFSymbolsPreviewWireframe" d="M93.8717-0.338247C95.2322 1.02234 95.2322 3.23158 93.8717 4.59217C92.5111 5.95275 90.3018 5.95275 88.9412 4.59217L14.2283-70.1207C12.8678-71.4813 12.8678-73.6906 14.2283-75.0511C15.5889-76.4117 17.7982-76.4117 19.1588-75.0511Z" data-clipstroke-keyframes="0 0 0 0.49988937 0.54707384 0 1 0 0.04707384"/>
  </g>
  <g id="Regular-S" transform="matrix(1 0 0 1 1398.89 696)">
   <path class="monochrome-0 multicolor-0:tintColor hierarchical-0:secondary SFSymbolsPreviewWireframe" d="M71.6715 2.38248C75.7751 2.38248 78.6421 3.40182 82.6063 5.75389L84.373 6.81606C85.4109 7.43712 86.3374 7.95429 87.218 8.38713L87.3304 8.42034C88.8721 8.87604 89.7524 10.4952 89.2967 12.0369C89.0532 12.8608 88.4617 13.5261 87.6924 13.8696L87.2109 14.0358C85.8615 13.5222 84.5335 12.8738 83.0717 12.051L81.2582 10.9869L79.9632 10.2086C76.727 8.28854 74.6845 7.56231 71.6715 7.56231C69.2753 7.56231 67.6709 8.13322 65.2076 9.74209L63.3962 10.9832C58.9659 14.0658 55.9329 15.332 50.9521 15.332C46.3835 15.332 43.5876 14.2941 39.7831 11.7071L38.2733 10.6438C35.0088 8.30685 33.3085 7.56231 30.2328 7.56231C27.5977 7.56231 26.1606 7.93656 24.4821 8.95199L23.3155 9.72208L22.2539 10.4587C21.5259 10.9585 20.905 11.358 20.2292 11.7499C18.6007 12.6945 16.8145 13.4836 14.7046 14.1406C13.1919 13.7478 12.2842 12.2031 12.677 10.6905C12.8903 9.86917 13.4576 9.19615 14.2099 8.84183L14.7017 8.66359C15.7803 8.24891 16.7387 7.78639 17.6305 7.2692L18.7264 6.58948L20.9557 5.05988C23.761 3.18065 26.2015 2.38248 30.2328 2.38248C34.2547 2.38248 36.7785 3.34087 40.3011 5.74123L41.7346 6.75173C45.3118 9.31395 47.2624 10.1522 50.9521 10.1522C54.3336 10.1522 56.3964 9.41936 59.4798 7.38219L61.2879 6.13896C65.1179 3.48206 67.6953 2.38248 71.6715 2.38248ZM50.9521-40.7442L94.9807-30.4956L82.0351 0.240133C78.3601-1.8748 75.5755-2.79735 71.6715-2.79735C68.0929-2.79735 65.6474-1.90669 62.402 0.208321L60.4378 1.55151C56.7958 4.08563 54.6717 4.97239 50.9521 4.97239C47.5978 4.97239 45.6808 4.27961 42.6724 2.22861L41.2885 1.25216C37.225-1.65678 34.6203-2.79735 30.2328-2.79735C26.2015-2.79735 23.761-1.99918 20.9557-0.119948L19.9809 0.550965L6.92359-30.4956L50.9521-40.7442ZM59.5167-73.5461L69.9478-73.5349C71.1034-73.5349 72.117-72.7637 72.4252-71.6499L81.7004-38.0958L50.9521-45.259L20.1961-38.0958L29.4791-71.6499C29.7873-72.7637 30.8009-73.5349 31.9565-73.5349L59.5167-73.5461ZM48.8067-67.2799L34.1697-67.2734C33.7846-67.2732 33.4469-67.0162 33.3442-66.645L29.9621-54.4204L48.8067-54.4273L48.8067-67.2799ZM53.0909-67.2799L53.0909-54.4273L71.9422-54.4204L68.56-66.645C68.4574-67.0162 68.1197-67.2732 67.7346-67.2734L53.0909-67.2799ZM54.3795-84.668C54.8527-84.668 55.2364-84.2843 55.2364-83.8111L55.2239-76.1938L46.664-76.1938L46.6679-83.8111C46.6679-84.2843 47.0515-84.668 47.5248-84.668L54.3795-84.668Z"/>
   <path class="monochrome-1 multicolor-1:tintColor hierarchical-1:primary SFSymbolsPreviewWireframe" d="M92.0083-6.06714C95.2898-2.78573 95.2898 2.54245 92.0083 5.82386C88.7269 9.10527 83.3988 9.10527 80.1174 5.82386L9.90165-64.3918C6.62024-67.6733 6.62024-73.0014 9.90165-76.2828C13.1831-79.5643 18.5112-79.5643 21.7926-76.2828Z" data-clipstroke-keyframes="0 0 0 0.50010824 0.6049547 0 1 0 0.10495472"/>
   <path class="monochrome-2 multicolor-2:tintColor hierarchical-2:primary SFSymbolsPreviewWireframe" d="M88.5419-2.60066C89.9101-1.23245 89.9101 0.98917 88.5419 2.35738C87.1737 3.72558 84.952 3.72558 83.5838 2.35738L13.3681-67.8583C11.9999-69.2265 11.9999-71.4482 13.3681-72.8164C14.7363-74.1846 16.958-74.1846 18.3262-72.8164Z" data-clipstroke-keyframes="0 0 0 0.50020504 0.5497174 0 1 0 0.049717426"/>
  </g>
  <g id="Ultralight-S" transform="matrix(1 0 0 1 511.325 696)">
   <path class="monochrome-0 multicolor-0:tintColor hierarchical-0:secondary SFSymbolsPreviewWireframe" d="M67.0339-1.91294C70.7272-1.91294 73.3074-0.995529 76.8752 1.12134L78.4653 2.07729C79.3994 2.63625 80.2332 3.1017 81.0258 3.49125L81.1269 3.52114C82.5144 3.93127 83.3067 5.38854 82.8966 6.77605C82.6775 7.51754 82.1451 8.11633 81.4528 8.4255L81.0194 8.57507C79.8049 8.11284 78.6097 7.52928 77.294 6.78876L75.6619 5.83102L74.4964 5.1306C71.5839 3.40252 69.7456 2.74891 67.0339 2.74891C64.8774 2.74891 63.4334 3.26274 61.2164 4.71072L59.5862 5.82771C55.5989 8.60207 52.8691 9.74168 48.3865 9.74168C44.2747 9.74168 41.7584 8.80753 38.3343 6.47925L36.9756 5.52228C34.0375 3.419 32.5072 2.74891 29.7391 2.74891C27.3675 2.74891 26.0741 3.08574 24.5635 3.99963L23.5135 4.69271L22.5581 5.35571C21.9029 5.80545 21.344 6.16505 20.7359 6.51778C19.2702 7.36784 17.6626 8.0781 15.7637 8.66941C14.4023 8.31585 13.5853 6.92562 13.9389 5.56425C14.1308 4.82509 14.6414 4.21937 15.3185 3.90048L15.7611 3.74006C16.7318 3.36685 17.5944 2.95059 18.397 2.48511L19.3833 1.87337L21.3897 0.496728C23.9145-1.19458 26.1109-1.91294 29.7391-1.91294C33.3588-1.91294 35.6302-1.05038 38.8006 1.10995L40.0907 2.01939C43.3102 4.32539 45.0657 5.07983 48.3865 5.07983C51.4298 5.07983 53.2863 4.42026 56.0614 2.58681L57.6887 1.4679C61.1357-0.923307 63.4553-1.91294 67.0339-1.91294ZM48.3865-40.727L88.0122-31.5032L76.3612-3.84104C73.0537-5.74449 70.5475-6.57478 67.0339-6.57478C63.8132-6.57478 61.6122-5.77318 58.6914-3.86968L56.9236-2.66081C53.6457-0.380094 51.7341 0.417988 48.3865 0.417988C45.3676 0.417988 43.6423-0.205519 40.9347-2.05141L39.6892-2.93022C36.032-5.54827 33.6878-6.57478 29.7391-6.57478C26.1109-6.57478 23.9145-5.85642 21.3897-4.16512L20.5124-3.5613L8.76079-31.5032L48.3865-40.727ZM56.0946-70.2487L65.4825-70.2386C66.5226-70.2386 67.4348-69.5445 67.7122-68.5421L76.0599-38.3434L48.3865-44.7903L20.7061-38.3434L29.0607-68.5421C29.3381-69.5445 30.2503-70.2386 31.2904-70.2386L56.0946-70.2487ZM46.4556-64.6091L33.2823-64.6032C32.9357-64.6031 32.6318-64.3717 32.5394-64.0377L29.4954-53.0356L46.4556-53.0417L46.4556-64.6091ZM50.3113-64.6091L50.3113-53.0417L67.2775-53.0356L64.2336-64.0377C64.1412-64.3717 63.8373-64.6031 63.4907-64.6032L50.3113-64.6091ZM51.4711-80.2583C51.897-80.2583 52.2423-79.9131 52.2423-79.4872L52.2311-72.6316L44.5272-72.6316L44.5307-79.4872C44.5307-79.9131 44.8759-80.2583 45.3018-80.2583L51.4711-80.2583Z"/>
   <path class="monochrome-1 multicolor-1:tintColor hierarchical-1:primary SFSymbolsPreviewWireframe" d="M86.0727-3.06064C87.5953-1.53808 87.5953 0.934172 86.0727 2.45673C84.5502 3.97929 82.0779 3.97929 80.5554 2.45673L10.7003-67.3983C9.17772-68.9209 9.17772-71.3932 10.7003-72.9157C12.2228-74.4383 14.6951-74.4383 16.2176-72.9157Z" data-clipstroke-keyframes="0 0 0 0.5001135 0.5550747 0 1 0 0.05507469"/>
   <path class="monochrome-2 multicolor-2:tintColor hierarchical-2:primary SFSymbolsPreviewWireframe" d="M84.0218-1.00975C84.4125-0.619106 84.4125 0.0152006 84.0218 0.405845C83.6312 0.796489 82.9969 0.796489 82.6062 0.405845L12.7512-69.4492C12.3605-69.8399 12.3605-70.4742 12.7512-70.8648C13.1418-71.2555 13.7761-71.2555 14.1668-70.8648Z" data-clipstroke-keyframes="0 0 0 0.50012684 0.51529884 0 1 0 0.015298843"/>
  </g>
 </g>
</svg>
