<svg height="1024" viewBox="0 0 1024 1024" width="1024" xmlns="http://www.w3.org/2000/svg"><path d="m952.039029 71.9829393c69.837231 69.8378477 71.918381 180.9709367 71.981721 399.1391367v75.133187c-.02821 222.562829-1.43907 335.239022-71.981721 405.783766-69.839296 69.837231-180.971626 71.918381-399.139779 71.981721h-75.133186c-222.562861-.02821-335.239844-1.43907-405.7831247-71.981721-69.83784771-69.839296-71.91901557-180.971626-71.98103437-399.139779v-81.912082c.06287972-218.079109 2.15758325-329.180778 71.98103437-399.0042287 69.8378477-69.83784771 180.9709367-71.91901557 399.1391367-71.98103437h81.912082c218.079062.06287972 329.179971 2.15758325 399.004871 71.98103437zm-662.324195 239.4923477h-116.909101c5.546782 266.245546 138.667421 426.248878 372.058949 426.248878h13.231209v-152.323172c85.761786 8.533511 150.61007 71.254817 176.637279 152.323172h121.180124c-33.280694-121.175857-120.753449-188.163919-175.36792-213.764452 54.614471-31.573991 131.416071-108.375591 149.76312-212.484426h-110.084427c-23.893831 84.48176-94.713439 161.28336-162.128176 168.536844v-168.536844h-110.08656v295.259483c-68.268088-17.067022-154.454417-99.842079-158.294497-295.259483z"/></svg>