<svg height="21" viewBox="0 0 21 21" width="21" xmlns="http://www.w3.org/2000/svg"><g fill="none" transform="translate(.9 .2083)"><path d="m9.99788972 4.25c1.51849628 0 2.74948068 1.23098443 2.74948068 2.74948071 0 .67488721-.2431574 1.29298198-.6466434 1.77145542l-.0224062.02338469.02627.01419933c1.1311353.64683408 1.939533 1.79944455 2.1093015 3.15872355l.0206361.2054045.0357924.4666726.1124087-.0065028 2.6572464.0000157c.9626198.0053868 1.7401324.7872627 1.7401324 1.7498976 0 .4813174-.1943781.9174451-.5097636 1.2339187l-.0930239.0856708.8900176.8901191.0500442.0538669.1185261.1415138c.5143531.693215.4468828 1.6640453-.1685915 2.2795196-.6834175.6834175-1.7914562.6834175-2.4748737 0l-.8911227-.8910194-.0357318.0439995c-.2876874.3099472-.6862844.5153977-1.1324748.5533883l-.1504059.006375c-.9626349 0-1.7445108-.7775127-1.7499133-1.7457284l.0044151-2.7455157.016235-.143832.0200789-.119118.0318315-.1327677.0301685-.0962875.0653323-.1590663.0460808-.0894275.0753002-.1233377.0710326-.0994065.0620509-.0772755h-6.11799998l.06389454.0776169.0715255.100219.07601995.1249225.04502581.0878784.0627998.15234.03069317.0963061.03121714.1254817.02812786.1727455.00974216.0967481.00503163.1001895-.00001591 2.6572516c-.00543008.9625988-.78729524 1.7400875-1.74991591 1.7400875-.48131743 0-.91744511-.1943782-1.23391875-.5097833l-.08622699-.0930035-.88956295.8900169c-.64321648.6432165-1.66256801.6810527-2.35003567.1135088l-.12483807-.1135088c-.68341751-.6834175-.68341751-1.7914562 0-2.4748738l.88943669-.8901431-.04244328-.0366848c-.30994727-.2876874-.51539775-.6862844-.55338837-1.1324748l-.00637496-.1504059c0-.9626349.77751267-1.7445108 1.74572844-1.7499133l2.66496004.0000886.09951813.0053902.03693029-.4656726c.11037165-1.448158.94224554-2.68495226 2.12993757-3.36412805l.02513214-.01419933-.02126835-.0233847c-.36986213-.43860065-.60500375-.99452201-.64162553-1.60396472l-.00501785-.16749069c0-1.51849626 1.23098441-2.74948071 2.74948063-2.74948071zm9.07100568-3.32311587c.6834175.68341751.6834175 1.79145623 0 2.47487374l-.8905746.88956295.0436077.03723845c.3099473.2876874.5153977.68628447.5533884 1.1324748l.0063749.15040597c0 .96263486-.7775126 1.74451071-1.7457284 1.74991326l-2.7454519-.00440908-.1433534-.01614702-.1199282-.02015072-.1381499-.03345638-.091538-.02919418-.1185859-.04632714-.1504819-.07546599-.1206465-.07489632-.0702947-.04932726-.0943411-.07508094-.110938-.10463132-.0564808-.06022061-.0729186-.08718926-.0433803-.05830816-.0628445-.09540241-.0765668-.13744811-.0269991-.0556095-.0474911-.11573169-.0480218-.14915429-.0280333-.11277208c-.0233786-.11487913-.0351206-.23179257-.0351206-.34897754v-2.6572132c.0054089-.96261671.7872832-1.74012589 1.749916-1.74012589.4813174 0 .9174451.19437817 1.2339187.50978331l.0860891.0914233.8897009-.88843669c.6834175-.68341751 1.7914562-.68341751 2.4748737 0zm-15.66292853 0 .88935395.88943669.03747397-.04244328c.2876874-.30994727.68628446-.51539775 1.1324748-.55338837l.15040597-.00637496c.96263485 0 1.74451071.77751267 1.74991326 1.74572844l-.00009722 2.66559433c-.00218246.15650131-.02543113.31199593-.07444717.48000767l-.01858566.05941088c-.04605362.1406824-.10980804.27493822-.24248609.4740651l-.062555.08032439-.10096425.11127318-.08699975.08247999-.10657024.08788703-.09939607.07103341-.12405157.07567663-.08811373.04532001-.15546934.06406545-.09763052.0309188-.12243339.03042629-.17215905.02816909-.09750384.00984146-.10042386.00506693h-2.6460983c-.62749374.00345689-1.20882678-.32929802-1.52359346-.87214888-.31477364-.54286286-.31477364-1.21271284 0-1.75557571.07869341-.13571571.174048-.25829991.28253227-.36578148l.08777824-.0805764-.88522769-.88556295c-.64321648-.64321648-.68105274-1.66256801-.11350879-2.35003567l.11350879-.12483807c.68341751-.68341751 1.79145623-.68341751 2.47487374 0z" fill="#fff" fill-opacity=".6"/><path d="m9.99788972 9.25c1.71014118 0 3.11168768 1.3212507 3.23953048 2.998643h-6.47906087c.12784278-1.6773923 1.52938928-2.998643 3.23953039-2.998643zm0-4c.96621158 0 1.74948068.78326919 1.74948068 1.74948071 0 .96621146-.7832691 1.74948071-1.74948068 1.74948071-.96621146 0-1.74948063-.78326925-1.74948063-1.74948071 0-.96621152.78326917-1.74948071 1.74948063-1.74948071zm8.36234188 12.0495467-2.1667696-2.1667696.8409179-.0001326c.4125278-.0023085.7457284-.337379.7457284-.7499132 0-.4125343-.3332006-.7476048-.7457284-.7499133h-2.6516504l-.0995461.0080989-.1202738.0280517-.1103796.0424658-.0871677.0483261-.0759518.0601976-.0825154.087028-.0710326.0994064-.0460809.0894275-.0301686.0962875-.0200788.119118-.0067392.0714792v2.6516505c.0023085.4125277.337379.7457284.7499133.7457284.4125342 0 .7476047-.3332007.7499132-.7457284l.0000265-.841024 2.1669022 2.1669022c.2928933.2928932.767767.2928932 1.0606602 0 .2662666-.2662665.2904726-.6829302.0726182-.9765417zm-12.26878267-11.1122547.08699974-.08247998.062555-.08032439c.03415498-.05324841.06140085-.11062352.08108217-.17074508l.01403253-.04514169c.01862735-.06408172.02853991-.13038014.02947045-.19710779v-2.65165042c-.00230854-.41252776-.33737904-.74572844-.74991326-.74572844s-.74760473.33320068-.74991326.74572844l-.00013258.8409179-2.16676963-2.16676964c-.29289322-.29289321-.76776696-.29289321-1.06066018 0-.29289321.29289322-.29289321.76776696 0 1.06066018l2.16690222 2.16690221h-.84105048c-.26891797-.00150488-.51805483.14109774-.65295011.37373996s-.13489528.51970438 0 .7523466c.13489528.23264221.38403214.37524484.65295011.37376336h2.65165042l.09750384-.00985307.09310269-.01698592.09763053-.0309188.08811373-.04532001zm7.54294807-.5758387c0 .05023098.0050179.10033633.0150349.14955839l.0151529.0575439.0280584.08277613.0269991.0556095.0421427.07270122.0433803.05830816.0564808.06022061.0502945.04523855.0702947.04932726.0556368.03293468.0635204.0296045.091538.02919417.1199281.02015072.0714544.00673221h2.6516504c.4125278-.00230853.7457284-.33737904.7457284-.74991326s-.3332006-.74760472-.7457284-.74991326l-.841077.00002652 2.1669022-2.16690221c.2928932-.29289322.2928932-.76776696 0-1.06066018-.2928932-.29289321-.7677669-.29289321-1.0606602 0l-2.1669022 2.16690222v-.84105048c-.0023085-.41252776-.337379-.74572844-.7499132-.74572844-.4125343 0-.7476048.33320068-.749916.74572844zm-7.27299862 11.4229259v-2.6516107l-.00974217-.0967481-.01715851-.0947612-.03069317-.0963061-.04502581-.0878784-.0715255-.1002191-.08257961-.0870409-.07950716-.0620667-.08499392-.0468825-.10871478-.0419316-.02384331-.0069927c-.06377789-.0184285-.12974027-.0282156-.19612137-.0290992h-2.65165042c-.41252776.0023085-.74572844.337379-.74572844.7499133 0 .4125342.33320068.7476047.74572844.7499132h.84105048l-2.16690222 2.1669022c-.29289321.2928932-.29289321.767767 0 1.0606602.29289322.2928932.76776696.2928932 1.06066018 0l2.16690221-2.1669022v.8410505c.00230853.4125277.33737904.7457284.74991326.7457284s.74760472-.3332007.74993182-.7457284z" fill="#247f52"/></g></svg>