<svg height="19" viewBox="0 0 16 19" width="16" xmlns="http://www.w3.org/2000/svg" xmlns:xlink="http://www.w3.org/1999/xlink"><defs><path id="a" d="m0 0h14.9285714v19h-14.9285714z"/></defs><g fill="none" fill-rule="evenodd" transform="translate(.4608)" xlink:href="#a"><path d="m12.6668658 16.9606667c.3821487.2687357.8146898.4530049 1.2663825.5528075l.0002762 1.1790564c-.4418939-.0803745-.8708522-.2269958-1.2666587-.4398639-1.2857059.684-2.89982588.684-4.18562885 0-1.28570593.684-2.89982587.684-4.17165378 0-1.28570593.684-2.89982587.684-4.18562885 0l-.12395432.0595333.00210417-1.2706282.12185015-.0809051c1.2367932.855 2.95572613.855 4.18562885 0 1.2158306.855 2.94175106.855 4.17165378 0 1.2367932.855 2.95572615.855 4.18562885 0z" fill="#0797b8"/><path d="m6.26679345 4.99250603 2.52369324.22079455-.94720399 10.82993312c-.80503751.3395126-1.72543158.3816706-2.55483088.1264739zm1.59353275-3.68079259 1.04105207 2.6340905-2.52369323-.22079454z" fill="#027633"/></g></svg>