<svg height="21" viewBox="0 0 15 21" width="15" xmlns="http://www.w3.org/2000/svg" xmlns:xlink="http://www.w3.org/1999/xlink"><defs><path id="a" d="m0 0h13.75v20h-13.75z"/></defs><g fill="none" fill-rule="evenodd" transform="translate(.8677 .5)" xlink:href="#a"><path d="m12.5001965 17.9875c.3771204.2651997.8039702.4470443 1.2497196.5455338l.0002726 1.1635424c-.4360796-.0793169-.8593936-.2240089-1.2499922-.4340762-1.2687887.675-2.86167026.675-4.13055477 0-1.26878875.675-2.86167027.675-4.1167636 0-1.26878875.675-2.86167027.675-4.13055479 0l-.12232334.05875.00207649-1.2539094.12024685-.0798406c1.22051961.84375 2.916835.84375 4.13055479 0 1.19983283.84375 2.90304381.84375 4.1167636 0 1.2205196.84375 2.91683497.84375 4.13055477 0z" fill="#0797b8"/><path d="m7.97984375 6.25-.0001426 10.7203075c-.76700302.3939196-1.66791857.495972-2.50074755.3061572l.00089015-11.0257997zm-1.25-1.25c.69035594 0 1.25-.55964406 1.25-1.25s-.55964406-1.25-1.25-1.25-1.25.55964406-1.25 1.25.55964406 1.25 1.25 1.25z" fill="#a80107"/><path d="m6.72734375 6.62533875.00223457 10.34212615c-.29911276.0377346-.60308798.0352951-.90075503-.0073042l-.00022954-10.3351607z" fill="#fff"/></g></svg>