<svg height="21" viewBox="0 0 14 21" width="14" xmlns="http://www.w3.org/2000/svg" xmlns:xlink="http://www.w3.org/1999/xlink"><defs><path id="a" d="m0 0h13.75v20h-13.75z"/></defs><g fill="none" fill-rule="evenodd" transform="translate(0 .8681)" xlink:href="#a"><path d="m12.5001965 17.9875c.3771204.2651997.8039702.4470443 1.2497196.5455338l.0002726 1.1635424c-.4360796-.0793169-.8593936-.2240089-1.2499922-.4340762-1.2687887.675-2.86167026.675-4.13055477 0-1.26878875.675-2.86167027.675-4.1167636 0-1.26878875.675-2.86167027.675-4.13055479 0l-.12232334.05875.00207649-1.2539094.12024685-.0798406c1.22051961.84375 2.916835.84375 4.13055479 0 1.19983283.84375 2.90304381.84375 4.1167636 0 1.2205196.84375 2.91683497.84375 4.13055477 0z" fill="#0797b8"/><path d="m7.97956423 11.25125.00140128 5.7184078c-.76689562.3942609-1.66782869.4966242-2.50076865.30709l-.00060757-6.0267472z" fill="#fdc601"/><path d="m7.97984375 6.25-.00027952 5.00125h-2.5l.00027952-5.00125zm-1.25-3.74999944 1.25 2.5h-2.5zm0-2.5 1.25 2.5h-2.5z" fill="#000"/></g></svg>