<svg height="16" viewBox="0 0 11 16" width="11" xmlns="http://www.w3.org/2000/svg" xmlns:xlink="http://www.w3.org/1999/xlink"><defs><path id="a" d="m0 0h11v16h-11z"/></defs><g fill="none" fill-rule="evenodd" xlink:href="#a"><path d="m10.0001572 14.39c.3016963.2121598.6431762.3576355.9997757.436427l.000218.930834c-.3488636-.0634535-.6875149-.1792072-.9999937-.347261-1.01503099.54-2.28933621.54-3.30444382 0-1.015031.54-2.28933621.54-3.29341088 0-1.01503099.54-2.28933621.54-3.30444382 0l-.09785868.047.00166119-1.0031275.09619749-.0638725c.97641568.675 2.33346799.675 3.30444382 0 .95986627.675 2.32243505.675 3.29341088 0 .97641569.675 2.33346799.675 3.30444382 0z" fill="#0797b8"/><path d="m6.38365139 9.001.00112102 4.5747263c-.61351649.3154087-1.33426296.3972993-2.00061492.2456719l-.00048605-4.82139775z" fill="#fdc601"/><path d="m6.383875 5-.00022361 4.001h-2l.00022361-4.001zm-1-2.99999955 1 2h-2zm0-2 1 2h-2z" fill="#000"/></g></svg>