<svg height="16" viewBox="0 0 11 16" width="11" xmlns="http://www.w3.org/2000/svg" xmlns:xlink="http://www.w3.org/1999/xlink"><defs><path id="a" d="m0 0h11v16h-11z"/></defs><g fill="none" fill-rule="evenodd" xlink:href="#a"><path d="m10.0001572 14.39c.3016963.2121598.6431762.3576355.9997757.436427l.000218.930834c-.3488636-.0634535-.6875149-.1792072-.9999937-.347261-1.01503099.54-2.28933621.54-3.30444382 0-1.015031.54-2.28933621.54-3.29341088 0-1.01503099.54-2.28933621.54-3.30444382 0l-.09785868.047.00166119-1.0031275.09619749-.0638725c.97641568.675 2.33346799.675 3.30444382 0 .95986627.675 2.32243505.675 3.29341088 0 .97641569.675 2.33346799.675 3.30444382 0z" fill="#0797b8"/><path d="m6.383875 5-.00011408 8.576246c-.61360242.3151357-1.33433486.3967776-2.00059804.2449257l.00071212-8.8206397zm-1-1c.55228475 0 1-.44771525 1-1s-.44771525-1-1-1-1 .44771525-1 1 .44771525 1 1 1z" fill="#a80107"/><path d="m5.381875 5.300271.00178766 8.2737009c-.23929021.0301877-.48247038.0282361-.72060403-.0058433l-.00018363-8.2681286z" fill="#fff"/></g></svg>