<svg height="15" viewBox="0 0 11 15" width="11" xmlns="http://www.w3.org/2000/svg" xmlns:xlink="http://www.w3.org/1999/xlink"><defs><path id="a" d="m0 0h11v15h-11z"/></defs><g fill="none" fill-rule="evenodd" xlink:href="#a"><path d="m10.0001532 13.3889892c.3016964.2121598.6431762.3576355.9997757.436427l.0002181.930834c-.3488637-.0634535-.6875149-.1792072-.9999938-.347261-1.01503096.54-2.28933618.54-3.30444379 0-1.015031.54-2.28933621.54-3.29341088 0-1.01503099.54-2.28933621.54-3.30444382 0l-.09785868.047.00166119-1.0031276.09619749-.0638724c.97641568.675 2.33346799.675 3.30444382 0 .95986627.675 2.32243505.675 3.29341088 0 .97641569.675 2.33346799.675 3.30444379 0z" fill="#0797b8"/><path d="m5.92261693 3.93625195.74162522 8.47428425c-.57716465.3892597-1.28737944.5440616-1.9680434.4644058l-.76597121-8.76437857zm-.26146723-2.9885841.17433099 1.99261233-1.99238939.17431149-.17433099-1.99261233z" fill="#a80107"/></g></svg>