<svg height="20" viewBox="0 0 14 20" width="14" xmlns="http://www.w3.org/2000/svg" xmlns:xlink="http://www.w3.org/1999/xlink"><defs><path id="a" d="m0 0h13.75v20h-13.75z"/></defs><g fill="none" fill-rule="evenodd" xlink:href="#a"><path d="m12.5001965 17.9875c.3771204.2651997.8039702.4470443 1.2497196.5455338l.0002726 1.1635424c-.4360796-.0793169-.8593936-.2240089-1.2499922-.4340762-1.2687887.675-2.86167026.675-4.13055477 0-1.26878875.675-2.86167027.675-4.1167636 0-1.26878875.675-2.86167027.675-4.13055479 0l-.12232334.05875.00207649-1.2539094.12024685-.0798406c1.22051961.84375 2.916835.84375 4.13055479 0 1.19983283.84375 2.90304381.84375 4.1167636 0 1.2205196.84375 2.91683497.84375 4.13055477 0z" fill="#0797b8"/><path d="m7.98081375 13.7487506.00015176 3.2209072c-.76689562.3942609-1.66782869.4966242-2.50076865.30709l-.00063311-3.5279972zm-.00097-7.4987506-.00028 2.5h-2.5l.00028-2.5zm-1.25-6.24999944c.69035594 0 1.25.55964406 1.25 1.25 0 .6410448-.48255024 1.16938395-1.10422359 1.24159034l-.13605641.00840966.13605641.0084091c.62167335.07220639 1.10422359.60054554 1.10422359 1.24159034 0 .69035594-.55964406 1.25000056-1.25 1.25000056s-1.25-.55964462-1.25-1.25000056c0-.6410448.48255024-1.16938395 1.10422359-1.24159034l.13549641-.0084091-.13549641-.00840966c-.62167335-.07220639-1.10422359-.60054554-1.10422359-1.24159034 0-.69035594.55964406-1.25 1.25-1.25z" fill="#000"/><path d="m7.97956423 8.75125v4.99875h-2.5v-4.99875z" fill="#a80107"/></g></svg>