<svg height="19" viewBox="0 0 19 19" width="19" xmlns="http://www.w3.org/2000/svg"><g fill="none" transform="translate(.3312 .9588)"><circle cx="9" cy="9" fill="#fff" opacity=".6" r="9"/><circle cx="9" cy="9" fill="#be75a3" r="8.25"/><path d="m7.44735 6.64155c.6266775 0 1.16175-.4049325 1.36425-.964125h2.49225v.4820625c0 .2651325.21693.4820625.4820625.4820625s.4820625-.21693.4820625-.4820625v-.4820625c.2651325 0 .4820625-.21693.4820625-.4820625s-.21693-.4820625-.4820625-.4820625h-3.456375c-.23139-.6507825-.9063-1.07985-1.65345-.935175-.5640075.1108725-1.02195.5736525-1.132875 1.137675-.16872.9159.530265 1.72575 1.422075 1.72575zm0-1.92825c.2651325 0 .4820625.21693.4820625.4820625s-.21693.4820625-.4820625.4820625-.4820625-.21693-.4820625-.4820625.21693-.4820625.4820625-.4820625zm-1.71484793 7.891702h7.01753543c-.3091683 1-.9781318 1.5-2.0068907 1.5h-3.48081229c-.71478849 0-1.3302781-.5043681-1.47074931-1.2052179zm3.18749793-4.99999999c.89379424.94861026 1.4893498 1.67776089 1.7866668 2.18745192.297317.50969107.6428103 1.28054037 1.03648 2.31254807h-2.62497531c.12331455-.8424798.18497182-1.538368.18497182-2.0876646 0-.54929651-.12771443-1.35340832-.38314331-2.41233539zm-.17685315 1.00499799-2.12 3.495002h2.12z" fill="#fff"/></g></svg>