<svg width="18" height="18" viewBox="0 0 18 18" fill="none" xmlns="http://www.w3.org/2000/svg">
<g clip-path="url(#clip0_1233_31517)">
<path opacity="0.6" d="M9 18C13.9706 18 18 13.9706 18 9C18 4.02944 13.9706 0 9 0C4.02944 0 0 4.02944 0 9C0 13.9706 4.02944 18 9 18Z" fill="white"/>
<path d="M9 17.25C13.5563 17.25 17.25 13.5563 17.25 9C17.25 4.44365 13.5563 0.75 9 0.75C4.44365 0.75 0.75 4.44365 0.75 9C0.75 13.5563 4.44365 17.25 9 17.25Z" fill="#51AB8C"/>
<path d="M11.9668 3.78613C13.6418 3.78638 14.9999 5.11956 15 6.76465C15 8.40983 13.6418 9.7439 11.9668 9.74414C11.4963 9.74414 11.0517 9.63601 10.6543 9.44824C10.6611 9.54605 10.667 9.64463 10.667 9.74414C10.667 12.0946 8.72622 14 6.33301 14C3.93992 13.9998 2 12.0945 2 9.74414C2.00003 7.39378 3.93994 5.48845 6.33301 5.48828C7.32111 5.48828 8.23197 5.8135 8.96094 6.36035C9.16193 4.90636 10.4312 3.78613 11.9668 3.78613ZM4.98828 12.8838C5.40166 13.0548 5.85633 13.1494 6.33301 13.1494C6.53328 13.1494 6.72994 13.1326 6.9209 13.1006C6.80932 12.325 6.91438 11.5143 7.26074 10.7617L6.49219 10.3252L4.98828 12.8838ZM11.9668 10.5957C12.6847 10.5957 13.2665 11.167 13.2666 11.8721C13.2666 12.5772 12.6848 13.1494 11.9668 13.1494C11.2488 13.1494 10.667 12.5772 10.667 11.8721C10.667 11.167 11.2489 10.5957 11.9668 10.5957ZM8.0166 11.1904C7.78633 11.7262 7.70554 12.2952 7.76172 12.8467C8.29056 12.6117 8.74869 12.2504 9.0957 11.8018L8.0166 11.1904ZM4.97168 9.46387C4.48123 10.1348 3.81997 10.6296 3.08105 10.9229C3.3115 11.5372 3.71689 12.068 4.23828 12.457L5.74121 9.90039L4.97168 9.46387ZM9.67188 9.45996C9.2021 9.68804 8.78046 10.0231 8.44922 10.4531L9.5293 11.0654C9.70354 10.6592 9.7998 10.2126 9.7998 9.74414C9.7998 9.63087 9.79421 9.51863 9.7832 9.4082L9.67188 9.45996ZM3.13672 8.42383C2.96266 8.82981 2.86622 9.276 2.86621 9.74414C2.86621 9.85743 2.87278 9.96964 2.88379 10.0801C3.39828 9.85221 3.85972 9.49954 4.2168 9.03613L3.13672 8.42383ZM6.9248 9.58887L7.69434 10.0244C8.17942 9.36073 8.83234 8.87062 9.56152 8.57617C9.34835 8.30359 9.17973 7.99558 9.07227 7.66016C8.91465 7.46066 8.7363 7.27784 8.53809 7.11719L8.42871 7.03125L6.9248 9.58887ZM6.33301 6.33984C6.1327 6.33986 5.93611 6.35662 5.74512 6.38867C5.85703 7.16435 5.75172 7.97403 5.40527 8.72656L6.1748 9.16309L7.67773 6.60547C7.26429 6.43443 6.8098 6.33984 6.33301 6.33984ZM11.0254 8.96191C11.3148 9.08162 11.6331 9.14844 11.9668 9.14844C12.1068 9.14841 12.2444 9.13664 12.3779 9.11426C12.2998 8.57142 12.3729 8.00431 12.6152 7.47754L12.0771 7.17188L11.0254 8.96191ZM13.1445 7.77734C12.9834 8.15236 12.9275 8.55052 12.9668 8.93652C13.3368 8.77204 13.6576 8.51901 13.9004 8.20508L13.1445 7.77734ZM11.0137 6.56934C10.7371 6.94766 10.3811 7.24322 9.9834 7.45215C10.2188 7.81298 10.4002 8.21052 10.5166 8.63477L11.5518 6.87402L11.0137 6.56934ZM4.82227 6.67969C4.32867 6.91493 3.9001 7.26144 3.57129 7.68652L4.65039 8.29883C4.88086 7.76285 4.96052 7.19335 4.9043 6.6416L4.82227 6.67969ZM14.3027 6.56641C13.9741 6.72605 13.679 6.95984 13.4473 7.26074L14.2031 7.68945C14.3251 7.40512 14.3926 7.09257 14.3926 6.76465C14.3926 6.68558 14.3895 6.60736 14.3818 6.53027L14.3027 6.56641ZM9.72852 5.84082C9.60676 6.12489 9.54007 6.43711 9.54004 6.76465C9.54004 6.80622 9.54376 6.84762 9.5459 6.88867C9.56982 6.91461 9.59294 6.94125 9.61621 6.96777C9.95006 6.80801 10.2497 6.57323 10.4844 6.26855L9.72852 5.84082ZM12.3809 6.65625L12.9189 6.96094C13.2624 6.49109 13.7257 6.14474 14.2432 5.93945C14.0933 5.54063 13.8378 5.19168 13.5098 4.92578L13.4326 4.86621L12.3809 6.65625ZM11.9668 4.38184C11.8265 4.38184 11.6885 4.39357 11.5547 4.41602C11.633 4.95895 11.5599 5.526 11.3174 6.05273L11.8555 6.3584L12.9072 4.56738C12.618 4.44779 12.3003 4.3819 11.9668 4.38184ZM10.9082 4.61914C10.5628 4.78375 10.2633 5.02681 10.0332 5.32422L10.7881 5.75293C10.9494 5.37772 11.0052 4.97902 10.9658 4.59277L10.9082 4.61914Z" fill="white"/>
</g>
<defs>
<clipPath id="clip0_1233_31517">
<rect width="18" height="18" fill="white"/>
</clipPath>
</defs>
</svg>
