<svg height="15" viewBox="0 0 13 15" width="13" xmlns="http://www.w3.org/2000/svg" xmlns:xlink="http://www.w3.org/1999/xlink"><defs><path id="a" d="m0 0h12.2727273v15h-12.2727273z"/></defs><g fill="none" fill-rule="evenodd" xlink:href="#a"><path d="m12.2729416 12.8045455v1.390909c-1.3841331.7363637-3.12182206.7363637-4.50605972 0-1.38413317.7363637-3.12182211.7363637-4.49101483 0-.99657589.5301819-2.17643508.6786328-3.27568861.4453528l.00027153-1.2761567c1.10548222.2867205 2.32584016.1000188 3.27541708-.5601051 1.30890854.9204545 3.16695688.9204545 4.49101483 0 1.33147594.9204545 3.18200182.9204545 4.50605972 0z" fill="#0797b8"/><path d="m8.38433816 11.7833779c-.21594047-.0937648-.42227812-.2089162-.6174618-.3438474-1.24617219.8663101-2.96536008.9172695-4.25455102.1528782l-.15550076-.1010451-.11288294-.2009297c-.12684722-.246028-.22139893-.511422-.27805053-.7905773l6.01372855-.0002771c-.09686738.4775488-.30464635.9148334-.5952815 1.2837984zm-2.41161089-4.96519608c1.17804027 0 2.201014.6639188 2.71516202 1.63799724h-5.43032403c.51414801-.97407844 1.53712174-1.63799724 2.71516201-1.63799724zm.00528399-4.09090909 1.36363636 2.72727272h-2.72727273zm1.36363636-2.72727273-1.36363636 2.72727273-1.36363637-2.72727273z" fill="#000"/><path d="m8.68788929 8.45617906c.22540987.42704996.3530198.91371482.3530198 1.43018458 0 .20990556-.02107863.41488786-.06123466.61294576h-6.01389432c-.04015602-.1980579-.06123466-.4030402-.06123466-.61294576 0-.51646976.12760994-1.00313462.35301981-1.43018458z" fill="#fdc601"/></g></svg>