<svg height="20" viewBox="0 0 16 20" width="16" xmlns="http://www.w3.org/2000/svg" xmlns:xlink="http://www.w3.org/1999/xlink"><defs><path id="a" d="m0 0h14.9285714v19h-14.9285714z"/></defs><g fill="none" fill-rule="evenodd" transform="translate(.8654 .3386)" xlink:href="#a"><path d="m12.6668658 16.9606667c.3821487.2687357.8146898.4530049 1.2663825.5528075l.0002762 1.1790564c-.4418939-.0803745-.8708522-.2269958-1.2666587-.4398639-1.2857059.684-2.89982588.684-4.18562885 0-1.28570593.684-2.89982587.684-4.17165378 0-1.28570593.684-2.89982587.684-4.18562885 0l-.12395432.0595333.00210417-1.2706282.12185015-.0809051c1.2367932.855 2.95572613.855 4.18562885 0 1.2158306.855 2.94175106.855 4.17165378 0 1.2367932.855 2.95572615.855 4.18562885 0z" fill="#0797b8"/><path d="m6.11867206 4.97140108 2.52369324.22079455-.0314016 7.62560707 2.413296 1.4826411-.6971825 2.0253709c-.65364148-.0427723-1.29718465-.2538041-1.84584528-.6330953-1.22990272.855-2.95582318.855-4.17165378 0-.49933767.347128-1.0792842.5533229-1.6748467.6185845l-.44339811-2.783641 2.63409051-1.0410521zm1.59309718-3.67581388 1.04105207 2.63409051-2.52369324-.22079455z" fill="#027633"/></g></svg>