<svg height="14" viewBox="0 0 13 14" width="13" xmlns="http://www.w3.org/2000/svg" xmlns:xlink="http://www.w3.org/1999/xlink"><defs><path id="a" d="m0 0h12.6v14h-12.6z"/></defs><g fill="none" fill-rule="evenodd" xlink:href="#a"><path d="m12.6002201 11.746v1.428c-1.4210434.756-3.20507071.756-4.62622137 0-1.42104339.756-3.20507069.756-4.61077523 0-1.02315124.54432-2.23447334.6967296-3.36304031.4572288l.00027878-1.3101875c1.13496175.2943664 2.38786257.102686 3.36276153-.5750413 1.34381277.945 3.25140907.945 4.61077523 0 1.36698196.945 3.26685517.945 4.62622137 0z" fill="#0797b8"/><path d="m6.02827815 5.62383428c1.73307689-.15162459 3.26092931 1.13039582 3.41255389 2.86347271.06247495.71409186-.1184465 1.39334184-.47402894 1.95583431-.1942411-.0731356-.38291734-.1609082-.56450262-.2642989-1.27183119 1.0598805-3.1721685 1.2261385-4.59322984.4018555l-.04903735.040176c-.32985679-.4500673-.54328814-.9908122-.59522784-1.58448574-.15162459-1.73307689 1.13039582-3.2609293 2.8634727-3.41255388zm1.04982262-4.3078909.24406338 2.78965726-2.78934515.24403608-.24406339-2.78965726z" fill="#a80107"/></g></svg>