<svg height="11" viewBox="0 0 9 11" width="9" xmlns="http://www.w3.org/2000/svg" xmlns:xlink="http://www.w3.org/1999/xlink"><defs><path id="a" d="m0 0h9v11h-9z"/></defs><g fill="none" fill-rule="evenodd" xlink:href="#a"><path d="m9.00015721 9.39v1.02c-1.015031.54-2.28933622.54-3.30444383 0-1.015031.54-2.28933621.54-3.29341088 0-.73082232.3888-1.59605239.497664-2.40217165.326592l.00019913-.9358482c.81068696.2102617 1.70561612.07334711 2.40197252-.4107438.95986627.675 2.32243505.675 3.29341088 0 .97641569.675 2.33346799.675 3.30444383 0z" fill="#0797b8"/><path d="m6.14851465 8.64114377c-.15835634-.06876082-.30967062-.15320519-.45280532-.25215477-.9138596.63529412-2.17459739.67266436-3.12000408.11211073l-.11403389-.07409973-.08278082-.14734851c-.0930213-.18042051-.16235922-.37504273-.20390373-.57975664l4.41006761-.00020322c-.07103608.35020244-.22340733.67087782-.43653977.94145214zm-1.76851465-3.64114377c.8638962 0 1.61407693.48687379 1.99111881 1.20119798h-3.98223762c.37704188-.71432419 1.12722261-1.20119798 1.99111881-1.20119798zm.00387492-3 1 2h-2zm1-2-1 2-1-2z" fill="#000"/><path d="m6.37111881 6.20119798c.16530057.31316997.25888119.67005753.25888119 1.04880202 0 .15393072-.01545766.3042511-.04490542.44949358h-4.41018916c-.02944776-.14524248-.04490542-.29556286-.04490542-.44949358 0-.37874449.09358062-.73563205.25888119-1.04880202z" fill="#fdc601"/></g></svg>