<svg height="11" viewBox="0 0 9 11" width="9" xmlns="http://www.w3.org/2000/svg" xmlns:xlink="http://www.w3.org/1999/xlink"><defs><path id="a" d="m0 0h9v11h-9z"/></defs><g fill="none" fill-rule="evenodd" xlink:href="#a"><path d="m9.00015721 9.39v1.02c-1.015031.54-2.28933622.54-3.30444383 0-1.015031.54-2.28933621.54-3.29341088 0-.73082232.3888-1.59605239.497664-2.40217165.326592l.00019913-.9358482c.81068696.2102617 1.70561612.07334711 2.40197252-.4107438.95986627.675 2.32243505.675 3.29341088 0 .97641569.675 2.33346799.675 3.30444383 0z" fill="#0797b8"/><path d="m6.14851465 8.64114377c-.15835634-.06876082-.30967062-.15320519-.45280532-.25215477-.9138596.63529412-2.17459739.67266436-3.12000408.11211073l-.11403389-.07409973-.08278082-.14734851c-.0928698-.18012666-.1621333-.37440882-.20370052-.57875649l4.40966044-.00019904c-.07112352.34981121-.22340713.67013216-.43633581.94044781zm-1.76851465-3.64114377c.81291395 0 1.52513809.43110437 1.92052094 1.07716165l.07006382.12302517h-3.98116952c.3772159-.71377246 1.12709625-1.20018682 1.99058476-1.20018682zm.00387492-3c.55228475 0 1 .44771525 1 1s-.44771525 1-1 1-1-.44771525-1-1 .44771525-1 1-1zm0-2c.55228475 0 1 .44771525 1 1s-.44771525 1-1 1-1-.44771525-1-1 .44771525-1 1-1z" fill="#000"/><path d="m6.37058476 6.20018682c.16563305.31341283.25941524.670661.25941524 1.04981318 0 .15428056-.01552801.30493436-.04510641.45048379h-4.40978718c-.0295784-.14554943-.04510641-.29620323-.04510641-.45048379 0-.37915218.09378219-.73640035.25941524-1.04981318z" fill="#a80107"/></g></svg>