<svg height="16" viewBox="0 0 11 16" width="11" xmlns="http://www.w3.org/2000/svg" xmlns:xlink="http://www.w3.org/1999/xlink"><defs><path id="a" d="m0 0h11v16h-11z"/></defs><g fill="none" fill-rule="evenodd" xlink:href="#a"><path d="m10.0001572 14.39c.3016963.2121598.6431762.3576355.9997757.436427l.000218.930834c-.3488636-.0634535-.6875149-.1792072-.9999937-.347261-1.01503099.54-2.28933621.54-3.30444382 0-1.015031.54-2.28933621.54-3.29341088 0-1.01503099.54-2.28933621.54-3.30444382 0l-.09785868.047.00166119-1.0031275.09619749-.0638725c.97641568.675 2.33346799.675 3.30444382 0 .95986627.675 2.32243505.675 3.29341088 0 .97641569.675 2.33346799.675 3.30444382 0z" fill="#0797b8"/><path d="m6.883875 11 2 1-.47301264 1.8946246c-.60281683.0121672-1.2099373-.156378-1.71515295-.5056356-.97097583.675-2.33354461.675-3.29341088 0-.32007706.2225102-.68210738.3716711-1.05862647.4474826l-.45979706-1.8364716 2-1zm-2.667-3.99899955.167-2.00046845h2l.167 2.00046845zm1.167-7.001c.55228475 0 1 .44771525 1 1 0 .51283584-.38604019.93550716-.88337887.99327227l-.10862113.00672773.10862113.00672728c.49733868.05776511.88337887.48043643.88337887.99327272 0 .5522843-.44771525 1-1 1s-1-.4477157-1-1c0-.51283629.38604019-.93550761.88337887-.99327272l.10862113-.00672728-.10862113-.00672773c-.49733868-.05776511-.88337887-.48043643-.88337887-.99327227 0-.55228475.44771525-1 1-1z" fill="#000"/><path d="m6.55065139 7.001532.33322361 3.998468h-3l.33277639-3.998468z" fill="#a80107"/></g></svg>