<svg height="15" viewBox="0 0 11 15" width="11" xmlns="http://www.w3.org/2000/svg" xmlns:xlink="http://www.w3.org/1999/xlink"><defs><path id="a" d="m0 0h11v15h-11z"/></defs><g fill="none" fill-rule="evenodd" xlink:href="#a"><path d="m10.0001572 13.39c.3016963.2121598.6431762.3576355.9997757.436427l.000218.930834c-.3488636-.0634535-.6875149-.1792072-.9999937-.347261-1.01503099.54-2.28933621.54-3.30444382 0-1.015031.54-2.28933621.54-3.29341088 0-1.01503099.54-2.28933621.54-3.30444382 0l-.09785868.047.00166119-1.0031275.09619749-.0638725c.97641568.675 2.33346799.675 3.30444382 0 .95986627.675 2.32243505.675 3.29341088 0 .97641569.675 2.33346799.675 3.30444382 0z" fill="#0797b8"/><path d="m4.83053058 3.92479033 1.99238939.17431148-.02479074 6.02021609 1.90523366 1.1705062-.55040724 1.598977c-.51603271-.0337676-1.02409311-.2003716-1.45724624-.4998121-.97097583.675-2.33354461.675-3.29341088 0-.39421395.2740484-.85206647.4368339-1.32224739.4883562l-.35005114-2.1976113 2.07954514-.82188323zm1.25770829-2.90195833.82188321 2.07954514-1.99238939-.17431149z" fill="#027633"/></g></svg>