<svg height="11" viewBox="0 0 9 11" width="9" xmlns="http://www.w3.org/2000/svg" xmlns:xlink="http://www.w3.org/1999/xlink"><defs><path id="a" d="m0 0h9v11h-9z"/></defs><g fill="none" fill-rule="evenodd" xlink:href="#a"><path d="m9.00015721 9.39v1.02c-1.015031.54-2.28933622.54-3.30444383 0-1.015031.54-2.28933621.54-3.29341088 0-.73082232.3888-1.59605239.497664-2.40217165.326592l.00019913-.9358482c.81068696.2102617 1.70561612.07334711 2.40197252-.4107438.95986627.675 2.32243505.675 3.29341088 0 .97641569.675 2.33346799.675 3.30444383 0z" fill="#0797b8"/><path d="m4.38 5c1.24264069 0 2.25 1.00735931 2.25 2.25 0 .52516362-.17992128 1.00830438-.48148535 1.39114377-.15835634-.06876082-.30967062-.15320519-.45280532-.25215477-.9138596.63529412-2.17459739.67266436-3.12000408.11211073l-.11160041-.07073604c-.2118566-.34314205-.33410484-.74747657-.33410484-1.18036369 0-1.24264069 1.00735931-2.25 2.25-2.25zm1.120075-2.5-.5.5.5.5-.5.5-.5-.5-.5.5-.5-.5.5-.5-.5-.5.5-.5.5.5.5-.5z" fill="#fdc601"/></g></svg>