<svg height="20" viewBox="0 0 14 20" width="14" xmlns="http://www.w3.org/2000/svg" xmlns:xlink="http://www.w3.org/1999/xlink"><defs><path id="a" d="m0 0h13.75v20h-13.75z"/></defs><g fill="none" fill-rule="evenodd" xlink:href="#a"><path d="m12.5001965 17.9875c.3771204.2651997.8039702.4470443 1.2497196.5455338l.0002726 1.1635424c-.4360796-.0793169-.8593936-.2240089-1.2499922-.4340762-1.2687887.675-2.86167026.675-4.13055477 0-1.26878875.675-2.86167027.675-4.1167636 0-1.26878875.675-2.86167027.675-4.13055479 0l-.12232334.05875.00207649-1.2539094.12024685-.0798406c1.22051961.84375 2.916835.84375 4.13055479 0 1.19983283.84375 2.90304381.84375 4.1167636 0 1.2205196.84375 2.91683497.84375 4.13055477 0z" fill="#0797b8"/><path d="m8.60484375 13.75 2.50000005 1.25-.5912659 2.3682807c-.75352099.015209-1.51242157-.1954725-2.14394114-.6320444-1.21371979.84375-2.91693076.84375-4.1167636 0-.40009633.2781377-.85263422.4645888-1.32328309.5593533l-.57474632-2.2955896 2.5-1.25zm-3.33375-4.99874944.20875-2.50058556h2.5l.20875 2.50058556zm1.45875-8.75125c.69035594 0 1.25.55964406 1.25 1.25 0 .6410448-.48255024 1.16938395-1.10422359 1.24159034l-.13577641.00840966.13577641.0084091c.62167335.07220639 1.10422359.60054554 1.10422359 1.24159034 0 .69035594-.55964406 1.25000056-1.25 1.25000056s-1.25-.55964462-1.25-1.25000056c0-.6410448.48255024-1.16938395 1.10422359-1.24159034l.13577641-.0084091-.13577641-.00840966c-.62167335-.07220639-1.10422359-.60054554-1.10422359-1.24159034 0-.69035594.55964406-1.25 1.25-1.25z" fill="#000"/><path d="m8.18831423 8.751915.41652952 4.998085h-3.75l.41597048-4.998085z" fill="#a80107"/></g></svg>