<svg height="18" viewBox="0 0 18 18" width="18" xmlns="http://www.w3.org/2000/svg"><g fill="none" fill-rule="evenodd"><path d="m8 15h2v3h-2z" fill="#5b3919"/><path d="m9 4.5 1.5 1.5h-.87530378l1.87530378 1.5h-1.3333038l2.3333038 2h-1.6123038l2.5 2.5h-1.427l2.5393038 3h-11l2.53869622-3h-1.651l2.5-2.5h-1.38769621l2.33269621-2h-1.33269622l1.87469622-1.5h-.87469622z" fill="#a2ba4e"/><path d="m10.3477837 9.5c.2761423 0 .5-.22385763.5-.5s-.2238577-.5-.5-.5c-.2761424 0-.50000003.22385763-.50000003.5s.22385763.5.50000003.5zm-1.46008748-2c.27614237 0 .5-.22385763.5-.5s-.22385763-.5-.5-.5c-.27614238 0-.5.22385763-.5.5s.22385762.5.5.5zm-1.88769622 2.5c.27614237 0 .5-.22385763.5-.5s-.22385763-.5-.5-.5-.5.22385763-.5.5.22385763.5.5.5zm4.8477837 1.6115873c.2761423 0 .5-.2238576.5-.5s-.2238577-.5-.5-.5c-.2761424 0-.5.2238576-.5.5s.2238576.5.5.5zm-.5 2.5c.2761423 0 .5-.2238576.5-.5s-.2238577-.5-.5-.5c-.2761424 0-.5.2238576-.5.5s.2238576.5.5.5zm-2.84778369-1.1115873c.27614238 0 .5-.2238576.5-.5s-.22385762-.5-.5-.5c-.27614237 0-.5.2238576-.5.5s.22385763.5.5.5zm-3 1.6115873c.27614238 0 .5-.2238576.5-.5s-.22385762-.5-.5-.5c-.27614237 0-.5.2238576-.5.5s.22385763.5.5.5z" fill="#cf1212"/><path d="m9 4.58369049-1.79615045.94429217.34303421-2.00004292-1.45311623-1.41643825 2.00815725-.29180233.89807522-1.81969916.89807522 1.81969916 2.00815728.29180233-1.4531163 1.41643825.3430342 2.00004292z" fill="#ffc700"/></g></svg>