<svg height="18" viewBox="0 0 18 18" width="18" xmlns="http://www.w3.org/2000/svg"><path d="m10.910745 4.4239125c.81765 0 1.58628.318405 2.164425.89655 1.19355 1.193475 1.19355 3.135525 0 4.329075l-3.8214 3.8214c-.070095.070095-.1618725.1051425-.2537475.1051425s-.18374625-.0350475-.2537475-.1051425l-3.821475-3.8214c-1.193475-1.193475-1.193475-3.135525 0-4.329075.578175-.57813 1.346925-.89655 2.1645-.89655.703125 0 1.3700325.235425 1.9107.6690825.4806-.38547333 1.0609511-.61431852 1.677796-.66041407zm0 .71778c-.62595 0-1.2143475.2437425-1.656975.68637-.0672975.0672915-.1586025.1051425-.2537475.1051425s-.186456-.037851-.2537475-.1051425c-.442575-.44253-1.03098-.68637-1.656975-.68637-.62595 0-1.2143475.2437425-1.656975.68637-.91365.91365-.91365 2.400225 0 3.313875l3.567675 3.567675 3.56772-3.567675c.91365-.91365.91365-2.4003 0-3.313875-.44265-.44253-1.03107-.68637-1.656975-.68637zm-.7272766 1.3583075c.1142317 0 .2203497.05883637.2809163.15564151.0605665.09680515.0669508.21802274.0169966.32069214l-.53974647 1.10846113.65050647.00000256c.123897 0 .2374364.06919401.2942926.17919544.0569414.11009145.0476223.2426983-.0240711.34372681l-1.95175011 2.75259771c-.06367593.089901-.16556297.1396827-.27039251.1396827-.0440892 0-.08869489-.0088005-.13122906-.0270912-.14364853-.0621181-.22431764-.2161257-.19343027-.3695239l.31421861-1.56077701-.79613957.00552174c-.10870992 0-.20861612-.05107506-.27090804-.13734948-.0628098-.08696677-.07963334-.19886526-.04512288-.30041304l.80901738-2.38544158c.04564007-.13451083.17178032-.22492553.31378935-.22492553z" fill="#d85961"/></svg>