<svg height="12" viewBox="0 0 10 12" width="10" xmlns="http://www.w3.org/2000/svg"><path d="m1.40439659 7.9208845 1.66497587 2.7936423-1.40439659.7854732-1.66497587-2.79364231zm8.4849796-1.30248563c.16487591.16547497.10670169.33549981.06975361.38988026l-.43800423.52780539-.62597187.74047497-.53694807.61881334c-.32632701.36909096-.60717167.67020945-.72780998.75809352l-.04525857.02577662-.01284708.00430951c-.19301982.05924488-.99660972.09410524-2.41076971.10458107l-1.41415344.0028978-.56983671.39622455-1.22668022-2.05836003 1.15247826-.83001081c.39709497-.25233656.78419173-.3824476 1.16129028-.39033312l.0364622-.00038156c.38859717 0 .73067579.13023823 1.02623587.39071468h1.72754994c.23698041.05141129.35547062.18715372.35547062.40722729 0 .22007356-.11849021.3663265-.35547062.43875883h-1.86216445c-.07860487.00513887-.11790731.04260011-.11790731.11238372 0 .10467541.05865282.14917992.11790731.14917992l.90691261-.01038221.49426323-.01604024c.27084037-.01216092.50277426-.0299189.60657246-.05584997.32932419-.08227242 2.11000399-1.67235874 2.21252409-1.75200674.10252009-.079648.3026137-.12817636.47640178.04624321zm-3.69096692-3.77570294c-.09531354-.29519343-.09699782-.44798224-.09699782-.69213749 0-.60830957-.49315331-1.10142003-1.10142002-1.10142003-.60830957 0-1.10142003.49311046-1.10142003 1.10142003 0 .24414668-.00168624.39692692-.09699782.69213749-.09534354.29519342-.52319594.80943657-.52319594 1.43566029 0 .95082119.77082259 1.72164378 1.72164379 1.72164378.95082119 0 1.72160093-.77077973 1.72160093-1.72164378 0-.56356277-.34656739-1.03645253-.48538006-1.34062523zm-.35982578-2.77957701c-.00037908-.02303239-.01293243-.04310709-.03149545-.05412282l-.03584588-.0089961-.07532111.00360309c-.13534339.01138062-.41475604.05828767-.60648789.24999351-.12874614.12876329-.19222565.29576342-.22343826.43281093-.02675465-.08282078-.07076517-.17207866-.14346746-.24480238-.13454896-.13456503-.32770192-.17111841-.42926654-.18098478l-.06882538-.00359276c-.03450959.00067646-.06248952.02854864-.06305951.06307666l.00159083.04631626c.00635078.09321555.03708217.30583386.18300631.45172273.13458752.1345811.3277212.17113608.42927376.18100226l.12801359.00359241c.04385109 0 .43525377-.00712751.68185185-.25361374.20610698-.20621669.24487627-.51045135.25198392-.63278334z" fill="#747e86" fill-rule="evenodd"/></svg>