<svg height="18" viewBox="0 0 18 18" width="18" xmlns="http://www.w3.org/2000/svg"><g fill="none"><circle cx="9" cy="9" fill="#fff" opacity=".6" r="9"/><circle cx="9" cy="9" fill="#9c6136" r="8.25"/><path d="m5.40439659 10.9208845 1.66497587 2.7936423-1.40439659.7854732-1.66497587-2.7936423zm8.48497961-1.30248563c.1648759.16547497.1067017.33549981.0697536.38988023l-.4380042.5278054-.6259719.740475-.5369481.6188133c-.326327.369091-.6071716.6702095-.72781.7580936l-.0452585.0257766-.0128471.0043095c-.1930198.0592449-.9966097.0941052-2.41076971.104581l-1.41415344.0028979-.56983671.3962245-1.22668022-2.05836 1.15247826-.8300108c.39709497-.2523366.78419173-.38244764 1.16129028-.39033316l.0364622-.00038156c.38859717 0 .73067579.13023822 1.02623587.39071472h1.72754997c.2369804.0514113.3554706.1871537.3554706.4072272 0 .2200736-.1184902.3663266-.3554706.4387589h-1.86216448c-.07860487.0051388-.11790731.0426001-.11790731.1123837 0 .1046754.05865282.1491799.11790731.1491799l.90691258-.0103822.4942633-.0160402c.2708403-.012161.5027742-.0299189.6065724-.05585.3293242-.0822724 2.110004-1.67235874 2.2125241-1.75200674s.3026137-.12817636.4764018.04624321zm-3.6909669-3.77570294c-.0953136-.29519343-.0969978-.44798224-.0969978-.69213749 0-.60830957-.49315336-1.10142003-1.10142007-1.10142003-.60830957 0-1.10142003.49311046-1.10142003 1.10142003 0 .24414668-.00168624.39692692-.09699782.69213749-.09534354.29519342-.52319594.80943657-.52319594 1.43566029 0 .95082119.77082259 1.72164378 1.72164379 1.72164378.95082119 0 1.72160097-.77077973 1.72160097-1.72164378 0-.56356277-.3465674-1.03645253-.4853801-1.34062523zm-.35982581-2.77957701c-.00037908-.02303239-.01293243-.04310709-.03149545-.05412282l-.03584588-.0089961-.07532111.00360309c-.13534339.01138062-.41475604.05828767-.60648789.24999351-.12874614.12876329-.19222565.29576342-.22343826.43281093-.02675465-.08282078-.07076517-.17207866-.14346746-.24480239-.13454896-.13456502-.32770192-.1711184-.42926654-.18098477l-.06882538-.00359276c-.03450959.00067646-.06248952.02854864-.06305951.06307666l.00159083.04631626c.00635078.09321555.03708217.30583386.18300631.45172273.13458752.1345811.3277212.17113608.42927376.18100226l.12801359.00359241c.04385109 0 .43525377-.00712751.68185185-.25361374.20610698-.20621669.24487627-.51045136.25198392-.63278334z" fill="#fff" fill-rule="evenodd"/></g></svg>