<svg width="18" height="18" viewBox="0 0 18 18" fill="none" xmlns="http://www.w3.org/2000/svg">
<g clip-path="url(#clip0_1224_75)">
<path opacity="0.6" d="M9 18C13.9706 18 18 13.9706 18 9C18 4.02944 13.9706 0 9 0C4.02944 0 0 4.02944 0 9C0 13.9706 4.02944 18 9 18Z" fill="white"/>
<path d="M9 17.25C13.5563 17.25 17.25 13.5563 17.25 9C17.25 4.44365 13.5563 0.75 9 0.75C4.44365 0.75 0.75 4.44365 0.75 9C0.75 13.5563 4.44365 17.25 9 17.25Z" fill="#51AB8C"/>
<path d="M11.1875 10.25C11.7053 10.25 12.125 10.6697 12.125 11.1875C12.125 11.7053 11.7053 12.125 11.1875 12.125C10.6697 12.125 10.25 11.7053 10.25 11.1875C10.25 10.6697 10.6697 10.25 11.1875 10.25Z" fill="white"/>
<path fill-rule="evenodd" clip-rule="evenodd" d="M13.375 4C13.7202 4 14 4.27982 14 4.625V13.375C14 13.7202 13.7202 14 13.375 14H4.625C4.27982 14 4 13.7202 4 13.375V4.625C4 4.27982 4.27982 4 4.625 4H13.375ZM5.25 12.75H8.375V9.625H5.25V12.75ZM9.625 12.75H12.75V9.625H9.625V12.75ZM5.25 8.375H8.375V5.25H5.25V8.375ZM9.625 8.375H12.75V5.25H9.625V8.375Z" fill="white"/>
</g>
<defs>
<clipPath id="clip0_1224_75">
<rect width="18" height="18" fill="white"/>
</clipPath>
</defs>
</svg>
