<svg height="18" viewBox="0 0 18 18" width="18" xmlns="http://www.w3.org/2000/svg"><g fill="none"><circle cx="9" cy="9" fill="#fff" opacity=".6" r="9"/><circle cx="9" cy="9" fill="#6d544c" r="8.25"/><path d="m14.2495113 7.80218247.0009775 5.25075003h-1.05v-1.05h-8.40000005v1.05h-1.05l-.0009775-5.25075003zm-1.049.000975h-8.40000005v2.45002503h.4473c-.062976-.105945-.09657562-.2267625-.0972975-.35000253 0-.386595.3134025-.6999975.6999975-.6999975h1.05c.386595 0 .6999975.3134025.6999975.6999975-.00072.12324753-.03432.24406503-.0972975.35000253h.4473v-1.05000003h3.67497755c.6082575.001125 1.12368.448065 1.211025 1.05000003h.3639975zm-4.10474087-4.04873658 5.05994867 2.75997202c.0484849.02644628.0663507.08718994.0399044.13567477-.0175233.03212609-.0511951.05211479-.0877896.05211479h-10.21566783c-.05522848 0-.1-.04477152-.1-.1 0-.03659442.0199887-.07026624.05211479-.08778956l5.05994871-2.75997202c.0596955-.03256119.13184536-.03256119.19154086 0z" fill="#fff"/></g></svg>