<svg height="19" viewBox="0 0 18 19" width="18" xmlns="http://www.w3.org/2000/svg"><g fill="none" transform="translate(0 .9588)"><circle cx="9" cy="9" fill="#fff" opacity=".6" r="9"/><circle cx="9" cy="9" fill="#0797b8" r="8.25"/><path d="m14.3284836 9.91216592c-.3125594 1.01096838-.8687086 1.68342498-1.6684475 2.01736998-.1656091-.072627-.3256156-.1651861-.4807525-.2805759-.950475.675-2.27887502.675-3.23467502 0-.950475.675-2.284275.675-3.223875 0-.27744671.2030098-.56714237.3353526-.8659383.4186755-.45689288-.1859843-.80641259-.5898173-.90791437-1.0962377l-.21230169-1.05923188zm-5.78195173-7.54816592.48488347.52149022.44267432.49043051c.84313944.94980132 1.43302404 1.71324441 1.76965374 2.29032927.4488396.76944648.9704078 1.93314626 1.5647046 3.49109933h-3.96274987c.18615974-1.27183553.27923961-2.32237144.27923961-3.15160773s-.19280196-2.04315016-.57840587-3.6417416zm-.26698338 1.51717831v5.27617102h-3.20042235zm5.55269401 9.95882169c-.5724075 0-1.1124-.13-1.62-.4-.9936.54-2.241.54-3.234675 0-.9936.54-2.241.54-3.223875 0-.6642075.3726-1.4256.427-2.16.4v-.88c.7614.027 1.4958-.054 2.16-.54.9396.675 2.2734.675 3.223875 0 .9558.675 2.2842.675 3.234675 0 .6534075.486 1.3932.567 2.1492.54v.88z" fill="#fff" fill-rule="evenodd"/></g></svg>