<svg height="18" viewBox="0 0 18 18" width="18" xmlns="http://www.w3.org/2000/svg"><g fill="none"><circle cx="9" cy="9" fill="#fff" opacity=".6" r="9"/><circle cx="9" cy="9" fill="#747e86" r="8.25"/><path d="m11.9788057 9.45701798v4.46417412h-2.48216516v-1.9344754c0-.5341906-.43304708-.9672377-.96723771-.9672377-.51282301 0-.93243211.3990962-.96518032.9036416l-.00205739.0635961v1.9344754h-2.48216512v-4.46417412zm-3.44940287-4.1392834c1.90503617 0 3.44940287 1.54436664 3.44940287 3.44940283h-6.8988057c0-1.90503619 1.54436664-3.44940283 3.44940283-3.44940283zm4.47021307-1.83773458.6985699.69856997-1.0498311 1.04983111c.2863445.33051154.5419599.68947967.7623009 1.07107475l-.8568598.49403817c-.520321-.90122443-1.2678995-1.64880299-2.169124-2.16912399l.4940382-.8568598c.3815951.22034103.7405632.47595638 1.0710748.7623009z" fill="#fff"/></g></svg>