<svg width="18" height="18" viewBox="0 0 18 18" fill="none" xmlns="http://www.w3.org/2000/svg">
<g clip-path="url(#clip0_1248_34)">
<path opacity="0.6" d="M9 18C13.9706 18 18 13.9706 18 9C18 4.02944 13.9706 0 9 0C4.02944 0 0 4.02944 0 9C0 13.9706 4.02944 18 9 18Z" fill="white"/>
<path d="M9 17.25C13.5563 17.25 17.25 13.5563 17.25 9C17.25 4.44365 13.5563 0.75 9 0.75C4.44365 0.75 0.75 4.44365 0.75 9C0.75 13.5563 4.44365 17.25 9 17.25Z" fill="#51AB8C"/>
<path d="M3 12.5625C3.25 13.3125 3.25 13.3125 4 13.5625L7 10.5625C7.5 10.0625 8.25 10.3625 9 10.5625C10 10.9125 10.75 10.3125 11.5 9.5625L14 7.0625C14.75 6.3125 14.75 5.3125 14 4.5625L12 2.5625C11.25 1.8125 10.25 1.8125 9.5 2.5625L7 5.0625C6.25 5.8125 5.65 6.5625 6 7.5625C6.2 8.3125 6.5 9.0625 6 9.5625L3 12.5625ZM11 11.5625C10.6022 11.5625 10.2206 11.7205 9.93934 12.0018C9.65804 12.2831 9.5 12.6647 9.5 13.0625C9.5 13.4603 9.65804 13.8419 9.93934 14.1232C10.2206 14.4045 10.6022 14.5625 11 14.5625C11.3978 14.5625 11.7794 14.4045 12.0607 14.1232C12.342 13.8419 12.5 13.4603 12.5 13.0625C12.5 12.6647 12.342 12.2831 12.0607 12.0018C11.7794 11.7205 11.3978 11.5625 11 11.5625Z" fill="white"/>
</g>
<defs>
<clipPath id="clip0_1248_34">
<rect width="18" height="18" fill="white"/>
</clipPath>
</defs>
</svg>
