<svg height="25" viewBox="0 0 25 25" width="25" xmlns="http://www.w3.org/2000/svg"><g fill="none"><path d="m12.5 0 .3244459.0720991 8.9737316 1.99416257.9290952.2064656.2064656.92909522 1.9941626 8.97373161.0720991.3244459-.0720991.3244459-1.9941626 8.9737316-.2064656.9290952-.9290952.2064656-8.9737316 1.9941626-.3244459.0720991-.3244459-.0720991-8.97373161-1.9941626-.92909522-.2064656-.2064656-.9290952-1.99416257-8.9737316-.0720991-.3244459.0720991-.3244459 1.99416257-8.97373161.2064656-.92909522.92909522-.2064656 8.97373161-1.99416257z" fill="#fff"/><path d="m3.53659074 3.53659074 8.99999996-2 9 2 2 8.99999996-2 9-9 2-8.99999996-2-2-9z" fill="#309302"/></g></svg>