<svg xmlns="http://www.w3.org/2000/svg" xml:space="preserve" width="36" height="33" style="fill-rule:evenodd" viewBox="0 0 4626.433 6280.198"><path d="M1564.565 3792.823H3769.51V4922.36H1564.565z" style="fill:#fff" transform="translate(-1506.794 -2343.556)"/><path d="M1821.73 2345.05h3996.548c156.727 0 313.455 156.924 313.455 313.85v4550.826c.13 155.803-123.07 215.07-156.727 233.697L3820.01 8622.053 1665.014 7445.116c-26.103-14.26-156.86-77.329-156.727-235.387V2658.904c0-156.925 156.727-313.85 313.455-313.85z" style="fill:#fff;stroke:#1f1a17;stroke-width:2.98753762" transform="translate(-1506.794 -2343.556)"/><path d="M461.792 152.396c-157.48 0-315.2 157.348-315.2 314.828v4409.445c0 119.53 120.664 144.274 158.716 165.034L2312.1 6136.723l2007.91-1102.454c25.33-15.106 157.599-78.86 157.599-157.6V2659.123h-1.115V1383.457h1.115V467.224c0-161.078-157.72-314.828-315.2-314.828zm0 111.51h3700.619c67.767-.198 203.69 127.042 203.69 203.318v914.003h-.744v1380.484h.744V4876.67l-2054 1148.545L258.474 4876.669V2659.123h-.744V1383.457h.372V467.224c-.009-74.65 142.705-203.512 203.69-203.319" style="fill:#1f1a17;fill-rule:evenodd;stroke-width:1.1396"/></svg>
