<svg height="18" viewBox="0 0 18 18" width="18" xmlns="http://www.w3.org/2000/svg"><g fill="none"><circle cx="9" cy="9" fill="#fff" opacity=".6" r="9"/><circle cx="9" cy="9" fill="#9c6136" r="8.25"/><path d="m5.40439659 10.9208845 1.66497587 2.7936423-1.40439659.7854732-1.66497587-2.7936423zm8.48497961-1.30248563c.1648759.16547497.1067017.33549981.0697536.38988023l-.4380042.5278054-.6259719.740475-.5369481.6188133c-.326327.369091-.6071716.6702095-.72781.7580936l-.0452585.0257766-.0128471.0043095c-.1930198.0592449-.9966097.0941052-2.41076971.104581l-1.41415344.0028979-.56983671.3962245-1.22668022-2.05836 1.15247826-.8300108c.39709497-.2523366.78419173-.38244764 1.16129028-.39033316l.0364622-.00038156c.38859717 0 .73067579.13023822 1.02623587.39071472h1.72754997c.2369804.0514113.3554706.1871537.3554706.4072272 0 .2200736-.1184902.3663266-.3554706.4387589h-1.86216448c-.07860487.0051388-.11790731.0426001-.11790731.1123837 0 .1046754.05865282.1491799.11790731.1491799l.90691258-.0103822.4942633-.0160402c.2708403-.012161.5027742-.0299189.6065724-.05585.3293242-.0822724 2.110004-1.67235874 2.2125241-1.75200674s.3026137-.12817636.4764018.04624321zm-7.07695726-.61839887-.00064003-.76822841c-.79974138-.64144198-1.31177891-1.6268104-1.31177891-2.73177159h7c0 1.10496119-.5120375 2.09032961-1.3117789 2.73177159l-.00064.76822841z" fill="#fff" fill-rule="evenodd"/></g></svg>