<svg height="19" viewBox="0 0 14 19" width="14" xmlns="http://www.w3.org/2000/svg"><path d="m7.69225716.00010119c-.93627166-.01384608-.93627166 1.39789983 0 1.3846076 2.68461564 0 4.84612664 2.16151093 4.84612664 4.8461266-.0138461.93627166 1.3978998.93627166 1.3846076 0 0-3.43299608-2.7977382-6.2307342-6.23073424-6.2307342m-5.38432358.84641063c-2.9731679 2.9738602-2.9731679 7.79478695 0 10.76864718 2.97386021 2.9731679 7.79478692 2.9731679 10.76864712 0zm5.38432358 1.92280457c-.93627166-.01384608-.93627166 1.39789983 0 1.3846076 1.15517812 0 2.0769114.92159482 2.0769114 2.0769114-.01384607.93627166 1.39789984.93627166 1.38460764 0 0-1.90355853-1.55796051-3.461519-3.46151904-3.461519m-6.2307342 9.94369791v3.9023781h-.6923038c-.38353631 0-.6923038.2895214-.6923038.649104v.0863996c0 .3595826.30876749.649104.6923038.649104h8.3076456c.38353631 0 .6923038-.2895214.6923038-.649104v-.0863996c0-.3595826-.30876749-.649104-.6923038-.649104h-.6923038v-1.4278074c-2.47526301.188999-5.00964876-.6352579-6.923038-2.4745707" fill="#747e86" transform="translate(0 .5)"/></svg>