<svg height="19" viewBox="0 0 14 19" width="14" xmlns="http://www.w3.org/2000/svg"><path d="m13.1340274.00741332-8.49199134 1.21422959 1.21962985 1.21976833 6.55564899-.9357696-.9357696 6.55564895 1.2197683 1.21976832 1.2142296-8.49212981c.0725574-.50887145-.3895117-.8436881-.7815158-.78151578m-10.82601505.83814936c-2.97333242 2.97402475-2.97333242 7.79521825 0 10.76924302 2.97402475 2.9733324 7.79521825 2.9733324 10.76924305 0zm-.84645746 11.86715912v3.902594h-.69234211c-.38355753 0-.69234211.2895375-.69234211.6491399v.0864043c0 .3596025.30878458.64914.69234211.64914h8.30810528c.38355753 0 .69234211-.2895375.69234211-.64914v-.0864043c0-.3596024-.30878458-.6491399-.69234211-.6491399h-.6923421v-1.4278864c-2.47539997.1890094-5.00992596-.6352931-6.92342107-2.4747076" fill="#747e86" transform="translate(0 .5)"/></svg>