<svg height="18" viewBox="0 0 19 18" width="19" xmlns="http://www.w3.org/2000/svg"><path d="m7.33124024 14.0849349.37500187-.5625h-.95625l-1.125 1.6875h.35416688c.37614937 0 .727425-.1879875.93605625-.5009625l.04102537-.0615375h4.08751879l.0410253.0615375c.2086482.312975.5599069.5009625.9360563.5009625h.3541669l-1.125-1.6875h-.95625l.3750018.5625zm.19884375-7.87500002h2.93979371c.90675 0 1.6513875.71656875 1.6862625 1.62264375l.1739082 4.52159997c.0222862.5794951-.3977995 1.073387-.9587146 1.1561005l-.1438562.0119417-4.43342261.0002141c-.579915 0-1.057322-.4387607-1.11839886-1.0024188l-.00576993-.1658206.17390813-4.52160017c.03291306-.8557375.69896291-1.542455 1.53673222-1.61611578zm-.2607975 1.40623031c-.293265 0-.5373225.22532907-.56071125.51766032l-.13678875 1.73235656c0 .31065753.2518425.56250003.5625.56250003l3.75384621-.0004472.0224103-.0013416c.3096732-.0247736.5406244-.2958919.5158519-.60558748l-.135-1.6875c-.0233887-.29233125-.2674406-.51764063-.5607112-.51764063zm.04320281 4.78126971c.3106575 0 .5625-.2518425.5625-.5625s-.2518425-.5625-.5625-.5625-.5625.2518425-.5625.5625.2518425.5625.5625.5625zm3.375 0c.3106575 0 .5625-.2518425.5625-.5625s-.2518425-.5625-.5625-.5625-.5625.2518425-.5625.5625.2518425.5625.5625.5625zm-2.671875-5.62500002c-.07766437 0-.140625.06296062-.140625.140625s.06296063.140625.140625.140625h1.96875003c.07766437 0 .14062497-.06296062.14062497-.140625s-.0629606-.140625-.14062497-.140625zm-4.2392211-1.60024446 5.2236068-2.6118034 5.2236068 2.6118034c.2469892.12349462.3471014.42383114.2236068.67082039s-.4238311.34710142-.6708204.2236068l-4.7763932-2.3882136-4.7763932 2.3882136c-.219546.109773-.48124293.04286902-.62342158-.1468222l-.04739882-.0767846c-.12349462-.24698925-.02338245-.54732577.2236068-.67082039z" fill="#747e86" transform="translate(.6869)"/></svg>