<svg height="12" viewBox="0 0 12 12" width="12" xmlns="http://www.w3.org/2000/svg"><g fill="none"><rect fill="#fff" height="12" opacity=".6" rx="1.875" width="12"/><rect fill="#2f6499" height="11.00025" rx="1.5" width="11.00025" x=".500003" y=".500003"/><path d="m5.99901368 2.00028841.27959242.00206521c.38744508.01070897.71530435.05601616.94321322.09555697l.34033345.06354774c.21527778.10763889.32291667.37673612.26909723.64583333-.04783951.23919754-.26577504.39334706-.50261012.38685034l-.14510611-.01607672-.26690051-.05931123c-.11014942-.02259475-.23865707-.04236516-.37704993-.04236516v.484375h1.02256944c.5525463-.05023148 1.01132716.3683642 1.07004218.90572943l.16780505 4.09947891v.05381944l-.00636265.12691821c-.05893828.58134568-.52106791 1.00329012-1.12384568 1.00329012h-3.34023687c-.60277777 0-1.0649074-.42194444-1.12384568-1.00329012l-.00636265-.12691821v-.05381944l.16145834-3.98263889c0-.59201389.484375-1.07638889 1.07638889-1.02256945h1.02256944v-.484375c-.27678572 0-.51403061.07908163-.64395044.10167639l-.05570234.0059625c-.26909722.05381945-.53819444-.10763889-.59201389-.37673612-.05381944-.26909721.05381945-.53819444.26909723-.64583333l.34033345-.06354774.25973069-.03996795c.19337167-.02593341.42518581-.04844971.68348253-.05558902zm-1.61563943 6.02748937c-.26909722 0-.484375.21527778-.484375.484375s.21527778.484375.484375.484375.484375-.26909722.484375-.53819445c0-.26909721-.21527778-.43055555-.484375-.43055555zm3.23259797 0c-.26909722 0-.484375.16145834-.484375.43055555 0 .26909723.21527778.53819445.484375.53819445s.484375-.21527778.484375-.484375-.21527778-.484375-.484375-.484375zm-.26909722-3.65972222h-2.69440353c-.29356061 0-.54264233.2223944-.58550379.54587716l-.00651009.09995617-.05381946 1.56076389c0 .37673611.26909723.64583334.59201389.64583334h2.80204243c.32291666 0 .59201389-.26909723.59201389-.64583334l-.05381946-1.56076389-.00651009-.09995617c-.04286146-.32348276-.29194318-.54587716-.58550379-.54587716z" fill="#fff"/></g></svg>