<svg height="18" viewBox="0 0 18 18" width="18" xmlns="http://www.w3.org/2000/svg"><g fill="none"><rect fill="#fff" height="18" opacity=".6" rx="1.875" width="18"/><rect fill="#2f6499" height="16.5" rx="1.5" width="16.5" x=".75" y=".75"/><path d="m6.41350421 14.75c-.95 0-1.674375-.676875-1.7444375-1.6019375l-.0055625-.1480625v-.0833333l.25-6.1666667c0-.91666667.75-1.66666667 1.66666667-1.58333333h1.58333333v-.75c-.5 0-.91666667.16666666-1.08333333.16666666-.41666667.08333334-.83333334-.16666666-.91666667-.58333333s.08333333-.83333333.41666667-1l.11922451-.02060859c.27673179-.05556686.98917837-.2057297 1.91374923-.22689803l.38536266-.00204645-.00000307.26264718.00249272-.26264718.1683364-.00044693c1.24999997 0 2.16666667.25 2.24999997.25.3333334.16666667.5.58333333.4166667 1s-.5.66666667-.9166667.58333333c-.1666666 0-.5833333-.16666666-1.0833333-.16666666v.75h1.5833333c.8708334-.07916667 1.59125.59374999 1.6611146 1.44716666l.2555521 6.30283337v.0833333l-.0055625.1480625c-.0700625.9250625-.7944375 1.6019375-1.7444375 1.6019375zm.08333333-2.6666667c-.41666666 0-.75.3333334-.75.75 0 .4166667.33333334.75.75.75.41666667 0 .75-.4166666.75-.8333333s-.33333333-.6666667-.75-.6666667zm5.00582916 0c-.4166667 0-.75.25-.75.6666667s.3333333.8333333.75.8333333c.4166666 0 .75-.3333333.75-.75 0-.4166666-.3333334-.75-.75-.75zm-4.58916249-5.66666663c-.46428571 0-.85671769.3592687-.9104106.87764213l-.00625607.12235787-.08333333 2.41666666c0 .58333337.41666667.99999997.91666667.99999997h4.33916242c.5 0 .9166667-.4166666.9166667-.99999997l-.0833333-2.41666666-.0062561-.12235787c-.0536929-.51837343-.4461249-.87764213-.9104106-.87764213z" fill="#fff"/></g></svg>