<svg height="15" viewBox="0 0 15 15" width="15" xmlns="http://www.w3.org/2000/svg"><g fill="none" transform="translate(.0562 .4152)"><path d="m7.76536687 1.02582924 2.91781373 1.20859801c.4900562.20298792.8794043.59233606 1.0823922 1.08239221l1.208598 2.91781372c.2029879.49005615.2029879 1.04067751 0 1.5307337l-1.208598 2.91781362c-.2029879.4900562-.5923361.8794044-1.0823922 1.0823923l-2.91781376 1.208598c-.49005615.2029879-1.04067751.2029879-1.53073369 0l-2.91781366-1.208598c-.49005618-.2029879-.87940432-.592336-1.08239223-1.0823922l-1.20859802-2.91781373c-.2029879-.49005617-.2029879-1.04067755.00000001-1.53073373l1.208598-2.91781368c.20298791-.49005618.59233603-.8794043 1.0823922-1.0823922l2.9178137-1.20859802c.49005617-.2029879 1.04067755-.2029879 1.53073372 0z" fill="#f5eada"/><path d="m7.57402516 1.48776901 2.91781374 1.20859801c.3675421.15224093.6595532.44425202.8117941.81179415l1.208598 2.91781369c.1522409.36754213.1522409.78050817 0 1.1480503l-1.208598 2.91781374c-.1522409.3675421-.444252.6595532-.8117941.8117941l-2.91781374 1.208598c-.36754213.1522409-.78050817.1522409-1.1480503 0l-2.91781369-1.208598c-.36754213-.1522409-.65955322-.444252-.81179415-.8117941l-1.20859801-2.91781374c-.15224093-.36754213-.15224093-.78050817 0-1.1480503l1.20859801-2.91781369c.15224093-.36754213.44425202-.65955322.81179415-.81179415l2.91781369-1.20859801c.36754213-.15224093.78050817-.15224093 1.1480503 0z" fill="#a2ba4e" fill-rule="evenodd"/></g></svg>