<svg height="12" viewBox="0 0 12 12" width="12" xmlns="http://www.w3.org/2000/svg"><path d="m6.57402515.487769 2.91781369 1.20859801c.36754213.15224093.65955326.44425202.81179416.81179415l1.208598 2.91781369c.1522409.36754213.1522409.78050817 0 1.1480503l-1.208598 2.91781369c-.1522409.36754213-.44425203.65955326-.81179416.81179416l-2.91781369 1.208598c-.36754213.1522409-.78050817.1522409-1.1480503 0l-2.91781369-1.208598c-.36754213-.1522409-.65955322-.44425203-.81179415-.81179416l-1.20859801-2.91781369c-.15224093-.36754213-.15224093-.78050817 0-1.1480503l1.20859801-2.91781369c.15224093-.36754213.44425202-.65955322.81179415-.81179415l2.91781369-1.20859801c.36754213-.15224093.78050817-.15224093 1.1480503 0z" fill="#a2ba4e" fill-rule="evenodd"/></svg>