<?xml version="1.0" encoding="UTF-8"?>
<!--Generator: Apple Native CoreSVG 341-->
<!DOCTYPE svg
PUBLIC "-//W3C//DTD SVG 1.1//EN"
       "http://www.w3.org/Graphics/SVG/1.1/DTD/svg11.dtd">
<svg version="1.1" xmlns="http://www.w3.org/2000/svg" xmlns:xlink="http://www.w3.org/1999/xlink" viewBox="0 0 3300 2200">
 <!--glyph: "", point size: 100.0, font version: "21.1d1e1", template writer version: "138.0.0"-->
 <style>.defaults {-sfsymbols-variable-value-mode:color;-sfsymbols-draw-reverses-motion-groups:true}

.monochrome-0 {-sfsymbols-motion-group:0;-sfsymbols-layer-tags:-43ad48af780294d4}

.multicolor-0:tintColor {-sfsymbols-motion-group:0;-sfsymbols-layer-tags:-43ad48af780294d4}

.hierarchical-0:primary {-sfsymbols-motion-group:0;-sfsymbols-layer-tags:-43ad48af780294d4}

.SFSymbolsPreviewWireframe {fill:none;opacity:1.0;stroke:black;stroke-width:0.5}
</style>
 <g id="Notes">
  <rect height="2200" id="artboard" style="fill:white;opacity:1" width="3300" x="0" y="0"/>
  <line style="fill:none;stroke:black;opacity:1;stroke-width:0.5;" x1="263" x2="3036" y1="292" y2="292"/>
  <text style="stroke:none;fill:black;font-family:sans-serif;font-size:13;font-weight:bold;" transform="matrix(1 0 0 1 263 322)">Weight/Scale Variations</text>
  <text style="stroke:none;fill:black;font-family:sans-serif;font-size:13;text-anchor:middle;" transform="matrix(1 0 0 1 559.711 322)">Ultralight</text>
  <text style="stroke:none;fill:black;font-family:sans-serif;font-size:13;text-anchor:middle;" transform="matrix(1 0 0 1 856.422 322)">Thin</text>
  <text style="stroke:none;fill:black;font-family:sans-serif;font-size:13;text-anchor:middle;" transform="matrix(1 0 0 1 1153.13 322)">Light</text>
  <text style="stroke:none;fill:black;font-family:sans-serif;font-size:13;text-anchor:middle;" transform="matrix(1 0 0 1 1449.84 322)">Regular</text>
  <text style="stroke:none;fill:black;font-family:sans-serif;font-size:13;text-anchor:middle;" transform="matrix(1 0 0 1 1746.56 322)">Medium</text>
  <text style="stroke:none;fill:black;font-family:sans-serif;font-size:13;text-anchor:middle;" transform="matrix(1 0 0 1 2043.27 322)">Semibold</text>
  <text style="stroke:none;fill:black;font-family:sans-serif;font-size:13;text-anchor:middle;" transform="matrix(1 0 0 1 2339.98 322)">Bold</text>
  <text style="stroke:none;fill:black;font-family:sans-serif;font-size:13;text-anchor:middle;" transform="matrix(1 0 0 1 2636.69 322)">Heavy</text>
  <text style="stroke:none;fill:black;font-family:sans-serif;font-size:13;text-anchor:middle;" transform="matrix(1 0 0 1 2933.4 322)">Black</text>
  <line style="fill:none;stroke:black;opacity:1;stroke-width:0.5;" x1="263" x2="3036" y1="1903" y2="1903"/>
  <g transform="matrix(0.2 0 0 0.2 263 1933)">
   <path d="m46.2402 4.15039c21.7773 0 39.4531-17.627 39.4531-39.4043s-17.6758-39.4043-39.4531-39.4043c-21.7285 0-39.4043 17.627-39.4043 39.4043s17.6758 39.4043 39.4043 39.4043Zm0-7.42188c-17.6758 0-31.9336-14.3066-31.9336-31.9824s14.2578-31.9824 31.9336-31.9824 31.9824 14.3066 31.9824 31.9824-14.3066 31.9824-31.9824 31.9824Zm3.61328-17.7734v-28.4668c0-2.24609-1.46484-3.75977-3.71094-3.75977-2.14844 0-3.61328 1.51367-3.61328 3.75977v28.4668c0 2.19727 1.46484 3.71094 3.61328 3.71094 2.24609 0 3.71094-1.51367 3.71094-3.71094Zm-17.8223-10.5957h28.418c2.19727 0 3.71094-1.46484 3.71094-3.61328 0-2.19727-1.51367-3.71094-3.71094-3.71094h-28.418c-2.24609 0-3.75977 1.51367-3.75977 3.71094 0 2.14844 1.51367 3.61328 3.75977 3.61328Z"/>
  </g>
  <g transform="matrix(0.2 0 0 0.2 281.506 1933)">
   <path d="m58.5449 14.5508c27.4902 0 49.8047-22.3145 49.8047-49.8047s-22.3145-49.8047-49.8047-49.8047-49.8047 22.3145-49.8047 49.8047 22.3145 49.8047 49.8047 49.8047Zm0-8.30078c-22.9492 0-41.5039-18.5547-41.5039-41.5039s18.5547-41.5039 41.5039-41.5039 41.5039 18.5547 41.5039 41.5039-18.5547 41.5039-41.5039 41.5039Zm4.05273-23.0957v-36.9141c0-2.49023-1.70898-4.19922-4.15039-4.19922-2.39258 0-4.05273 1.70898-4.05273 4.19922v36.9141c0 2.44141 1.66016 4.15039 4.05273 4.15039 2.44141 0 4.15039-1.66016 4.15039-4.15039Zm-22.5586-14.4043h36.9629c2.44141 0 4.15039-1.61133 4.15039-4.00391 0-2.44141-1.70898-4.15039-4.15039-4.15039h-36.9629c-2.49023 0-4.15039 1.70898-4.15039 4.15039 0 2.39258 1.66016 4.00391 4.15039 4.00391Z"/>
  </g>
  <g transform="matrix(0.2 0 0 0.2 304.924 1933)">
   <path d="m74.8535 28.3203c35.1074 0 63.623-28.4668 63.623-63.5742s-28.5156-63.623-63.623-63.623-63.5742 28.5156-63.5742 63.623 28.4668 63.5742 63.5742 63.5742Zm0-9.08203c-30.127 0-54.4922-24.3652-54.4922-54.4922s24.3652-54.4922 54.4922-54.4922 54.4922 24.3652 54.4922 54.4922-24.3652 54.4922-54.4922 54.4922Zm4.44336-30.3223v-48.4863c0-2.73438-1.85547-4.63867-4.54102-4.63867-2.58789 0-4.44336 1.9043-4.44336 4.63867v48.4863c0 2.68555 1.85547 4.58984 4.44336 4.58984 2.68555 0 4.54102-1.85547 4.54102-4.58984Zm-28.7109-19.7754h48.4863c2.68555 0 4.58984-1.80664 4.58984-4.39453 0-2.73438-1.85547-4.58984-4.58984-4.58984h-48.4863c-2.73438 0-4.58984 1.85547-4.58984 4.58984 0 2.58789 1.85547 4.39453 4.58984 4.39453Z"/>
  </g>
  <text style="stroke:none;fill:black;font-family:sans-serif;font-size:13;font-weight:bold;" transform="matrix(1 0 0 1 263 1953)">Design Variations</text>
  <text style="stroke:none;fill:black;font-family:sans-serif;font-size:13;" transform="matrix(1 0 0 1 263 1971)">Symbols are supported in up to nine weights and three scales.</text>
  <text style="stroke:none;fill:black;font-family:sans-serif;font-size:13;" transform="matrix(1 0 0 1 263 1989)">For optimal layout with text and other symbols, vertically align</text>
  <text style="stroke:none;fill:black;font-family:sans-serif;font-size:13;" transform="matrix(1 0 0 1 263 2007)">symbols with the adjacent text.</text>
  <line style="fill:none;stroke:#00AEEF;stroke-width:0.5;opacity:1.0;" x1="776" x2="776" y1="1919" y2="1933"/>
  <g transform="matrix(0.2 0 0 0.2 776 1933)">
   <path d="m16.5527 0.78125c2.58789 0 3.85742-0.976562 4.78516-3.71094l20.5566-57.5195h0.244141l20.6055 57.5195c0.927734 2.73438 2.19727 3.71094 4.73633 3.71094 2.58789 0 4.24805-1.5625 4.24805-4.00391 0-0.830078-0.146484-1.61133-0.537109-2.63672l-22.9004-60.9863c-1.12305-2.97852-3.125-4.49219-6.25-4.49219-3.02734 0-5.07812 1.46484-6.15234 4.44336l-22.9004 61.084c-0.390625 1.02539-0.537109 1.80664-0.537109 2.63672 0 2.44141 1.5625 3.95508 4.10156 3.95508Zm10.2051-20.9473h30.6641c2.00195 0 3.66211-1.66016 3.66211-3.66211 0-2.05078-1.66016-3.66211-3.66211-3.66211h-30.6641c-2.00195 0-3.66211 1.61133-3.66211 3.66211 0 2.00195 1.66016 3.66211 3.66211 3.66211Z"/>
  </g>
  <line style="fill:none;stroke:#00AEEF;stroke-width:0.5;opacity:1.0;" x1="792.836" x2="792.836" y1="1919" y2="1933"/>
  <text style="stroke:none;fill:black;font-family:sans-serif;font-size:13;font-weight:bold;" transform="matrix(1 0 0 1 776 1953)">Margins</text>
  <text style="stroke:none;fill:black;font-family:sans-serif;font-size:13;" transform="matrix(1 0 0 1 776 1971)">Leading and trailing margins on the left and right side of each symbol</text>
  <text style="stroke:none;fill:black;font-family:sans-serif;font-size:13;" transform="matrix(1 0 0 1 776 1989)">can be adjusted by modifying the x-location of the margin guidelines.</text>
  <text style="stroke:none;fill:black;font-family:sans-serif;font-size:13;" transform="matrix(1 0 0 1 776 2007)">Modifications are automatically applied proportionally to all</text>
  <text style="stroke:none;fill:black;font-family:sans-serif;font-size:13;" transform="matrix(1 0 0 1 776 2025)">scales and weights.</text>
  <g transform="matrix(0.2 0 0 0.2 1289 1933)">
   <path d="m14.209 13.1348 7.86133 7.86133c4.29688 4.39453 9.32617 4.10156 13.8672-1.02539l60.6934-68.2129-4.88281-4.88281-60.2539 67.6758c-1.80664 1.95312-3.4668 2.44141-5.81055 0.0976562l-5.17578-5.12695c-2.29492-2.29492-1.80664-3.95508 0.195312-5.81055l67.4805-62.1582-4.88281-4.83398-68.0664 62.5977c-4.98047 4.58984-5.32227 9.47266-1.02539 13.8184Zm44.873-97.4609c-2.05078 2.00195-2.24609 4.88281-1.07422 6.78711 1.12305 1.80664 3.4668 3.02734 6.5918 2.24609 5.85938-1.66016 12.5977-2.39258 18.8965 0.927734l-2.68555 7.12891c-1.61133 4.00391-0.732422 6.88477 1.70898 9.42383l10.2539 10.3027c2.34375 2.39258 4.54102 2.44141 7.08008 1.95312l4.44336-0.732422 2.58789 2.53906-0.195312 2.24609c-0.0976562 2.29492 0.537109 4.29688 2.7832 6.49414l3.36914 3.32031c2.29492 2.29492 5.51758 2.49023 7.8125 0.195312l12.9883-13.0371c2.29492-2.34375 2.14844-5.37109-0.195312-7.66602l-3.41797-3.41797c-2.19727-2.19727-4.05273-3.02734-6.34766-2.88086l-2.34375 0.244141-2.44141-2.44141 1.02539-4.6875c0.634766-2.73438-0.244141-4.98047-2.88086-7.61719l-11.2793-11.1816c-12.9395-12.8418-35.5957-11.0352-46.6797-0.146484Zm7.08008 2.05078c8.78906-6.39648 25.9766-5.66406 33.6914 1.95312l12.3047 12.207c1.02539 1.02539 1.2207 1.80664 0.927734 3.32031l-1.46484 6.64062 6.73828 6.68945 4.39453-0.244141c1.12305-0.0488281 1.51367 0.0488281 2.34375 0.878906l2.53906 2.49023-10.8398 10.8398-2.49023-2.49023c-0.830078-0.878906-0.976562-1.2207-0.927734-2.39258l0.292969-4.3457-6.68945-6.73828-6.83594 1.17188c-1.41602 0.292969-2.05078 0.195312-3.17383-0.878906l-8.93555-8.88672c-1.07422-1.02539-1.17188-1.70898-0.488281-3.36914l4.58984-11.4746c-6.10352-6.34766-17.041-7.51953-25.5859-4.58984-0.683594 0.244141-0.927734-0.390625-0.390625-0.78125Z"/>
  </g>
  <text style="stroke:none;fill:black;font-family:sans-serif;font-size:13;font-weight:bold;" transform="matrix(1 0 0 1 1289 1953)">Exporting</text>
  <text style="stroke:none;fill:black;font-family:sans-serif;font-size:13;" transform="matrix(1 0 0 1 1289 1971)">Symbols should be outlined when exporting to ensure the</text>
  <text style="stroke:none;fill:black;font-family:sans-serif;font-size:13;" transform="matrix(1 0 0 1 1289 1989)">design is preserved when submitting to Xcode.</text>
  <text id="template-version" style="stroke:none;fill:black;font-family:sans-serif;font-size:13;text-anchor:end;" transform="matrix(1 0 0 1 3036 1933)">Template v.7.0</text>
  <text style="stroke:none;fill:black;font-family:sans-serif;font-size:13;text-anchor:end;" transform="matrix(1 0 0 1 3036 1951)">Requires Xcode 26 or greater</text>
  <text id="descriptive-name" style="stroke:none;fill:black;font-family:sans-serif;font-size:13;text-anchor:end;" transform="matrix(1 0 0 1 3036 1969)">Generated from outdoorseating</text>
  <text style="stroke:none;fill:black;font-family:sans-serif;font-size:13;text-anchor:end;" transform="matrix(1 0 0 1 3036 1987)">Typeset at 100.0 points</text>
  <text style="stroke:none;fill:black;font-family:sans-serif;font-size:13;" transform="matrix(1 0 0 1 263 726)">Small</text>
  <text style="stroke:none;fill:black;font-family:sans-serif;font-size:13;" transform="matrix(1 0 0 1 263 1156)">Medium</text>
  <text style="stroke:none;fill:black;font-family:sans-serif;font-size:13;" transform="matrix(1 0 0 1 263 1586)">Large</text>
 </g>
 <g id="Guides">
  <g id="H-reference" style="fill:#27AAE1;stroke:none;" transform="matrix(1 0 0 1 339 696)">
   <path d="M0.993654 0L3.63775 0L29.3281-67.1323L30.0303-67.1323L30.0303-70.459L28.1226-70.459ZM11.6885-24.4799L46.9815-24.4799L46.2315-26.7285L12.4385-26.7285ZM55.1196 0L57.7637 0L30.6382-70.459L29.4326-70.459L29.4326-67.1323Z"/>
  </g>
  <line id="Baseline-S" style="fill:none;stroke:#27AAE1;opacity:1;stroke-width:0.5;" x1="263" x2="3036" y1="696" y2="696"/>
  <line id="Capline-S" style="fill:none;stroke:#27AAE1;opacity:1;stroke-width:0.5;" x1="263" x2="3036" y1="625.541" y2="625.541"/>
  <g id="H-reference" style="fill:#27AAE1;stroke:none;" transform="matrix(1 0 0 1 339 1126)">
   <path d="M0.993654 0L3.63775 0L29.3281-67.1323L30.0303-67.1323L30.0303-70.459L28.1226-70.459ZM11.6885-24.4799L46.9815-24.4799L46.2315-26.7285L12.4385-26.7285ZM55.1196 0L57.7637 0L30.6382-70.459L29.4326-70.459L29.4326-67.1323Z"/>
  </g>
  <line id="Baseline-M" style="fill:none;stroke:#27AAE1;opacity:1;stroke-width:0.5;" x1="263" x2="3036" y1="1126" y2="1126"/>
  <line id="Capline-M" style="fill:none;stroke:#27AAE1;opacity:1;stroke-width:0.5;" x1="263" x2="3036" y1="1055.54" y2="1055.54"/>
  <g id="H-reference" style="fill:#27AAE1;stroke:none;" transform="matrix(1 0 0 1 339 1556)">
   <path d="M0.993654 0L3.63775 0L29.3281-67.1323L30.0303-67.1323L30.0303-70.459L28.1226-70.459ZM11.6885-24.4799L46.9815-24.4799L46.2315-26.7285L12.4385-26.7285ZM55.1196 0L57.7637 0L30.6382-70.459L29.4326-70.459L29.4326-67.1323Z"/>
  </g>
  <line id="Baseline-L" style="fill:none;stroke:#27AAE1;opacity:1;stroke-width:0.5;" x1="263" x2="3036" y1="1556" y2="1556"/>
  <line id="Capline-L" style="fill:none;stroke:#27AAE1;opacity:1;stroke-width:0.5;" x1="263" x2="3036" y1="1485.54" y2="1485.54"/>
  <line id="right-margin-Black-S" style="fill:none;stroke:#00AEEF;stroke-width:0.5;opacity:1.0;" x1="2981.3" x2="2981.3" y1="600.785" y2="720.121"/>
  <line id="left-margin-Black-S" style="fill:none;stroke:#00AEEF;stroke-width:0.5;opacity:1.0;" x1="2885.5" x2="2885.5" y1="600.785" y2="720.121"/>
  <line id="right-margin-Regular-S" style="fill:none;stroke:#00AEEF;stroke-width:0.5;opacity:1.0;" x1="1495.18" x2="1495.18" y1="600.785" y2="720.121"/>
  <line id="left-margin-Regular-S" style="fill:none;stroke:#00AEEF;stroke-width:0.5;opacity:1.0;" x1="1404.51" x2="1404.51" y1="600.785" y2="720.121"/>
  <line id="right-margin-Ultralight-S" style="fill:none;stroke:#00AEEF;stroke-width:0.5;opacity:1.0;" x1="603.073" x2="603.073" y1="600.785" y2="720.121"/>
  <line id="left-margin-Ultralight-S" style="fill:none;stroke:#00AEEF;stroke-width:0.5;opacity:1.0;" x1="516.35" x2="516.35" y1="600.785" y2="720.121"/>
 </g>
 <g id="Symbols">
  <g id="Black-S" transform="matrix(1 0 0 1 2885.5 696)">
   <path class="monochrome-0 multicolor-0:tintColor hierarchical-0:primary SFSymbolsPreviewWireframe" d="M68.3002-31.2568C68.6136-31.2568 68.8677-31.0049 68.8677-30.6942L68.8677-23.9423L68.8585-23.8412C68.8105-23.5787 68.5788-23.3797 68.3002-23.3797L52.9805-23.3798L52.9803 2.31821C52.9803 2.62895 52.7263 2.88086 52.4129 2.88086L43.3879 2.88086C43.0745 2.88086 42.8205 2.62895 42.8205 2.31821L42.8204-23.3798L27.5006-23.3797C27.222-23.3797 26.9903-23.5787 26.9423-23.8412L26.9331-23.9423L26.9331-30.6942C26.9331-31.0049 27.1872-31.2568 27.5006-31.2568L68.3002-31.2568ZM13.2167-34.1169L16.1935-17.3751L33.9225-17.3747C34.2359-17.3747 34.49-17.1228 34.49-16.812L34.49 2.31821C34.49 2.62895 34.2359 2.88086 33.9225 2.88086L30.5177 2.88086C30.2043 2.88086 29.9502 2.62895 29.9502 2.31821L29.9501-11.7486L16.3308-11.7486L16.331 2.31821C16.331 2.59442 16.1302 2.82415 15.8655 2.87179L15.7635 2.88086L12.3587 2.88086C12.0453 2.88086 11.7912 2.62895 11.7912 2.31821L11.7911-16.2453L11.7737-16.31L8.74595-33.3353C8.69152-33.6413 8.89761-33.9331 9.20625-33.9871L12.5594-34.5733C12.868-34.6273 13.1623-34.4229 13.2167-34.1169ZM83.1394-34.5819L83.2415-34.5733L86.5946-33.9871C86.9032-33.9331 87.1093-33.6413 87.0549-33.3353L84.0272-16.31L84.0098-16.2453L84.0096 2.31821C84.0096 2.62895 83.7556 2.88086 83.4422 2.88086L80.0373 2.88086L79.9353 2.87179C79.6706 2.82415 79.4699 2.59442 79.4699 2.31821L79.47-11.7486L65.8507-11.7486L65.8506 2.31821C65.8506 2.62895 65.5965 2.88086 65.2831 2.88086L61.8783 2.88086C61.5649 2.88086 61.3108 2.62895 61.3108 2.31821L61.3108-16.812C61.3108-17.1228 61.5649-17.3747 61.8783-17.3747L79.6073-17.3751L82.5841-34.1169C82.6325-34.3889 82.8704-34.5806 83.1394-34.5819ZM50.0295-53.0321L50.0295-33.3489L45.7713-33.3489L45.7713-53.0321L46.9994-52.989C47.3543-52.9794 47.6546-52.9746 47.9004-52.9746L48.31-52.9782C48.7605-52.9854 49.3337-53.0034 50.0295-53.0321ZM48.9057-73.1446L83.7226-55.087C84.0042-54.9409 84.121-54.5801 83.9835-54.281C83.8883-54.0741 83.6904-53.9429 83.4736-53.9429L12.3456-53.9429C12.0322-53.9429 11.7782-54.2127 11.7782-54.5455C11.7782-54.7758 11.9018-54.9859 12.0966-55.087L46.9135-73.1446C47.4792-73.438 48.1312-73.4674 48.7142-73.2327L48.9057-73.1446Z"/>
  </g>
  <g id="Regular-S" transform="matrix(1 0 0 1 1404.51 696)">
   <path class="monochrome-0 multicolor-0:tintColor hierarchical-0:primary SFSymbolsPreviewWireframe" d="M64.378-31.4747C64.6705-31.4747 64.9077-31.2396 64.9077-30.9496L64.9077-24.6474L64.8991-24.553C64.8543-24.308 64.638-24.1222 64.378-24.1222L50.0786-24.1223L50.0785-0.135978C50.0785 0.15407 49.8413 0.3892 49.5488 0.3892L41.125 0.3892C40.8325 0.3892 40.5953 0.15407 40.5953-0.135978L40.5952-24.1223L26.2958-24.1222C26.0358-24.1222 25.8195-24.308 25.7747-24.553L25.7662-24.6474L25.7662-30.9496C25.7662-31.2396 26.0033-31.4747 26.2958-31.4747L64.378-31.4747ZM12.9634-34.1443L15.7419-18.5176L32.29-18.5172C32.5826-18.5172 32.8197-18.2821 32.8197-17.992L32.8197-0.135978C32.8197 0.15407 32.5826 0.3892 32.29 0.3892L29.112 0.3892C28.8195 0.3892 28.5823 0.15407 28.5823-0.135978L28.5822-13.2658L15.87-13.2658L15.8702-0.135978C15.8702 0.121842 15.6828 0.336271 15.4357 0.380739L15.3405 0.3892L12.1624 0.3892C11.8699 0.3892 11.6328 0.15407 11.6328-0.135978L11.6326-17.4631L11.6164-17.5234L8.79035-33.4147C8.73955-33.7004 8.93191-33.9728 9.22-34.0231L12.3498-34.5703C12.6378-34.6207 12.9126-34.43 12.9634-34.1443ZM78.2288-34.5784L78.3241-34.5703L81.4538-34.0231C81.7419-33.9728 81.9343-33.7004 81.8835-33.4147L79.0574-17.5234L79.0412-17.4631L79.0411-0.135978C79.0411 0.15407 78.8039 0.3892 78.5114 0.3892L75.3333 0.3892L75.2381 0.380739C74.991 0.336271 74.8037 0.121842 74.8037-0.135978L74.8038-13.2658L62.0916-13.2658L62.0915-0.135978C62.0915 0.15407 61.8544 0.3892 61.5618 0.3892L58.3838 0.3892C58.0912 0.3892 57.8541 0.15407 57.8541-0.135978L57.8541-17.992C57.8541-18.2821 58.0912-18.5172 58.3838-18.5172L74.932-18.5176L77.7105-34.1443C77.7556-34.3982 77.9777-34.5771 78.2288-34.5784ZM47.3242-51.7997L47.3242-33.4274L43.3496-33.4274L43.3496-51.7997L44.4959-51.7594C44.8271-51.7505 45.1075-51.746 45.3369-51.746L45.7192-51.7494C46.1397-51.7561 46.6747-51.7728 47.3242-51.7997ZM46.2753-70.5726L78.7731-53.7177C79.036-53.5814 79.145-53.2445 79.0167-52.9654C78.9278-52.7722 78.7431-52.6497 78.5407-52.6497L12.1503-52.6497C11.8577-52.6497 11.6206-52.9016 11.6206-53.2122C11.6206-53.4272 11.736-53.6234 11.9178-53.7177L44.4157-70.5726C44.9438-70.8464 45.5523-70.8738 46.0965-70.6547L46.2753-70.5726Z"/>
  </g>
  <g id="Ultralight-S" transform="matrix(1 0 0 1 516.35 696)">
   <path class="monochrome-0 multicolor-0:tintColor hierarchical-0:primary SFSymbolsPreviewWireframe" d="M61.3359-31.7317C61.6121-31.7317 61.8359-31.5097 61.8359-31.2359L61.8359-25.2868L61.8279-25.1977C61.7856-24.9664 61.5814-24.7911 61.3359-24.7911L47.8377-24.7911L47.8376-2.14858C47.8376-1.87478 47.6137-1.65282 47.3376-1.65282L39.3857-1.65282C39.1095-1.65282 38.8857-1.87478 38.8857-2.14858L38.8856-24.7911L25.3873-24.7911C25.1418-24.7911 24.9377-24.9664 24.8953-25.1977L24.8873-25.2868L24.8873-31.2359C24.8873-31.5097 25.1111-31.7317 25.3873-31.7317L61.3359-31.7317ZM12.8017-34.2517L15.4246-19.5004L31.0457-19.5C31.3218-19.5 31.5457-19.2781 31.5457-19.0043L31.5457-2.14858C31.5457-1.87478 31.3218-1.65282 31.0457-1.65282L28.0457-1.65282C27.7695-1.65282 27.5457-1.87478 27.5457-2.14858L27.5456-14.5429L15.5456-14.5429L15.5457-2.14858C15.5457-1.9052 15.3688-1.70278 15.1355-1.66081L15.0457-1.65282L12.0457-1.65282C11.7695-1.65282 11.5457-1.87478 11.5457-2.14858L11.5456-18.505L11.5302-18.5619L8.86249-33.563C8.81454-33.8326 8.99612-34.0897 9.26807-34.1373L12.2225-34.6538C12.4944-34.7013 12.7538-34.5213 12.8017-34.2517ZM74.4108-34.6614L74.5007-34.6538L77.4552-34.1373C77.7271-34.0897 77.9087-33.8326 77.8607-33.563L75.193-18.5619L75.1777-18.505L75.1776-2.14858C75.1776-1.87478 74.9537-1.65282 74.6776-1.65282L71.6776-1.65282L71.5877-1.66081C71.3544-1.70278 71.1776-1.9052 71.1776-2.14858L71.1777-14.5429L59.1777-14.5429L59.1776-2.14858C59.1776-1.87478 58.9537-1.65282 58.6776-1.65282L55.6776-1.65282C55.4014-1.65282 55.1776-1.87478 55.1776-2.14858L55.1776-19.0043C55.1776-19.2781 55.4014-19.5 55.6776-19.5L71.2987-19.5004L73.9215-34.2517C73.9641-34.4913 74.1738-34.6602 74.4108-34.6614ZM45.2376-50.9179L45.2376-33.5749L41.4857-33.5749L41.4857-50.9179L42.5677-50.8799C42.8804-50.8715 43.145-50.8673 43.3616-50.8673L43.7225-50.8704C44.1194-50.8768 44.6245-50.8926 45.2376-50.9179ZM44.2474-68.6391L74.9247-52.7285C75.1728-52.5998 75.2757-52.2819 75.1545-52.0183C75.0707-51.836 74.8963-51.7204 74.7052-51.7204L12.0342-51.7204C11.758-51.7204 11.5342-51.9581 11.5342-52.2514C11.5342-52.4543 11.6431-52.6394 11.8148-52.7285L42.492-68.6391C42.9905-68.8976 43.5649-68.9235 44.0786-68.7167L44.2474-68.6391Z"/>
  </g>
 </g>
</svg>
