<svg xmlns="http://www.w3.org/2000/svg" width="128" height="128" viewBox="0 0 33.87 33.87">
  <defs>
    <clipPath id="a" clipPathUnits="userSpaceOnUse"><path stroke-width=".12" d="M1107.75 550.82a2.33 2.33 0 0 1-.71 3.44 48.65 48.65 0 0 1-72.22-42.52 48.65 48.65 0 0 1 70.26-43.55 2.33 2.33 0 0 1 .81 3.49l-4.94 6.5a2.3 2.3 0 0 1-2.81.71 36 36 0 0 0-50.68 32.85 36 36 0 0 0 52.47 31.98c1-.52 2.24-.24 2.93.66z"/>
    </clipPath>
  </defs>
  <circle cx="16.93" cy="16.93" r="15.74" fill="#148ae4" fill-rule="evenodd"/>
  <path fill="#5aadea" fill-rule="evenodd" stroke="#def0fb" stroke-dasharray=".24 .12" stroke-width="3.8" d="M1107.75 550.82a2.33 2.33 0 0 1-.71 3.44 48.65 48.65 0 0 1-72.22-42.52 48.65 48.65 0 0 1 70.26-43.55 2.33 2.33 0 0 1 .81 3.49l-4.94 6.5a2.3 2.3 0 0 1-2.81.71 36 36 0 0 0-50.68 32.85 36 36 0 0 0 52.47 31.98c1-.52 2.24-.24 2.93.66z" clip-path="url(#a)" transform="translate(-269.74 -118.53)scale(.26458)"/>
  <path fill="#3a9fea" fill-rule="evenodd" stroke="#94d0f8" stroke-width=".5" d="M26.05 8.36q.16 0 .29.12a12.6 12.6 0 0 1 .37 16.33.36.36 0 0 1-.57-.01l-1.31-1.72-.02-.02a.4.4 0 0 1 0-.44 9.7 9.7 0 0 0-.33-11.94.36.36 0 0 1-.01-.46l.68-.9.05-.06.51-.68.06-.08a.4.4 0 0 1 .28-.14zm-5.18 3.26h.01a.4.4 0 0 1 .34.26q.03.1 0 .21l-1.46 4.8-.07.22-1.46 4.8a.36.36 0 0 1-.69.05l-.38-.87-.04-.1-1.15-2.6-2.8-.42-.1-.01-.95-.14a.37.37 0 0 1-.14-.67l8.7-5.47a.4.4 0 0 1 .2-.06z"/>
</svg>
