<svg xmlns="http://www.w3.org/2000/svg" width="128" height="128" viewBox="0 0 33.867 33.867">
  <circle cx="16.933" cy="16.933" r="15.744" fill="#588157"/>
  <path fill="#ccdfca" d="M25.574 8.345a.615.615 0 0 1 .947-.04 12.8 12.8 0 0 1 3.25 8.536 12.8 12.8 0 0 1-2.869 8.087.615.615 0 0 1-.962-.018l-1.322-1.74a.615.615 0 0 1-.007-.739 9.44 9.44 0 0 0 1.824-5.59 9.45 9.45 0 0 0-2.15-6.015.615.615 0 0 1-.015-.762zM12.112 18.04a.615.615 0 0 1-.237-1.128l8.671-5.455a.615.615 0 0 1 .92.698l-2.983 9.806a.615.615 0 0 1-1.153.068l-1.513-3.43z"/>
  <path fill="#fefdf6" d="M23.354 27.16a.615.615 0 0 1-.19.91 12.844 12.844 0 0 1-19.07-11.228A12.844 12.844 0 0 1 22.647 5.344a.615.615 0 0 1 .215.922l-1.304 1.716a.615.615 0 0 1-.744.188 9.502 9.502 0 1 0 .473 17.118.615.615 0 0 1 .772.172z"/>
</svg>
