<?xml version="1.0" encoding="UTF-8"?>
<!--Generator: Apple Native CoreSVG 341-->
<!DOCTYPE svg
PUBLIC "-//W3C//DTD SVG 1.1//EN"
       "http://www.w3.org/Graphics/SVG/1.1/DTD/svg11.dtd">
<svg version="1.1" xmlns="http://www.w3.org/2000/svg" xmlns:xlink="http://www.w3.org/1999/xlink" viewBox="0 0 3300 2200">
 <!--glyph: "", point size: 100.0, font version: "21.0d6e2", template writer version: "138.0.0"-->
 <style>.defaults {-sfsymbols-variable-value-mode:color;-sfsymbols-draw-reverses-motion-groups:true}

.monochrome-0 {-sfsymbols-motion-group:1;-sfsymbols-layer-tags:-1caaec6195ace3a5 -5583122f65788420}
.monochrome-1 {opacity:0.0;-sfsymbols-clear-behind:true;-sfsymbols-motion-group:0;-sfsymbols-layer-tags:-5583122f65788420 _slash}
.monochrome-2 {-sfsymbols-motion-group:0;-sfsymbols-layer-tags:-5583122f65788420 _slash}

.multicolor-0:tintColor {-sfsymbols-motion-group:1;-sfsymbols-layer-tags:-1caaec6195ace3a5 -5583122f65788420}
.multicolor-1:tintColor {opacity:0.0;-sfsymbols-clear-behind:true;-sfsymbols-motion-group:0;-sfsymbols-layer-tags:-5583122f65788420 _slash}
.multicolor-2:tintColor {-sfsymbols-motion-group:0;-sfsymbols-layer-tags:-5583122f65788420 _slash}

.hierarchical-0:secondary {-sfsymbols-motion-group:1;-sfsymbols-layer-tags:-1caaec6195ace3a5 -5583122f65788420}
.hierarchical-1:primary {opacity:0.0;-sfsymbols-clear-behind:true;-sfsymbols-motion-group:0;-sfsymbols-layer-tags:-5583122f65788420 _slash}
.hierarchical-2:primary {-sfsymbols-motion-group:0;-sfsymbols-layer-tags:-5583122f65788420 _slash}

.SFSymbolsPreviewWireframe {fill:none;opacity:1.0;stroke:black;stroke-width:0.5}
</style>
 <g id="Notes">
  <rect height="2200" id="artboard" style="fill:white;opacity:1" width="3300" x="0" y="0"/>
  <line style="fill:none;stroke:black;opacity:1;stroke-width:0.5;" x1="263" x2="3036" y1="292" y2="292"/>
  <text style="stroke:none;fill:black;font-family:sans-serif;font-size:13;font-weight:bold;" transform="matrix(1 0 0 1 263 322)">Weight/Scale Variations</text>
  <text style="stroke:none;fill:black;font-family:sans-serif;font-size:13;text-anchor:middle;" transform="matrix(1 0 0 1 559.711 322)">Ultralight</text>
  <text style="stroke:none;fill:black;font-family:sans-serif;font-size:13;text-anchor:middle;" transform="matrix(1 0 0 1 856.422 322)">Thin</text>
  <text style="stroke:none;fill:black;font-family:sans-serif;font-size:13;text-anchor:middle;" transform="matrix(1 0 0 1 1153.13 322)">Light</text>
  <text style="stroke:none;fill:black;font-family:sans-serif;font-size:13;text-anchor:middle;" transform="matrix(1 0 0 1 1449.84 322)">Regular</text>
  <text style="stroke:none;fill:black;font-family:sans-serif;font-size:13;text-anchor:middle;" transform="matrix(1 0 0 1 1746.56 322)">Medium</text>
  <text style="stroke:none;fill:black;font-family:sans-serif;font-size:13;text-anchor:middle;" transform="matrix(1 0 0 1 2043.27 322)">Semibold</text>
  <text style="stroke:none;fill:black;font-family:sans-serif;font-size:13;text-anchor:middle;" transform="matrix(1 0 0 1 2339.98 322)">Bold</text>
  <text style="stroke:none;fill:black;font-family:sans-serif;font-size:13;text-anchor:middle;" transform="matrix(1 0 0 1 2636.69 322)">Heavy</text>
  <text style="stroke:none;fill:black;font-family:sans-serif;font-size:13;text-anchor:middle;" transform="matrix(1 0 0 1 2933.4 322)">Black</text>
  <line style="fill:none;stroke:black;opacity:1;stroke-width:0.5;" x1="263" x2="3036" y1="1903" y2="1903"/>
  <g transform="matrix(0.2 0 0 0.2 263 1933)">
   <path d="m46.2402 4.15039c21.7773 0 39.4531-17.627 39.4531-39.4043s-17.6758-39.4043-39.4531-39.4043c-21.7285 0-39.4043 17.627-39.4043 39.4043s17.6758 39.4043 39.4043 39.4043Zm0-7.42188c-17.6758 0-31.9336-14.3066-31.9336-31.9824s14.2578-31.9824 31.9336-31.9824 31.9824 14.3066 31.9824 31.9824-14.3066 31.9824-31.9824 31.9824Zm3.61328-17.7734v-28.4668c0-2.24609-1.46484-3.75977-3.71094-3.75977-2.14844 0-3.61328 1.51367-3.61328 3.75977v28.4668c0 2.19727 1.46484 3.71094 3.61328 3.71094 2.24609 0 3.71094-1.51367 3.71094-3.71094Zm-17.8223-10.5957h28.418c2.19727 0 3.71094-1.46484 3.71094-3.61328 0-2.19727-1.51367-3.71094-3.71094-3.71094h-28.418c-2.24609 0-3.75977 1.51367-3.75977 3.71094 0 2.14844 1.51367 3.61328 3.75977 3.61328Z"/>
  </g>
  <g transform="matrix(0.2 0 0 0.2 281.506 1933)">
   <path d="m58.5449 14.5508c27.4902 0 49.8047-22.3145 49.8047-49.8047s-22.3145-49.8047-49.8047-49.8047-49.8047 22.3145-49.8047 49.8047 22.3145 49.8047 49.8047 49.8047Zm0-8.30078c-22.9492 0-41.5039-18.5547-41.5039-41.5039s18.5547-41.5039 41.5039-41.5039 41.5039 18.5547 41.5039 41.5039-18.5547 41.5039-41.5039 41.5039Zm4.05273-23.0957v-36.9141c0-2.49023-1.70898-4.19922-4.15039-4.19922-2.39258 0-4.05273 1.70898-4.05273 4.19922v36.9141c0 2.44141 1.66016 4.15039 4.05273 4.15039 2.44141 0 4.15039-1.66016 4.15039-4.15039Zm-22.5586-14.4043h36.9629c2.44141 0 4.15039-1.61133 4.15039-4.00391 0-2.44141-1.70898-4.15039-4.15039-4.15039h-36.9629c-2.49023 0-4.15039 1.70898-4.15039 4.15039 0 2.39258 1.66016 4.00391 4.15039 4.00391Z"/>
  </g>
  <g transform="matrix(0.2 0 0 0.2 304.924 1933)">
   <path d="m74.8535 28.3203c35.1074 0 63.623-28.4668 63.623-63.5742s-28.5156-63.623-63.623-63.623-63.5742 28.5156-63.5742 63.623 28.4668 63.5742 63.5742 63.5742Zm0-9.08203c-30.127 0-54.4922-24.3652-54.4922-54.4922s24.3652-54.4922 54.4922-54.4922 54.4922 24.3652 54.4922 54.4922-24.3652 54.4922-54.4922 54.4922Zm4.44336-30.3223v-48.4863c0-2.73438-1.85547-4.63867-4.54102-4.63867-2.58789 0-4.44336 1.9043-4.44336 4.63867v48.4863c0 2.68555 1.85547 4.58984 4.44336 4.58984 2.68555 0 4.54102-1.85547 4.54102-4.58984Zm-28.7109-19.7754h48.4863c2.68555 0 4.58984-1.80664 4.58984-4.39453 0-2.73438-1.85547-4.58984-4.58984-4.58984h-48.4863c-2.73438 0-4.58984 1.85547-4.58984 4.58984 0 2.58789 1.85547 4.39453 4.58984 4.39453Z"/>
  </g>
  <text style="stroke:none;fill:black;font-family:sans-serif;font-size:13;font-weight:bold;" transform="matrix(1 0 0 1 263 1953)">Design Variations</text>
  <text style="stroke:none;fill:black;font-family:sans-serif;font-size:13;" transform="matrix(1 0 0 1 263 1971)">Symbols are supported in up to nine weights and three scales.</text>
  <text style="stroke:none;fill:black;font-family:sans-serif;font-size:13;" transform="matrix(1 0 0 1 263 1989)">For optimal layout with text and other symbols, vertically align</text>
  <text style="stroke:none;fill:black;font-family:sans-serif;font-size:13;" transform="matrix(1 0 0 1 263 2007)">symbols with the adjacent text.</text>
  <line style="fill:none;stroke:#00AEEF;stroke-width:0.5;opacity:1.0;" x1="776" x2="776" y1="1919" y2="1933"/>
  <g transform="matrix(0.2 0 0 0.2 776 1933)">
   <path d="m16.5527 0.78125c2.58789 0 3.85742-0.976562 4.78516-3.71094l20.5566-57.5195h0.244141l20.6055 57.5195c0.927734 2.73438 2.19727 3.71094 4.73633 3.71094 2.58789 0 4.24805-1.5625 4.24805-4.00391 0-0.830078-0.146484-1.61133-0.537109-2.63672l-22.9004-60.9863c-1.12305-2.97852-3.125-4.49219-6.25-4.49219-3.02734 0-5.07812 1.46484-6.15234 4.44336l-22.9004 61.084c-0.390625 1.02539-0.537109 1.80664-0.537109 2.63672 0 2.44141 1.5625 3.95508 4.10156 3.95508Zm10.2051-20.9473h30.6641c2.00195 0 3.66211-1.66016 3.66211-3.66211 0-2.05078-1.66016-3.66211-3.66211-3.66211h-30.6641c-2.00195 0-3.66211 1.61133-3.66211 3.66211 0 2.00195 1.66016 3.66211 3.66211 3.66211Z"/>
  </g>
  <line style="fill:none;stroke:#00AEEF;stroke-width:0.5;opacity:1.0;" x1="792.836" x2="792.836" y1="1919" y2="1933"/>
  <text style="stroke:none;fill:black;font-family:sans-serif;font-size:13;font-weight:bold;" transform="matrix(1 0 0 1 776 1953)">Margins</text>
  <text style="stroke:none;fill:black;font-family:sans-serif;font-size:13;" transform="matrix(1 0 0 1 776 1971)">Leading and trailing margins on the left and right side of each symbol</text>
  <text style="stroke:none;fill:black;font-family:sans-serif;font-size:13;" transform="matrix(1 0 0 1 776 1989)">can be adjusted by modifying the x-location of the margin guidelines.</text>
  <text style="stroke:none;fill:black;font-family:sans-serif;font-size:13;" transform="matrix(1 0 0 1 776 2007)">Modifications are automatically applied proportionally to all</text>
  <text style="stroke:none;fill:black;font-family:sans-serif;font-size:13;" transform="matrix(1 0 0 1 776 2025)">scales and weights.</text>
  <g transform="matrix(0.2 0 0 0.2 1289 1933)">
   <path d="m14.209 13.1348 7.86133 7.86133c4.29688 4.39453 9.32617 4.10156 13.8672-1.02539l60.6934-68.2129-4.88281-4.88281-60.2539 67.6758c-1.80664 1.95312-3.4668 2.44141-5.81055 0.0976562l-5.17578-5.12695c-2.29492-2.29492-1.80664-3.95508 0.195312-5.81055l67.4805-62.1582-4.88281-4.83398-68.0664 62.5977c-4.98047 4.58984-5.32227 9.47266-1.02539 13.8184Zm44.873-97.4609c-2.05078 2.00195-2.24609 4.88281-1.07422 6.78711 1.12305 1.80664 3.4668 3.02734 6.5918 2.24609 5.85938-1.66016 12.5977-2.39258 18.8965 0.927734l-2.68555 7.12891c-1.61133 4.00391-0.732422 6.88477 1.70898 9.42383l10.2539 10.3027c2.34375 2.39258 4.54102 2.44141 7.08008 1.95312l4.44336-0.732422 2.58789 2.53906-0.195312 2.24609c-0.0976562 2.29492 0.537109 4.29688 2.7832 6.49414l3.36914 3.32031c2.29492 2.29492 5.51758 2.49023 7.8125 0.195312l12.9883-13.0371c2.29492-2.34375 2.14844-5.37109-0.195312-7.66602l-3.41797-3.41797c-2.19727-2.19727-4.05273-3.02734-6.34766-2.88086l-2.34375 0.244141-2.44141-2.44141 1.02539-4.6875c0.634766-2.73438-0.244141-4.98047-2.88086-7.61719l-11.2793-11.1816c-12.9395-12.8418-35.5957-11.0352-46.6797-0.146484Zm7.08008 2.05078c8.78906-6.39648 25.9766-5.66406 33.6914 1.95312l12.3047 12.207c1.02539 1.02539 1.2207 1.80664 0.927734 3.32031l-1.46484 6.64062 6.73828 6.68945 4.39453-0.244141c1.12305-0.0488281 1.51367 0.0488281 2.34375 0.878906l2.53906 2.49023-10.8398 10.8398-2.49023-2.49023c-0.830078-0.878906-0.976562-1.2207-0.927734-2.39258l0.292969-4.3457-6.68945-6.73828-6.83594 1.17188c-1.41602 0.292969-2.05078 0.195312-3.17383-0.878906l-8.93555-8.88672c-1.07422-1.02539-1.17188-1.70898-0.488281-3.36914l4.58984-11.4746c-6.10352-6.34766-17.041-7.51953-25.5859-4.58984-0.683594 0.244141-0.927734-0.390625-0.390625-0.78125Z"/>
  </g>
  <text style="stroke:none;fill:black;font-family:sans-serif;font-size:13;font-weight:bold;" transform="matrix(1 0 0 1 1289 1953)">Exporting</text>
  <text style="stroke:none;fill:black;font-family:sans-serif;font-size:13;" transform="matrix(1 0 0 1 1289 1971)">Symbols should be outlined when exporting to ensure the</text>
  <text style="stroke:none;fill:black;font-family:sans-serif;font-size:13;" transform="matrix(1 0 0 1 1289 1989)">design is preserved when submitting to Xcode.</text>
  <text id="template-version" style="stroke:none;fill:black;font-family:sans-serif;font-size:13;text-anchor:end;" transform="matrix(1 0 0 1 3036 1933)">Template v.7.0</text>
  <text style="stroke:none;fill:black;font-family:sans-serif;font-size:13;text-anchor:end;" transform="matrix(1 0 0 1 3036 1951)">Requires Xcode 17 or greater</text>
  <text id="descriptive-name" style="stroke:none;fill:black;font-family:sans-serif;font-size:13;text-anchor:end;" transform="matrix(1 0 0 1 3036 1969)">Generated from </text>
  <text style="stroke:none;fill:black;font-family:sans-serif;font-size:13;text-anchor:end;" transform="matrix(1 0 0 1 3036 1987)">Typeset at 100.0 points</text>
  <text style="stroke:none;fill:black;font-family:sans-serif;font-size:13;" transform="matrix(1 0 0 1 263 726)">Small</text>
  <text style="stroke:none;fill:black;font-family:sans-serif;font-size:13;" transform="matrix(1 0 0 1 263 1156)">Medium</text>
  <text style="stroke:none;fill:black;font-family:sans-serif;font-size:13;" transform="matrix(1 0 0 1 263 1586)">Large</text>
 </g>
 <g id="Guides">
  <g id="H-reference" style="fill:#27AAE1;stroke:none;" transform="matrix(1 0 0 1 339 696)">
   <path d="M0.993654 0L3.63775 0L29.3281-67.1323L30.0303-67.1323L30.0303-70.459L28.1226-70.459ZM11.6885-24.4799L46.9815-24.4799L46.2315-26.7285L12.4385-26.7285ZM55.1196 0L57.7637 0L30.6382-70.459L29.4326-70.459L29.4326-67.1323Z"/>
  </g>
  <line id="Baseline-S" style="fill:none;stroke:#27AAE1;opacity:1;stroke-width:0.5;" x1="263" x2="3036" y1="696" y2="696"/>
  <line id="Capline-S" style="fill:none;stroke:#27AAE1;opacity:1;stroke-width:0.5;" x1="263" x2="3036" y1="625.541" y2="625.541"/>
  <g id="H-reference" style="fill:#27AAE1;stroke:none;" transform="matrix(1 0 0 1 339 1126)">
   <path d="M0.993654 0L3.63775 0L29.3281-67.1323L30.0303-67.1323L30.0303-70.459L28.1226-70.459ZM11.6885-24.4799L46.9815-24.4799L46.2315-26.7285L12.4385-26.7285ZM55.1196 0L57.7637 0L30.6382-70.459L29.4326-70.459L29.4326-67.1323Z"/>
  </g>
  <line id="Baseline-M" style="fill:none;stroke:#27AAE1;opacity:1;stroke-width:0.5;" x1="263" x2="3036" y1="1126" y2="1126"/>
  <line id="Capline-M" style="fill:none;stroke:#27AAE1;opacity:1;stroke-width:0.5;" x1="263" x2="3036" y1="1055.54" y2="1055.54"/>
  <g id="H-reference" style="fill:#27AAE1;stroke:none;" transform="matrix(1 0 0 1 339 1556)">
   <path d="M0.993654 0L3.63775 0L29.3281-67.1323L30.0303-67.1323L30.0303-70.459L28.1226-70.459ZM11.6885-24.4799L46.9815-24.4799L46.2315-26.7285L12.4385-26.7285ZM55.1196 0L57.7637 0L30.6382-70.459L29.4326-70.459L29.4326-67.1323Z"/>
  </g>
  <line id="Baseline-L" style="fill:none;stroke:#27AAE1;opacity:1;stroke-width:0.5;" x1="263" x2="3036" y1="1556" y2="1556"/>
  <line id="Capline-L" style="fill:none;stroke:#27AAE1;opacity:1;stroke-width:0.5;" x1="263" x2="3036" y1="1485.54" y2="1485.54"/>
  <line id="right-margin-Black-S" style="fill:none;stroke:#00AEEF;stroke-width:0.5;opacity:1.0;" x1="2987.45" x2="2987.45" y1="600.785" y2="720.121"/>
  <line id="left-margin-Black-S" style="fill:none;stroke:#00AEEF;stroke-width:0.5;opacity:1.0;" x1="2879.35" x2="2879.35" y1="600.785" y2="720.121"/>
  <line id="right-margin-Regular-S" style="fill:none;stroke:#00AEEF;stroke-width:0.5;opacity:1.0;" x1="1500.8" x2="1500.8" y1="600.785" y2="720.121"/>
  <line id="left-margin-Regular-S" style="fill:none;stroke:#00AEEF;stroke-width:0.5;opacity:1.0;" x1="1398.89" x2="1398.89" y1="600.785" y2="720.121"/>
  <line id="right-margin-Ultralight-S" style="fill:none;stroke:#00AEEF;stroke-width:0.5;opacity:1.0;" x1="608.098" x2="608.098" y1="600.785" y2="720.121"/>
  <line id="left-margin-Ultralight-S" style="fill:none;stroke:#00AEEF;stroke-width:0.5;opacity:1.0;" x1="511.325" x2="511.325" y1="600.785" y2="720.121"/>
 </g>
 <g id="Symbols">
  <g id="Black-S" transform="matrix(1 0 0 1 2879.35 696)">
   <path class="monochrome-0 multicolor-0:tintColor hierarchical-0:secondary SFSymbolsPreviewWireframe" d="M57.7236-81.8263L58.8628-81.8263C63.1666-81.8263 67.5759-81.0879 72.0907-79.6111C76.6055-78.1343 80.4662-75.9613 83.673-73.0921L73.1666-61.3199C71.2257-63.4296 68.905-65.0963 66.2046-66.3199C63.5042-67.5436 60.6772-68.1554 57.7236-68.1554L57.7236-42.8389L58.2299-42.7123C61.7742-41.7841 65.2552-40.7292 68.673-39.5478C72.0907-38.3664 75.1287-36.8263 77.7869-34.9275C80.4451-33.0288 82.597-30.6448 84.2426-27.7756C85.8882-24.9064 86.7109-21.3199 86.7109-17.0161C86.7109-12.7967 85.9514-9.06256 84.4325-5.81361C82.9135-2.56467 80.846 0.220144 78.2299 2.54082C75.6139 4.86149 72.5548 6.69694 69.0527 8.04715C65.5506 9.39736 61.7742 10.2834 57.7236 10.7054L57.7236 19.8193L50.8882 19.8193L50.8882 10.832C45.3185 10.9163 39.981 10.0725 34.8755 8.30031C29.77 6.52816 25.2763 3.61677 21.3945-0.433865L32.9135-12.206C34.9388-9.33682 37.5548-7.14273 40.7616-5.62374C43.9683-4.10475 47.3438-3.17648 50.8882-2.83893L50.8882-29.5478L50.2552-29.6744C46.7109-30.687 43.3354-31.8052 40.1287-33.0288C36.9219-34.2524 34.0738-35.8558 31.5844-37.8389C29.0949-39.8221 27.1329-42.2271 25.6983-45.0541C24.2637-47.8811 23.5464-51.4043 23.5464-55.6237C23.5464-59.4212 24.3059-62.8389 25.8249-65.8769C27.3438-68.9149 29.3692-71.552 31.9008-73.7883C34.4325-76.0246 37.3438-77.8178 40.635-79.168C43.9261-80.5183 47.3438-81.3621 50.8882-81.6997L50.8882-90.1807L57.7236-90.1807L57.7236-81.8263ZM50.8882-67.9022C47.9346-67.3959 45.2974-66.1512 42.9768-64.168C40.6561-62.1849 39.4957-59.59 39.4957-56.3832C39.4957-54.4423 39.8122-52.8811 40.4451-51.6997C41.078-50.5183 41.9008-49.5056 42.9135-48.6617C43.9261-47.8178 45.1287-47.1216 46.5211-46.5731C47.9135-46.0246 49.3692-45.4128 50.8882-44.7377L50.8882-67.9022ZM57.7236-2.83893C59.4957-3.17648 61.1624-3.70391 62.7236-4.42121C64.2848-5.13851 65.6561-6.02458 66.8375-7.07943C68.019-8.13429 68.9683-9.40011 69.6856-10.8769C70.4029-12.3537 70.7616-14.0204 70.7616-15.8769C70.7616-17.7334 70.3607-19.2946 69.559-20.5604C68.7574-21.8263 67.7236-22.8811 66.4578-23.725C65.192-24.5689 63.7995-25.2862 62.2806-25.8769C60.7616-26.4676 59.2426-27.0161 57.7236-27.5225L57.7236-2.83893Z"/>
   <path class="monochrome-1 multicolor-1:tintColor hierarchical-1:primary SFSymbolsPreviewWireframe" d="M98.0218-4.48836C101.673-0.837264 101.673 5.09118 98.0218 8.74227C94.3707 12.3934 88.4422 12.3934 84.7911 8.74227L10.0782-65.9706C6.42714-69.6217 6.42714-75.5502 10.0782-79.2013C13.7293-82.8524 19.6578-82.8524 23.3089-79.2013Z" data-clipstroke-keyframes="0 0 0 0.4999044 0.6089134 0 1 0 0.10891342"/>
   <path class="monochrome-2 multicolor-2:tintColor hierarchical-2:primary SFSymbolsPreviewWireframe" d="M93.8717-0.338247C95.2322 1.02234 95.2322 3.23158 93.8717 4.59217C92.5111 5.95275 90.3018 5.95275 88.9412 4.59217L14.2283-70.1207C12.8678-71.4813 12.8678-73.6906 14.2283-75.0511C15.5889-76.4117 17.7982-76.4117 19.1588-75.0511Z" data-clipstroke-keyframes="0 0 0 0.49988937 0.54707384 0 1 0 0.04707384"/>
  </g>
  <g id="Regular-S" transform="matrix(1 0 0 1 1398.89 696)">
   <path class="monochrome-0 multicolor-0:tintColor hierarchical-0:secondary SFSymbolsPreviewWireframe" d="M54.2893-77.073L55.325-77.073C59.2375-77.073 63.246-76.4017 67.3503-75.0592C71.4546-73.7167 74.9644-71.7412 77.8796-69.1329L68.3284-58.4309C66.564-60.3488 64.4543-61.864 61.9993-62.9764C59.5444-64.0887 56.9744-64.6449 54.2893-64.6449L54.2893-41.63L54.7496-41.5149C57.9717-40.671 61.1363-39.7121 64.2433-38.638C67.3503-37.564 70.1121-36.1639 72.5287-34.4378C74.9452-32.7117 76.9015-30.5444 78.3975-27.9361C79.8935-25.3277 80.6414-22.0673 80.6414-18.1547C80.6414-14.3189 79.951-10.9242 78.5701-7.9706C77.1892-5.01701 75.3096-2.48536 72.9314-0.37566C70.5532 1.73404 67.7722 3.40263 64.5885 4.63009C61.4048 5.85756 57.9717 6.66308 54.2893 7.04666L54.2893 15.332L48.0753 15.332L48.0753 7.16174C43.012 7.23846 38.1597 6.47129 33.5183 4.86024C28.877 3.2492 24.7918 0.602476 21.2628-3.07992L31.7347-13.7819C33.5758-11.1735 35.9541-9.17888 38.8693-7.79798C41.7845-6.41709 44.8532-5.57321 48.0753-5.26634L48.0753-29.5471L47.4999-29.6622C44.2778-30.5828 41.2091-31.5993 38.2939-32.7117C35.3787-33.8241 32.7895-35.2817 30.5264-37.0845C28.2632-38.8874 26.4796-41.0738 25.1754-43.6438C23.8712-46.2138 23.2191-49.4167 23.2191-53.2525C23.2191-56.7048 23.9096-59.8118 25.2905-62.5736C26.6714-65.3354 28.5126-67.7328 30.8141-69.7658C33.1155-71.7988 35.7623-73.429 38.7542-74.6564C41.7462-75.8839 44.8532-76.6511 48.0753-76.9579L48.0753-84.668L54.2893-84.668L54.2893-77.073ZM48.0753-64.4148C45.3902-63.9545 42.9928-62.8229 40.8831-61.0201C38.7734-59.2172 37.7185-56.8582 37.7185-53.943C37.7185-52.1785 38.0062-50.7592 38.5816-49.6852C39.157-48.6112 39.905-47.6906 40.8256-46.9234C41.7462-46.1563 42.8394-45.5233 44.1052-45.0247C45.371-44.526 46.6944-43.9698 48.0753-43.3561L48.0753-64.4148ZM54.2893-5.26634C55.9004-5.57321 57.4155-6.05268 58.8348-6.70477C60.254-7.35686 61.5007-8.16239 62.5747-9.12134C63.6487-10.0803 64.5118-11.231 65.1639-12.5736C65.816-13.9161 66.142-15.4313 66.142-17.119C66.142-18.8068 65.7776-20.2261 65.0488-21.3768C64.32-22.5276 63.3802-23.4865 62.2295-24.2537C61.0787-25.0208 59.8129-25.6729 58.432-26.21C57.0511-26.747 55.6702-27.2456 54.2893-27.7059L54.2893-5.26634Z"/>
   <path class="monochrome-1 multicolor-1:tintColor hierarchical-1:primary SFSymbolsPreviewWireframe" d="M92.0083-6.06714C95.2898-2.78573 95.2898 2.54245 92.0083 5.82386C88.7269 9.10527 83.3988 9.10527 80.1174 5.82386L9.90165-64.3918C6.62024-67.6733 6.62024-73.0014 9.90165-76.2828C13.1831-79.5643 18.5112-79.5643 21.7926-76.2828Z" data-clipstroke-keyframes="0 0 0 0.50010824 0.6049547 0 1 0 0.10495448"/>
   <path class="monochrome-2 multicolor-2:tintColor hierarchical-2:primary SFSymbolsPreviewWireframe" d="M88.5419-2.60066C89.9101-1.23245 89.9101 0.98917 88.5419 2.35738C87.1737 3.72558 84.952 3.72558 83.5838 2.35738L13.3681-67.8583C11.9999-69.2265 11.9999-71.4482 13.3681-72.8164C14.7363-74.1846 16.958-74.1846 18.3262-72.8164Z" data-clipstroke-keyframes="0 0 0 0.50020504 0.5497174 0 1 0 0.049717426"/>
  </g>
  <g id="Ultralight-S" transform="matrix(1 0 0 1 511.325 696)">
   <path class="monochrome-0 multicolor-0:tintColor hierarchical-0:secondary SFSymbolsPreviewWireframe" d="M51.3899-73.4229L52.322-73.4229C55.8433-73.4229 59.4509-72.8187 63.1448-71.6104C66.8387-70.4022 69.9975-68.6243 72.6212-66.2767L64.0251-56.645C62.4371-58.3711 60.5384-59.7347 58.3289-60.7359C56.1195-61.737 53.8065-62.2376 51.3899-62.2376L51.3899-41.5241L51.8042-41.4206C54.7041-40.6611 57.5522-39.798 60.3485-38.8314C63.1448-37.8648 65.6304-36.6047 67.8054-35.0512C69.9803-33.4977 71.7409-31.5472 73.0873-29.1996C74.4337-26.8521 75.1068-23.9177 75.1068-20.3964C75.1068-16.9442 74.4854-13.8889 73.2426-11.2307C71.9998-8.57247 70.3082-6.29399 68.1678-4.39526C66.0274-2.49652 63.5246-0.994799 60.6592 0.109919C57.7938 1.21464 54.7041 1.93961 51.3899 2.28483L51.3899 9.74168L45.7973 9.74168L45.7973 2.3884C41.2403 2.45745 36.8732 1.767 32.696 0.317054C28.5188-1.13289 24.8422-3.51494 21.6661-6.82909L31.0907-16.4609C32.7478-14.1133 34.8882-12.3182 37.5119-11.0754C40.1356-9.83254 42.8974-9.07305 45.7973-8.79687L45.7973-30.6496L45.2795-30.7531C42.3796-31.5817 39.6178-32.4965 36.9941-33.4977C34.3704-34.4988 32.0401-35.8107 30.0033-37.4332C27.9665-39.0558 26.3612-41.0236 25.1874-43.3366C24.0136-45.6496 23.4268-48.5322 23.4268-51.9844C23.4268-55.0915 24.0482-57.8878 25.291-60.3734C26.5338-62.859 28.1909-65.0167 30.2622-66.8464C32.3335-68.676 34.7156-70.1432 37.4083-71.248C40.1011-72.3527 42.8974-73.0431 45.7973-73.3193L45.7973-80.2583L51.3899-80.2583L51.3899-73.4229ZM45.7973-62.0305C43.3807-61.6162 41.2231-60.5978 39.3243-58.9752C37.4256-57.3527 36.4762-55.2296 36.4762-52.6058C36.4762-51.0178 36.7352-49.7405 37.253-48.7739C37.7708-47.8072 38.444-46.9787 39.2726-46.2882C40.1011-45.5978 41.085-45.0282 42.2242-44.5794C43.3635-44.1306 44.5545-43.63 45.7973-43.0777L45.7973-62.0305ZM51.3899-8.79687C52.8399-9.07305 54.2035-9.50458 55.4808-10.0915C56.7582-10.6783 57.8802-11.4033 58.8468-12.2664C59.8134-13.1294 60.5902-14.1651 61.177-15.3734C61.7639-16.5817 62.0574-17.9453 62.0574-19.4643C62.0574-20.9833 61.7294-22.2606 61.0735-23.2963C60.4176-24.332 59.5718-25.195 58.5361-25.8855C57.5004-26.5759 56.3612-27.1628 55.1184-27.6461C53.8755-28.1294 52.6327-28.5782 51.3899-28.9925L51.3899-8.79687Z"/>
   <path class="monochrome-1 multicolor-1:tintColor hierarchical-1:primary SFSymbolsPreviewWireframe" d="M86.0727-3.06064C87.5953-1.53808 87.5953 0.934172 86.0727 2.45673C84.5502 3.97929 82.0779 3.97929 80.5554 2.45673L10.7003-67.3983C9.17772-68.9209 9.17772-71.3932 10.7003-72.9157C12.2228-74.4383 14.6951-74.4383 16.2176-72.9157Z" data-clipstroke-keyframes="0 0 0 0.5001135 0.5550747 0 1 0 0.05507469"/>
   <path class="monochrome-2 multicolor-2:tintColor hierarchical-2:primary SFSymbolsPreviewWireframe" d="M84.0218-1.00975C84.4125-0.619106 84.4125 0.0152006 84.0218 0.405845C83.6312 0.796489 82.9969 0.796489 82.6062 0.405845L12.7512-69.4492C12.3605-69.8399 12.3605-70.4742 12.7512-70.8648C13.1418-71.2555 13.7761-71.2555 14.1668-70.8648Z" data-clipstroke-keyframes="0 0 0 0.50012684 0.51529884 0 1 0 0.015298843"/>
  </g>
 </g>
</svg>
