<?xml version="1.0" encoding="UTF-8"?>
<!--Generator: Apple Native CoreSVG 341-->
<!DOCTYPE svg
PUBLIC "-//W3C//DTD SVG 1.1//EN"
       "http://www.w3.org/Graphics/SVG/1.1/DTD/svg11.dtd">
<svg version="1.1" xmlns="http://www.w3.org/2000/svg" xmlns:xlink="http://www.w3.org/1999/xlink" viewBox="0 0 3300 2200">
 <!--glyph: "", point size: 100.0, font version: "21.0d6e2", template writer version: "138.0.0"-->
 <style>.defaults {-sfsymbols-draw-reverses-motion-groups:true}

.monochrome-0 {-sfsymbols-motion-group:1;-sfsymbols-layer-tags:68e8371bafff93c8 _enclosure.stroke circle}
.monochrome-1 {-sfsymbols-motion-group:0;-sfsymbols-always-pulses:true;-sfsymbols-layer-tags:-1caaec6195ace3a5 68e8371bafff93c8}

.multicolor-0:tintColor {-sfsymbols-motion-group:1;-sfsymbols-layer-tags:68e8371bafff93c8 _enclosure.stroke circle}
.multicolor-1:tintColor {-sfsymbols-motion-group:0;-sfsymbols-always-pulses:true;-sfsymbols-layer-tags:-1caaec6195ace3a5 68e8371bafff93c8}

.hierarchical-0:secondary {-sfsymbols-motion-group:1;-sfsymbols-layer-tags:68e8371bafff93c8 _enclosure.stroke circle}
.hierarchical-1:primary {-sfsymbols-motion-group:0;-sfsymbols-always-pulses:true;-sfsymbols-layer-tags:-1caaec6195ace3a5 68e8371bafff93c8}

.SFSymbolsPreviewWireframe {fill:none;opacity:1.0;stroke:black;stroke-width:0.5}
</style>
 <g id="Notes">
  <rect height="2200" id="artboard" style="fill:white;opacity:1" width="3300" x="0" y="0"/>
  <line style="fill:none;stroke:black;opacity:1;stroke-width:0.5;" x1="263" x2="3036" y1="292" y2="292"/>
  <text style="stroke:none;fill:black;font-family:sans-serif;font-size:13;font-weight:bold;" transform="matrix(1 0 0 1 263 322)">Weight/Scale Variations</text>
  <text style="stroke:none;fill:black;font-family:sans-serif;font-size:13;text-anchor:middle;" transform="matrix(1 0 0 1 559.711 322)">Ultralight</text>
  <text style="stroke:none;fill:black;font-family:sans-serif;font-size:13;text-anchor:middle;" transform="matrix(1 0 0 1 856.422 322)">Thin</text>
  <text style="stroke:none;fill:black;font-family:sans-serif;font-size:13;text-anchor:middle;" transform="matrix(1 0 0 1 1153.13 322)">Light</text>
  <text style="stroke:none;fill:black;font-family:sans-serif;font-size:13;text-anchor:middle;" transform="matrix(1 0 0 1 1449.84 322)">Regular</text>
  <text style="stroke:none;fill:black;font-family:sans-serif;font-size:13;text-anchor:middle;" transform="matrix(1 0 0 1 1746.56 322)">Medium</text>
  <text style="stroke:none;fill:black;font-family:sans-serif;font-size:13;text-anchor:middle;" transform="matrix(1 0 0 1 2043.27 322)">Semibold</text>
  <text style="stroke:none;fill:black;font-family:sans-serif;font-size:13;text-anchor:middle;" transform="matrix(1 0 0 1 2339.98 322)">Bold</text>
  <text style="stroke:none;fill:black;font-family:sans-serif;font-size:13;text-anchor:middle;" transform="matrix(1 0 0 1 2636.69 322)">Heavy</text>
  <text style="stroke:none;fill:black;font-family:sans-serif;font-size:13;text-anchor:middle;" transform="matrix(1 0 0 1 2933.4 322)">Black</text>
  <line style="fill:none;stroke:black;opacity:1;stroke-width:0.5;" x1="263" x2="3036" y1="1903" y2="1903"/>
  <g transform="matrix(0.2 0 0 0.2 263 1933)">
   <path d="m46.2402 4.15039c21.7773 0 39.4531-17.627 39.4531-39.4043s-17.6758-39.4043-39.4531-39.4043c-21.7285 0-39.4043 17.627-39.4043 39.4043s17.6758 39.4043 39.4043 39.4043Zm0-7.42188c-17.6758 0-31.9336-14.3066-31.9336-31.9824s14.2578-31.9824 31.9336-31.9824 31.9824 14.3066 31.9824 31.9824-14.3066 31.9824-31.9824 31.9824Zm3.61328-17.7734v-28.4668c0-2.24609-1.46484-3.75977-3.71094-3.75977-2.14844 0-3.61328 1.51367-3.61328 3.75977v28.4668c0 2.19727 1.46484 3.71094 3.61328 3.71094 2.24609 0 3.71094-1.51367 3.71094-3.71094Zm-17.8223-10.5957h28.418c2.19727 0 3.71094-1.46484 3.71094-3.61328 0-2.19727-1.51367-3.71094-3.71094-3.71094h-28.418c-2.24609 0-3.75977 1.51367-3.75977 3.71094 0 2.14844 1.51367 3.61328 3.75977 3.61328Z"/>
  </g>
  <g transform="matrix(0.2 0 0 0.2 281.506 1933)">
   <path d="m58.5449 14.5508c27.4902 0 49.8047-22.3145 49.8047-49.8047s-22.3145-49.8047-49.8047-49.8047-49.8047 22.3145-49.8047 49.8047 22.3145 49.8047 49.8047 49.8047Zm0-8.30078c-22.9492 0-41.5039-18.5547-41.5039-41.5039s18.5547-41.5039 41.5039-41.5039 41.5039 18.5547 41.5039 41.5039-18.5547 41.5039-41.5039 41.5039Zm4.05273-23.0957v-36.9141c0-2.49023-1.70898-4.19922-4.15039-4.19922-2.39258 0-4.05273 1.70898-4.05273 4.19922v36.9141c0 2.44141 1.66016 4.15039 4.05273 4.15039 2.44141 0 4.15039-1.66016 4.15039-4.15039Zm-22.5586-14.4043h36.9629c2.44141 0 4.15039-1.61133 4.15039-4.00391 0-2.44141-1.70898-4.15039-4.15039-4.15039h-36.9629c-2.49023 0-4.15039 1.70898-4.15039 4.15039 0 2.39258 1.66016 4.00391 4.15039 4.00391Z"/>
  </g>
  <g transform="matrix(0.2 0 0 0.2 304.924 1933)">
   <path d="m74.8535 28.3203c35.1074 0 63.623-28.4668 63.623-63.5742s-28.5156-63.623-63.623-63.623-63.5742 28.5156-63.5742 63.623 28.4668 63.5742 63.5742 63.5742Zm0-9.08203c-30.127 0-54.4922-24.3652-54.4922-54.4922s24.3652-54.4922 54.4922-54.4922 54.4922 24.3652 54.4922 54.4922-24.3652 54.4922-54.4922 54.4922Zm4.44336-30.3223v-48.4863c0-2.73438-1.85547-4.63867-4.54102-4.63867-2.58789 0-4.44336 1.9043-4.44336 4.63867v48.4863c0 2.68555 1.85547 4.58984 4.44336 4.58984 2.68555 0 4.54102-1.85547 4.54102-4.58984Zm-28.7109-19.7754h48.4863c2.68555 0 4.58984-1.80664 4.58984-4.39453 0-2.73438-1.85547-4.58984-4.58984-4.58984h-48.4863c-2.73438 0-4.58984 1.85547-4.58984 4.58984 0 2.58789 1.85547 4.39453 4.58984 4.39453Z"/>
  </g>
  <text style="stroke:none;fill:black;font-family:sans-serif;font-size:13;font-weight:bold;" transform="matrix(1 0 0 1 263 1953)">Design Variations</text>
  <text style="stroke:none;fill:black;font-family:sans-serif;font-size:13;" transform="matrix(1 0 0 1 263 1971)">Symbols are supported in up to nine weights and three scales.</text>
  <text style="stroke:none;fill:black;font-family:sans-serif;font-size:13;" transform="matrix(1 0 0 1 263 1989)">For optimal layout with text and other symbols, vertically align</text>
  <text style="stroke:none;fill:black;font-family:sans-serif;font-size:13;" transform="matrix(1 0 0 1 263 2007)">symbols with the adjacent text.</text>
  <line style="fill:none;stroke:#00AEEF;stroke-width:0.5;opacity:1.0;" x1="776" x2="776" y1="1919" y2="1933"/>
  <g transform="matrix(0.2 0 0 0.2 776 1933)">
   <path d="m16.5527 0.78125c2.58789 0 3.85742-0.976562 4.78516-3.71094l20.5566-57.5195h0.244141l20.6055 57.5195c0.927734 2.73438 2.19727 3.71094 4.73633 3.71094 2.58789 0 4.24805-1.5625 4.24805-4.00391 0-0.830078-0.146484-1.61133-0.537109-2.63672l-22.9004-60.9863c-1.12305-2.97852-3.125-4.49219-6.25-4.49219-3.02734 0-5.07812 1.46484-6.15234 4.44336l-22.9004 61.084c-0.390625 1.02539-0.537109 1.80664-0.537109 2.63672 0 2.44141 1.5625 3.95508 4.10156 3.95508Zm10.2051-20.9473h30.6641c2.00195 0 3.66211-1.66016 3.66211-3.66211 0-2.05078-1.66016-3.66211-3.66211-3.66211h-30.6641c-2.00195 0-3.66211 1.61133-3.66211 3.66211 0 2.00195 1.66016 3.66211 3.66211 3.66211Z"/>
  </g>
  <line style="fill:none;stroke:#00AEEF;stroke-width:0.5;opacity:1.0;" x1="792.836" x2="792.836" y1="1919" y2="1933"/>
  <text style="stroke:none;fill:black;font-family:sans-serif;font-size:13;font-weight:bold;" transform="matrix(1 0 0 1 776 1953)">Margins</text>
  <text style="stroke:none;fill:black;font-family:sans-serif;font-size:13;" transform="matrix(1 0 0 1 776 1971)">Leading and trailing margins on the left and right side of each symbol</text>
  <text style="stroke:none;fill:black;font-family:sans-serif;font-size:13;" transform="matrix(1 0 0 1 776 1989)">can be adjusted by modifying the x-location of the margin guidelines.</text>
  <text style="stroke:none;fill:black;font-family:sans-serif;font-size:13;" transform="matrix(1 0 0 1 776 2007)">Modifications are automatically applied proportionally to all</text>
  <text style="stroke:none;fill:black;font-family:sans-serif;font-size:13;" transform="matrix(1 0 0 1 776 2025)">scales and weights.</text>
  <g transform="matrix(0.2 0 0 0.2 1289 1933)">
   <path d="m14.209 13.1348 7.86133 7.86133c4.29688 4.39453 9.32617 4.10156 13.8672-1.02539l60.6934-68.2129-4.88281-4.88281-60.2539 67.6758c-1.80664 1.95312-3.4668 2.44141-5.81055 0.0976562l-5.17578-5.12695c-2.29492-2.29492-1.80664-3.95508 0.195312-5.81055l67.4805-62.1582-4.88281-4.83398-68.0664 62.5977c-4.98047 4.58984-5.32227 9.47266-1.02539 13.8184Zm44.873-97.4609c-2.05078 2.00195-2.24609 4.88281-1.07422 6.78711 1.12305 1.80664 3.4668 3.02734 6.5918 2.24609 5.85938-1.66016 12.5977-2.39258 18.8965 0.927734l-2.68555 7.12891c-1.61133 4.00391-0.732422 6.88477 1.70898 9.42383l10.2539 10.3027c2.34375 2.39258 4.54102 2.44141 7.08008 1.95312l4.44336-0.732422 2.58789 2.53906-0.195312 2.24609c-0.0976562 2.29492 0.537109 4.29688 2.7832 6.49414l3.36914 3.32031c2.29492 2.29492 5.51758 2.49023 7.8125 0.195312l12.9883-13.0371c2.29492-2.34375 2.14844-5.37109-0.195312-7.66602l-3.41797-3.41797c-2.19727-2.19727-4.05273-3.02734-6.34766-2.88086l-2.34375 0.244141-2.44141-2.44141 1.02539-4.6875c0.634766-2.73438-0.244141-4.98047-2.88086-7.61719l-11.2793-11.1816c-12.9395-12.8418-35.5957-11.0352-46.6797-0.146484Zm7.08008 2.05078c8.78906-6.39648 25.9766-5.66406 33.6914 1.95312l12.3047 12.207c1.02539 1.02539 1.2207 1.80664 0.927734 3.32031l-1.46484 6.64062 6.73828 6.68945 4.39453-0.244141c1.12305-0.0488281 1.51367 0.0488281 2.34375 0.878906l2.53906 2.49023-10.8398 10.8398-2.49023-2.49023c-0.830078-0.878906-0.976562-1.2207-0.927734-2.39258l0.292969-4.3457-6.68945-6.73828-6.83594 1.17188c-1.41602 0.292969-2.05078 0.195312-3.17383-0.878906l-8.93555-8.88672c-1.07422-1.02539-1.17188-1.70898-0.488281-3.36914l4.58984-11.4746c-6.10352-6.34766-17.041-7.51953-25.5859-4.58984-0.683594 0.244141-0.927734-0.390625-0.390625-0.78125Z"/>
  </g>
  <text style="stroke:none;fill:black;font-family:sans-serif;font-size:13;font-weight:bold;" transform="matrix(1 0 0 1 1289 1953)">Exporting</text>
  <text style="stroke:none;fill:black;font-family:sans-serif;font-size:13;" transform="matrix(1 0 0 1 1289 1971)">Symbols should be outlined when exporting to ensure the</text>
  <text style="stroke:none;fill:black;font-family:sans-serif;font-size:13;" transform="matrix(1 0 0 1 1289 1989)">design is preserved when submitting to Xcode.</text>
  <text id="template-version" style="stroke:none;fill:black;font-family:sans-serif;font-size:13;text-anchor:end;" transform="matrix(1 0 0 1 3036 1933)">Template v.7.0</text>
  <text style="stroke:none;fill:black;font-family:sans-serif;font-size:13;text-anchor:end;" transform="matrix(1 0 0 1 3036 1951)">Requires Xcode 17 or greater</text>
  <text id="descriptive-name" style="stroke:none;fill:black;font-family:sans-serif;font-size:13;text-anchor:end;" transform="matrix(1 0 0 1 3036 1969)">Generated from circle</text>
  <text style="stroke:none;fill:black;font-family:sans-serif;font-size:13;text-anchor:end;" transform="matrix(1 0 0 1 3036 1987)">Typeset at 100.0 points</text>
  <text style="stroke:none;fill:black;font-family:sans-serif;font-size:13;" transform="matrix(1 0 0 1 263 726)">Small</text>
  <text style="stroke:none;fill:black;font-family:sans-serif;font-size:13;" transform="matrix(1 0 0 1 263 1156)">Medium</text>
  <text style="stroke:none;fill:black;font-family:sans-serif;font-size:13;" transform="matrix(1 0 0 1 263 1586)">Large</text>
 </g>
 <g id="Guides">
  <g id="H-reference" style="fill:#27AAE1;stroke:none;" transform="matrix(1 0 0 1 339 696)">
   <path d="M0.993654 0L3.63775 0L29.3281-67.1323L30.0303-67.1323L30.0303-70.459L28.1226-70.459ZM11.6885-24.4799L46.9815-24.4799L46.2315-26.7285L12.4385-26.7285ZM55.1196 0L57.7637 0L30.6382-70.459L29.4326-70.459L29.4326-67.1323Z"/>
  </g>
  <line id="Baseline-S" style="fill:none;stroke:#27AAE1;opacity:1;stroke-width:0.5;" x1="263" x2="3036" y1="696" y2="696"/>
  <line id="Capline-S" style="fill:none;stroke:#27AAE1;opacity:1;stroke-width:0.5;" x1="263" x2="3036" y1="625.541" y2="625.541"/>
  <g id="H-reference" style="fill:#27AAE1;stroke:none;" transform="matrix(1 0 0 1 339 1126)">
   <path d="M0.993654 0L3.63775 0L29.3281-67.1323L30.0303-67.1323L30.0303-70.459L28.1226-70.459ZM11.6885-24.4799L46.9815-24.4799L46.2315-26.7285L12.4385-26.7285ZM55.1196 0L57.7637 0L30.6382-70.459L29.4326-70.459L29.4326-67.1323Z"/>
  </g>
  <line id="Baseline-M" style="fill:none;stroke:#27AAE1;opacity:1;stroke-width:0.5;" x1="263" x2="3036" y1="1126" y2="1126"/>
  <line id="Capline-M" style="fill:none;stroke:#27AAE1;opacity:1;stroke-width:0.5;" x1="263" x2="3036" y1="1055.54" y2="1055.54"/>
  <g id="H-reference" style="fill:#27AAE1;stroke:none;" transform="matrix(1 0 0 1 339 1556)">
   <path d="M0.993654 0L3.63775 0L29.3281-67.1323L30.0303-67.1323L30.0303-70.459L28.1226-70.459ZM11.6885-24.4799L46.9815-24.4799L46.2315-26.7285L12.4385-26.7285ZM55.1196 0L57.7637 0L30.6382-70.459L29.4326-70.459L29.4326-67.1323Z"/>
  </g>
  <line id="Baseline-L" style="fill:none;stroke:#27AAE1;opacity:1;stroke-width:0.5;" x1="263" x2="3036" y1="1556" y2="1556"/>
  <line id="Capline-L" style="fill:none;stroke:#27AAE1;opacity:1;stroke-width:0.5;" x1="263" x2="3036" y1="1485.54" y2="1485.54"/>
  <line id="right-margin-Black-S" style="fill:none;stroke:#00AEEF;stroke-width:0.5;opacity:1.0;" x1="2982.23" x2="2982.23" y1="600.785" y2="720.121"/>
  <line id="left-margin-Black-S" style="fill:none;stroke:#00AEEF;stroke-width:0.5;opacity:1.0;" x1="2884.57" x2="2884.57" y1="600.785" y2="720.121"/>
  <line id="right-margin-Regular-S" style="fill:none;stroke:#00AEEF;stroke-width:0.5;opacity:1.0;" x1="1496.11" x2="1496.11" y1="600.785" y2="720.121"/>
  <line id="left-margin-Regular-S" style="fill:none;stroke:#00AEEF;stroke-width:0.5;opacity:1.0;" x1="1403.58" x2="1403.58" y1="600.785" y2="720.121"/>
  <line id="right-margin-Ultralight-S" style="fill:none;stroke:#00AEEF;stroke-width:0.5;opacity:1.0;" x1="603.773" x2="603.773" y1="600.785" y2="720.121"/>
  <line id="left-margin-Ultralight-S" style="fill:none;stroke:#00AEEF;stroke-width:0.5;opacity:1.0;" x1="515.649" x2="515.649" y1="600.785" y2="720.121"/>
 </g>
 <g id="Symbols">
  <g id="Black-S" transform="matrix(1 0 0 1 2884.57 696)">
   <path class="monochrome-0 multicolor-0:tintColor hierarchical-0:secondary SFSymbolsPreviewWireframe" d="M48.8281 6.73828C72.0215 6.73828 90.8203-12.0605 90.8203-35.2539C90.8203-58.4473 72.0215-77.2461 48.8281-77.2461C25.6348-77.2461 6.83594-58.4473 6.83594-35.2539C6.83594-12.0605 25.6348 6.73828 48.8281 6.73828ZM48.8281-7.42188C33.4473-7.42188 20.9961-19.873 20.9961-35.2539C20.9961-50.6348 33.4473-63.0859 48.8281-63.0859C64.209-63.0859 76.6602-50.6348 76.6602-35.2539C76.6602-19.873 64.209-7.42188 48.8281-7.42188Z" data-clipstroke-keyframes="0 4 0 0.49909934 1.5010297 0 0.24858454 0.2505148 1.749485 0 0.49588796 0.0032113674 1.996659 0 0.7506426 0.7484567 1.251544 0 1 0.49909934 1.5010297"/>
   <path class="monochrome-1 multicolor-1:tintColor hierarchical-1:primary SFSymbolsPreviewWireframe" d="M50.7182-59.2087L51.3042-59.2087C53.5182-59.2087 55.7864-58.8288 58.1089-58.0691C60.4313-57.3094 62.4174-56.1916 64.067-54.7156L58.6624-48.6598C57.6639-49.7451 56.4701-50.6025 55.081-51.2319C53.6918-51.8614 52.2376-52.1761 50.7182-52.1761L50.7182-39.1529L50.9786-39.0878C52.8019-38.6102 54.5926-38.0676 56.3507-37.4598C58.1089-36.8521 59.6717-36.0598 61.0391-35.0831C62.4065-34.1064 63.5135-32.88 64.36-31.404C65.2065-29.9281 65.6298-28.0831 65.6298-25.8692C65.6298-23.6986 65.2391-21.7777 64.4577-20.1064C63.6763-18.4351 62.6127-17.0025 61.267-15.8087C59.9213-14.6149 58.3476-13.6707 56.5461-12.9761C54.7445-12.2816 52.8019-11.8258 50.7182-11.6087L50.7182-6.92034L47.2019-6.92034L47.2019-11.5436C44.3368-11.5002 41.5911-11.9343 38.9647-12.8459C36.3383-13.7575 34.0267-15.2552 32.0298-17.3389L37.9554-23.3947C38.9973-21.9188 40.343-20.7901 41.9926-20.0087C43.6422-19.2273 45.3786-18.7498 47.2019-18.5761L47.2019-32.3157L46.8763-32.3808C45.0531-32.9017 43.3166-33.4769 41.667-34.1064C40.0174-34.7358 38.5523-35.5606 37.2717-36.5808C35.9911-37.6009 34.9818-38.8381 34.2438-40.2924C33.5058-41.7467 33.1368-43.5591 33.1368-45.7296C33.1368-47.6831 33.5275-49.4412 34.3089-51.004C35.0903-52.5668 36.1321-53.9234 37.4345-55.0738C38.7368-56.2242 40.2345-57.1467 41.9275-57.8412C43.6205-58.5358 45.3786-58.9699 47.2019-59.1435L47.2019-63.5063L50.7182-63.5063L50.7182-59.2087ZM47.2019-52.0459C45.6825-51.7854 44.3259-51.1451 43.1321-50.125C41.9383-49.1048 41.3414-47.7699 41.3414-46.1203C41.3414-45.1219 41.5042-44.3188 41.8298-43.711C42.1554-43.1033 42.5786-42.5823 43.0996-42.1482C43.6205-41.7141 44.2391-41.356 44.9554-41.0738C45.6717-40.7916 46.4205-40.4769 47.2019-40.1296L47.2019-52.0459ZM50.7182-18.5761C51.6298-18.7498 52.4872-19.0211 53.2903-19.3901C54.0934-19.7591 54.7988-20.2149 55.4065-20.7575C56.0143-21.3002 56.5027-21.9513 56.8717-22.711C57.2407-23.4707 57.4251-24.3281 57.4251-25.2831C57.4251-26.2382 57.2189-27.0413 56.8065-27.6924C56.3941-28.3436 55.8624-28.8862 55.2112-29.3203C54.56-29.7544 53.8438-30.1234 53.0624-30.4273C52.281-30.7312 51.4996-31.0133 50.7182-31.2738L50.7182-18.5761Z"/>
  </g>
  <g id="Regular-S" transform="matrix(1 0 0 1 1403.58 696)">
   <path class="monochrome-0 multicolor-0:tintColor hierarchical-0:secondary SFSymbolsPreviewWireframe" d="M46.2402 4.15039C68.0176 4.15039 85.6934-13.4766 85.6934-35.2539C85.6934-57.0312 68.0176-74.6582 46.2402-74.6582C24.5117-74.6582 6.83594-57.0312 6.83594-35.2539C6.83594-13.4766 24.5117 4.15039 46.2402 4.15039ZM46.2402-3.27148C28.5645-3.27148 14.3066-17.5781 14.3066-35.2539C14.3066-52.9297 28.5645-67.2363 46.2402-67.2363C63.916-67.2363 78.2227-52.9297 78.2227-35.2539C78.2227-17.5781 63.916-3.27148 46.2402-3.27148Z" data-clipstroke-keyframes="0 4 0 0.49914446 1.5008684 0 0.24828511 0.25085935 1.7491465 0 0.49580374 0.0033407123 1.9966576 0 0.75060123 0.7485432 1.2514638 0 1 0.49914446 1.5008684"/>
   <path class="monochrome-1 multicolor-1:tintColor hierarchical-1:primary SFSymbolsPreviewWireframe" d="M48.0279-57.4627L48.5752-57.4627C50.6427-57.4627 52.7608-57.108 54.9296-56.3986C57.0984-55.6891 58.9531-54.6453 60.4935-53.267L55.4465-47.6118C54.5141-48.6253 53.3993-49.4259 52.1021-50.0137C50.8048-50.6015 49.4468-50.8954 48.0279-50.8954L48.0279-38.7339L48.2712-38.6731C49.9738-38.2271 51.646-37.7204 53.2878-37.1529C54.9296-36.5853 56.389-35.8455 57.666-34.9334C58.9429-34.0213 59.9767-32.8761 60.7672-31.4978C61.5577-30.1194 61.9529-28.3966 61.9529-26.3291C61.9529-24.3022 61.5881-22.5083 60.8584-20.9476C60.1287-19.3869 59.1355-18.0491 57.8788-16.9343C56.6221-15.8195 55.1526-14.9378 53.4702-14.2891C51.7879-13.6405 49.9738-13.2149 48.0279-13.0122L48.0279-8.63401L44.7443-8.63401L44.7443-12.9514C42.0688-12.9108 39.5047-13.3162 37.0521-14.1675C34.5995-15.0188 32.4409-16.4174 30.5761-18.3633L36.1096-24.0184C37.0825-22.6401 38.3392-21.5861 39.8797-20.8564C41.4201-20.1267 43.0417-19.6808 44.7443-19.5186L44.7443-32.3491L44.4403-32.4099C42.7376-32.8963 41.1161-33.4335 39.5756-34.0213C38.0352-34.6091 36.667-35.3793 35.4711-36.332C34.2752-37.2846 33.3327-38.44 32.6435-39.798C31.9544-41.1561 31.6098-42.8485 31.6098-44.8755C31.6098-46.6997 31.9747-48.3415 32.7044-49.8009C33.4341-51.2603 34.407-52.5271 35.6231-53.6014C36.8393-54.6757 38.2379-55.5371 39.8189-56.1857C41.3999-56.8343 43.0417-57.2397 44.7443-57.4019L44.7443-61.476L48.0279-61.476L48.0279-57.4627ZM44.7443-50.7738C43.3255-50.5306 42.0586-49.9327 40.9438-48.98C39.829-48.0273 39.2716-46.7808 39.2716-45.2403C39.2716-44.3079 39.4236-43.558 39.7277-42.9904C40.0317-42.4229 40.427-41.9364 40.9134-41.531C41.3999-41.1257 41.9775-40.7912 42.6464-40.5277C43.3153-40.2642 44.0146-39.9703 44.7443-39.646L44.7443-50.7738ZM48.0279-19.5186C48.8792-19.6808 49.6799-19.9341 50.4298-20.2787C51.1798-20.6233 51.8386-21.0489 52.4061-21.5557C52.9736-22.0624 53.4297-22.6705 53.7743-23.3799C54.1188-24.0893 54.2911-24.89 54.2911-25.7818C54.2911-26.6737 54.0986-27.4236 53.7135-28.0317C53.3283-28.6398 52.8317-29.1465 52.2237-29.5519C51.6156-29.9573 50.9467-30.3019 50.217-30.5856C49.4873-30.8694 48.7576-31.1329 48.0279-31.3761L48.0279-19.5186Z"/>
  </g>
  <g id="Ultralight-S" transform="matrix(1 0 0 1 515.649 696)">
   <path class="monochrome-0 multicolor-0:tintColor hierarchical-0:secondary SFSymbolsPreviewWireframe" d="M44.0606 1.97072C64.6118 1.97072 81.2886-14.7026 81.2886-35.2539C81.2886-55.8052 64.6118-72.4785 44.0606-72.4785C23.5127-72.4785 6.83594-55.8052 6.83594-35.2539C6.83594-14.7026 23.5127 1.97072 44.0606 1.97072ZM44.0606-0.274438C24.7046-0.274438 9.0391-15.898 9.0391-35.2539C9.0391-54.6099 24.7046-70.2334 44.0606-70.2334C63.4165-70.2334 79.04-54.6099 79.04-35.2539C79.04-15.898 63.4165-0.274438 44.0606-0.274438Z" data-clipstroke-keyframes="0 4 0 0.49911258 1.5011578 0 0.24859153 0.25052106 1.7495481 0 0.49577427 0.0033383023 1.9966562 0 0.75064886 0.74846375 1.2516088 0 1 0.49911258 1.5011578"/>
   <path class="monochrome-1 multicolor-1:tintColor hierarchical-1:primary SFSymbolsPreviewWireframe" d="M45.6246-54.9945L46.1096-54.9945C47.9419-54.9945 49.8191-54.6802 51.7412-54.0514C53.6633-53.4227 55.3069-52.4976 56.6722-51.2761L52.1992-46.2642C51.3729-47.1624 50.3849-47.872 49.2352-48.3929C48.0856-48.9139 46.882-49.1743 45.6246-49.1743L45.6246-38.3962L45.8401-38.3423C47.3491-37.9471 48.8311-37.498 50.2861-36.995C51.7412-36.4921 53.0345-35.8364 54.1662-35.028C55.298-34.2197 56.2141-33.2047 56.9147-31.9832C57.6152-30.7617 57.9655-29.2348 57.9655-27.4025C57.9655-25.6061 57.6422-24.0164 56.9955-22.6332C56.3488-21.25 55.4686-20.0644 54.3549-19.0764C53.2411-18.0884 51.9388-17.307 50.4478-16.7321C48.9568-16.1573 47.3491-15.7801 45.6246-15.6004L45.6246-11.7203L42.7145-11.7203L42.7145-15.5465C40.3433-15.5106 38.0709-15.8699 35.8973-16.6244C33.7237-17.3788 31.8106-18.6183 30.1579-20.3428L35.062-25.3547C35.9243-24.1331 37.038-23.199 38.4032-22.5523C39.7685-21.9056 41.2055-21.5104 42.7145-21.3667L42.7145-32.7377L42.445-32.7916C40.9361-33.2227 39.499-33.6987 38.1338-34.2197C36.7685-34.7406 35.556-35.4232 34.4961-36.2675C33.4363-37.1118 32.601-38.1357 31.9902-39.3393C31.3795-40.5428 31.0741-42.0428 31.0741-43.8392C31.0741-45.4559 31.3974-46.9109 32.0441-48.2043C32.6908-49.4977 33.5531-50.6204 34.6309-51.5725C35.7087-52.5245 36.9482-53.288 38.3493-53.8628C39.7505-54.4377 41.2055-54.7969 42.7145-54.9406L42.7145-58.5513L45.6246-58.5513L45.6246-54.9945ZM42.7145-49.0665C41.457-48.851 40.3343-48.3211 39.3463-47.4768C38.3583-46.6325 37.8643-45.5277 37.8643-44.1625C37.8643-43.3362 37.999-42.6715 38.2685-42.1685C38.5379-41.6656 38.8882-41.2344 39.3194-40.8752C39.7505-40.5159 40.2625-40.2195 40.8552-39.986C41.448-39.7524 42.0678-39.492 42.7145-39.2046L42.7145-49.0665ZM45.6246-21.3667C46.379-21.5104 47.0886-21.735 47.7533-22.0404C48.4179-22.3458 49.0017-22.723 49.5047-23.1721C50.0077-23.6212 50.4119-24.1601 50.7172-24.7888C51.0226-25.4175 51.1753-26.1271 51.1753-26.9175C51.1753-27.7079 51.0047-28.3725 50.6634-28.9114C50.322-29.4503 49.8819-29.8994 49.343-30.2587C48.8041-30.618 48.2113-30.9234 47.5646-31.1748C46.9179-31.4263 46.2713-31.6599 45.6246-31.8754L45.6246-21.3667Z"/>
  </g>
 </g>
</svg>
