<?xml version='1.0' encoding='utf-8'?>
<svg xmlns="http://www.w3.org/2000/svg" width="512" height="512" viewBox="0 0 108 108"><rect width="100%" height="100%" fill="#ffffff" /><g transform="translate(54.0 52.75) scale(0.6 0.54) translate(-54.0 -54.0)"><path d="M32,33h44c4.42,0 8,3.58 8,8v38c0,4.42 -3.58,8 -8,8H32c-4.42,0 -8,-3.58 -8,-8V41c0,-4.42 3.58,-8 8,-8z" fill="none" stroke="#000000" stroke-width="7" stroke-linejoin="round" /><path d="M39,23v18M69,23v18M25,50h58" fill="none" stroke="#000000" stroke-width="7" stroke-linecap="round" /><path d="M39,64h3M53,64h3M67,64h3M39,76h3M53,76h3" fill="none" stroke="#000000" stroke-width="7" stroke-linecap="round" /></g></svg>