<svg xmlns="http://www.w3.org/2000/svg" viewBox="0 0 108 108">
  <rect width="108" height="108" fill="#000000"/>
  <g transform="translate(16.32343 16.32343) scale(3.1397142)">
    <path
      fill="#ffffff"
      d="M19 14.87V9.13c0-.72-.38-1.38-1-1.73l-5-2.88c-.31-.18-.65-.27-1-.27s-.69.09-1 .27L6 7.39C5.38 7.75 5 8.41 5 9.13v5.74c0 .72.38 1.38 1 1.73l5 2.88c.31.18.65.27 1 .27s.69-.09 1-.27l5-2.88c.62-.35 1-1.01 1-1.73zM11 17.17l-4-2.3v-4.63l4 2.33v4.6zm1-6.33L8.04 8.53 12 6.25l3.96 2.28L12 10.84zm5 4.03-4 2.3v-4.6l4-2.33v4.63z"/>
  </g>
</svg>
