<?xml version='1.0' encoding='utf-8'?>
<svg xmlns="http://www.w3.org/2000/svg" width="512" height="512" viewBox="0 0 108 108"><rect width="100%" height="100%" fill="#ffffff" /><g transform="translate(54.0 52.75) scale(0.6 0.54) translate(-54.0 -54.0)"><path d="M23,35h62c4.42,0 8,3.58 8,8v30c0,4.42 -3.58,8 -8,8H23c-4.42,0 -8,-3.58 -8,-8V43c0,-4.42 3.58,-8 8,-8z" fill="none" stroke="#000000" stroke-width="7" stroke-linejoin="round" /><path d="M32,50h2M46,50h2M60,50h2M74,50h2M32,62h2M46,62h2M60,62h2M74,62h2M36,73h36" fill="none" stroke="#000000" stroke-width="7" stroke-linecap="round" /></g></svg>