<?xml version='1.0' encoding='utf-8'?>
<svg xmlns="http://www.w3.org/2000/svg" width="512" height="512" viewBox="0 0 108 108"><rect width="100%" height="100%" fill="#ffffff" /><g transform="translate(54.0 51.0) scale(0.68 0.68) translate(-54.0 -54.0)"><path d="M54,17C39,17 28,29 28,44C28,52 32,59 38,65C42,69 44,72 44,77H64C64,72 66,69 70,65C76,59 80,52 80,44C80,29 69,17 54,17Z" fill="#000000" stroke="none" /><path d="M43,81H65V86H43Z" fill="#000000" stroke="none" /><path d="M46,89H62V94H46Z" fill="#000000" stroke="none" /><path d="M49,97H59C58,101 56,103 54,103C52,103 50,101 49,97Z" fill="#000000" stroke="none" /></g></svg>