<?xml version='1.0' encoding='utf-8'?>
<svg xmlns="http://www.w3.org/2000/svg" width="512" height="512" viewBox="0 0 108 108"><rect width="100%" height="100%" fill="#ffffff" /><g transform="translate(54.0 52.75) scale(0.6 0.54) translate(-54.0 -54.0)"><g transform="translate(-2.5 0.0) scale(1.0 1.0) translate(-0.0 -0.0)"><path d="M70.571,19.208 C62.514,20.694 52.97,22.454 49.372,23.158 L42.801,24.371 L42.801,50.381 C42.801,75.023 42.761,76.391 42.096,76.118 C40.102,75.296 38.381,75.062 35.369,75.218 C32.67,75.335 31.536,75.609 29.463,76.587 C20.78,80.616 18.746,89.455 25.591,93.288 C27.585,94.423 28.016,94.501 31.653,94.501 C35.213,94.501 35.799,94.384 38.185,93.249 C41.392,91.724 44.091,89.299 45.46,86.678 L46.516,84.723 L46.634,61.568 C46.712,40.055 46.79,38.412 47.416,38.217 C47.768,38.099 49.137,37.826 50.428,37.63 C57.116,36.496 81.405,32.076 82.031,31.88 C82.657,31.685 82.696,32.702 82.696,49.521 C82.696,66.378 82.657,67.395 82.031,67.122 C75.382,64.501 66.229,67.943 63.296,74.162 C61.027,78.973 63.139,83.667 68.381,85.309 C69.359,85.622 71.04,85.74 72.996,85.583 C78.472,85.231 83.557,82.024 85.473,77.76 L86.412,75.727 L86.529,46.079 C86.608,17.956 86.608,16.47 85.943,16.509 C85.551,16.509 78.628,17.761 70.571,19.208 Z" fill="#000000" stroke="none" /></g></g></svg>