<?xml version='1.0' encoding='utf-8'?>
<svg xmlns="http://www.w3.org/2000/svg" width="512" height="512" viewBox="0 0 108 108"><rect width="100%" height="100%" fill="#ffffff" /><g transform="translate(54.0 52.75) scale(0.6 0.54) translate(-54.0 -54.0)"><path d="M54,39m-12,0a12,12 0,1 1,24 0a12,12 0,1 1,-24 0" fill="none" stroke="#000000" stroke-width="7" stroke-linecap="round" stroke-linejoin="round" /><path d="M54,27v-4M54,51v4M42,39h-6M72,39h-6M45,30l-4,-4M63,30l4,-4" fill="none" stroke="#000000" stroke-width="7" stroke-linecap="round" /><path d="M31,62c4,-9 14,-14 25,-12c9,2 16,8 19,16c7,0 13,5 13,12c0,6 -6,11 -13,11H34c-9,0 -16,-6 -16,-14c0,-7 6,-13 13,-13z" fill="none" stroke="#000000" stroke-width="7" stroke-linecap="round" stroke-linejoin="round" /></g></svg>