<svg height="756" viewBox="0 0 1024 756" width="1024" xmlns="http://www.w3.org/2000/svg"><path d="m921.951824 519.290355c20.117781 0 36.321018 16.228012 36.321018 36.321018v165.377077c0 20.117781-16.228013 36.321019-36.321018 36.321019h-190.672957c-20.117781 0-36.321018-16.228013-36.321018-36.321019 0-20.11778 16.228013-36.321018 36.321018-36.321018h154.351939v-129.056059c0-20.117781 16.228013-36.321018 36.321018-36.321018zm-815.835474 0c20.11778 0 36.321018 16.228012 36.321018 36.321018v129.056059h154.351939c20.117781 0 36.321018 16.228013 36.321018 36.321018 0 20.117781-16.228013 36.321019-36.321018 36.321019h-190.672957c-20.1177812 0-36.3210185-16.228013-36.3210185-36.321019v-165.377077c0-20.117781 16.2280129-36.321018 36.3210185-36.321018zm61.616897-359.890252 9.067867 3.889768c.644165 0 .644165.644165 1.288331.644165l127.767729 77.17597 8.423701 3.889768c2.601437 1.313106 3.889768 3.245602 3.889768 5.847039v38.253515l106.361617 62.905228c1.878981 1.236798 3.141466 3.067258 3.239458 4.943385l.65031 31.352858 58.371295 34.363746c3.168327 1.91067 2.629907 5.049052 2.602472 8.815906l-.001034 70.961501 22.050277-9.067867c1.28833-.644165 3.245602-.644165 4.533933 0l24.651714 9.067867v-70.684765c0-3.245602-1.288331-7.779536 1.957272-9.736807l58.371295-34.363747.644165-31.118143c0-1.932497 1.288331-4.533934 3.245603-5.178099l107.005783-63.549394v-36.965184c0-2.508528 1.796925-4.418082 3.680242-5.706445l.448507-.293741c2.889762-1.824537 28.931545-17.838872 55.24322-34.006325l57.370621-35.236962c.644165 0 .644165-.644165 1.288331-.644165l32.43125-12.31347v13.626576l-27.897317 11.025138-31.118144 19.44884 59.015461-25.940045v475.369287l-.83966.090586c-1.548088.150976-4.827757.392538-6.295711-.090586-1.221337-.417419-133.748277-58.398612-233.235869-101.941457l-107.899259-47.232383-117.457713 51.449193c-96.187174 42.151012-216.656013 94.994377-217.830376 95.767376-1.932496 1.313106-3.220827 1.957271-5.178099 1.957271h-5.84704v-477.326558l9.067867 5.178098h.644165l24.651715 11.025139-30.473979-19.44884-3.889768-1.957272zm-159.15840374-52.350827c1.06535046-.074326 2.20502774.074327 3.49335854.39641l7.1353705 3.245602 27.8973168 9.736808v17.516344l-31.1181438-14.270741v518.825675h31.1181438v12.982411h-38.25351433c-3.88976797 0-6.49120514-2.601437-6.49120514-6.491205v-535.673079c0-1.957272 1.28833079-4.558709 3.24560257-5.202874.9662481-.644165 1.93249619-.966248 2.99784665-1.040575zm1010.89995674-3.206598.31584.010547v.024776c2.52711.148653 4.95512 1.858169 5.92136 4.286177v3.245603c.64417.644165.64417 1.28833.64417 1.28833v535.673079c-.64417 3.889768-3.2456 6.491205-7.13537 6.491205h-38.253515v-12.98241h31.787085v-518.825676l-31.787085 14.914906v-20.093005l36.321015-13.626575c.7154-.281823 1.44976-.406957 2.1865-.406957zm-170.809177 96.437152-123.877961 55.769858.644165 328.152718 19.44884 8.423701v-129.700225c0-3.245602 1.932496-5.847039 5.178099-6.491205l62.905228-11.025138c1.957272-.668941 3.914544 0 5.202875 1.288331 1.313106 1.28833 2.601437 3.220826 2.601437 5.178098v174.444945l27.897317 12.313469zm-667.974741-.693717v438.379328l25.940045-11.669304v-173.156614c0-1.932496.644165-3.889767 2.601437-5.178098 1.313107-1.288331 3.245603-1.932496 5.202875-1.288331l62.905228 11.025138c3.245603.644166 5.178099 3.245603 5.178099 6.491206v128.411894l22.050277-9.736808v-327.508553l-7.135371-3.889768zm38.972007 260.713557v160.818368l49.922818-22.050277v-129.700225zm588.197333-1.313107-49.922818 8.423702v131.013331l49.922818 21.406112zm-95.980644-134.173778-95.311703 42.157229v167.953739l19.44884 8.423702.644165-61.616898c0-2.601437 1.932497-5.202875 4.533934-5.84704l38.253514-5.84704.757522.003267c1.532633.02069 2.663762.172415 3.776411 1.285064 1.313107 1.288331 1.957272 2.576662 1.957272 4.533934l-.644165 89.489438 26.58421 11.669304zm-393.659384-.06038v251.571363l24.007549-10.380973-.644165-88.845274c0-1.932496.668941-3.245602 1.957271-4.533933 1.288331-1.288331 2.576662-1.288331 4.533934-1.288331l38.253514 5.84704c2.601437.668941 4.533933 2.601437 4.533933 5.847039l.644166 61.616898 22.050277-9.736808v-167.953739zm35.032688 158.885872.644165 77.17597 27.253151-11.669304-.668941-61.616898zm321.661513-1.957271-27.228376 3.889768-.668941 62.261063 27.253151 12.338245zm-248.326225-61.575221v109.565543l12.313934-5.178099v-39.566621c0-1.288331.644165-2.601437 1.28833-3.245602.644166-.644166 1.957272-1.288331 3.245603-1.288331l20.093005 1.288331c2.576662 0 4.533934 1.932496 4.533934 4.533933v24.651714l8.423701-3.245602v-70.684765zm176.997295-.654-49.922818 16.19617v71.32893l7.779536 3.245603v-24.007549c0-2.601437 1.932496-4.533933 4.533933-4.533933l20.093005-1.288331c1.288331 0 2.601437.644165 3.245603 1.288331.644165.644165 1.288331 1.957271 1.288331 3.245602v38.253515l12.98241 5.847039zm-155.665046 70.652922v30.473978l11.025139-5.178098v-23.982774l-11.000363-1.28833zm134.258934-.644165-11.025138.644165v24.007549l11.025138 5.178099zm-5.202874-49.922819c8.423701 0 14.914906 7.754761 14.914906 16.847403s-6.491205 16.872178-14.914906 16.872178c-8.423702 0-14.914907-7.804311-14.914907-16.872178s6.491205-16.847403 14.914907-16.847403zm-123.20902 0c8.423701 0 14.914906 7.754761 14.914906 16.847403s-6.491205 16.872178-14.914906 16.872178-14.914907-7.804311-14.914907-16.872178 6.491206-16.847403 14.914907-16.847403zm215.374223-23.611139h-.024776c1.288331-.049551 2.378457.421185 3.840217.916697 1.313106 1.288331 1.957272 2.576662 1.957272 4.533933v30.473979c0 2.576661-1.932497 5.178098-4.533934 5.178098l-40.854951 9.736808c-.644166.644166-3.889768 0-4.533934-.644165-1.313106-1.288331-1.957271-2.576662-1.957271-4.533934v-29.185647c0-2.576662 1.932496-4.533934 3.889768-5.178099l40.854951-11.025138c.495512-.17343.941473-.247756 1.362658-.272532zm-308.538987-.153901.231518.005247c.693716.024776 1.436984.17343 2.155476.421186l40.854952 11.025138c2.601437.644165 3.889768 2.576662 3.889768 5.178099v29.185647c0 1.932497-.668941 3.245603-1.957272 4.533934-.644165 0-1.957272.644165-3.245603.644165h-1.28833l-40.854952-9.736808c-2.576662-.644165-4.533933-2.576661-4.533933-5.178098v-30.473979c0-1.932496.668941-3.245602 1.957271-4.533933.739965-.763088 1.717334-1.072948 2.791105-1.070598zm216.373784 32.832907c-3.245603 0-5.84704 3.245603-5.84704 7.779536s2.601437 7.779536 5.84704 7.779536c3.245602 0 5.84704-3.245603 5.84704-7.779536s-2.601438-7.779536-5.84704-7.779536zm-123.20902 0c-3.245603 0-5.84704 3.245603-5.84704 7.779536s2.601437 7.779536 5.84704 7.779536 5.84704-3.245603 5.84704-7.779536-2.601437-7.779536-5.84704-7.779536zm210.121797-20.093005-29.829813 8.423701v17.516344l29.829813-7.135371zm-296.365633 0v18.160509l29.829813 7.13537v-17.516343zm406.790447-73.533958c1.46176-.024775 2.92352.594615 4.38528 1.560863 1.313107 1.28833 2.601437 3.220827 2.601437 5.178098v47.346157c0 3.245603-1.932496 5.84704-5.178098 6.491205l-35.676853 8.423701h-1.957272c-1.288331 0-2.601437-.644165-3.889768-1.28833-1.313106-1.288331-2.601437-3.220827-2.601437-5.178099v-46.701991c0-3.245603 1.932496-5.84704 5.178099-6.491205l35.676853-9.092643c.396409-.118923.776962-.206133 1.167029-.23626zm-517.2079-.000842.238559.007151c.407191.02122.802913.096923 1.215839.241447l35.676853 9.092643c2.576662.644165 5.178099 3.245602 5.178099 6.491205v46.701991c0 1.932496-.644166 3.889768-2.601437 5.178099-1.932497.644165-3.245603 1.28833-4.533934 1.28833h-1.288331l-35.676852-8.423701c-3.245603-.644165-5.178099-3.245602-5.178099-6.491205v-47.346157c0-1.932496.644165-3.889768 2.601437-5.178098 1.364309-.924956 2.728619-1.504595 4.092928-1.557625zm346.479295 45.662259-22.050277 12.957634 22.050277-7.13537zm-405.576444-59.287992-.024776.024775c.545063 0 1.065351.074327 1.560863.247756l35.676852 9.067867c2.576662.644165 5.178099 3.245602 5.178099 6.491205v46.701991c0 1.932496-.644165 3.889768-2.601437 5.178099-1.932496.644165-3.245603 1.288331-4.533933 1.288331h-1.288331l-35.676853-7.779536c-3.245602-.644166-5.178099-3.245603-5.178099-6.491205v-47.990322c0-1.932497.644166-3.889768 2.601438-5.178099.966248-.991024 2.675764-1.585638 4.286177-1.560862zm634.676345-.024776c1.46176-.024776 2.92352.594614 4.385279 1.560862 1.313107 1.288331 2.601438 3.220827 2.601438 5.178099v47.990322c0 3.157884-1.829449 5.705951-4.917832 6.434712l-35.93712 7.836029h-1.957272c-1.104283 0-2.226769-.473264-3.336253-1.014138l-.553515-.274193c-1.313106-1.28833-2.601437-3.220827-2.601437-5.178098v-46.701992c0-3.245602 1.932496-5.847039 5.178099-6.491205l35.676853-9.067866c.495512-.148654.966248-.247756 1.46176-.247756zm-406.146283 61.245264v3.245602l11.69408 3.889768zm341.135129-31.787085-22.694443 5.178099v33.719581l22.694443-5.178099zm-504.554935-1.288331v34.388522l22.694443 5.178099v-33.719581zm435.381481-21.827296v.024775c1.139678-.049551 2.205028.247756 3.022623 1.065351l.509755.505614c1.117519 1.130184 2.091682 2.326344 2.091682 4.028319v29.829813c0 2.576662-1.288331 4.533933-3.889768 5.178099l-42.787448 14.270741c-.644165.644165-1.313106.644165-1.957272.644165-1.28833 0-2.601437-.644165-3.245602-1.288331l-.509756-.505613c-1.117518-1.130184-2.091681-2.326344-2.091681-4.02832v-28.541482c0-2.601437 1.28833-4.558709 3.889768-5.202874l42.812223-15.559072c.743268-.247756 1.46176-.39641 2.155476-.421185zm-366.41477.638918.256294.005247c.693716.024776 1.436984.173429 2.155476.421185l42.168058 15.559072c1.932496.644165 3.889768 3.220827 3.889768 5.178099v28.541482c0 1.932496-.644165 3.245602-2.601437 4.533933-.644165 0-1.957272.644166-3.245603.644166h-1.957271l-42.168058-14.270741c-2.601437-.644166-3.889768-3.220827-3.889768-5.178099v-29.829813c0-1.932496.644165-3.889768 2.601437-4.533934.739964-.763088 1.717334-1.072948 2.791104-1.070597zm-127.982171 8.205968v34.363746l22.694442 5.202875v-33.719581zm621.94169 0-22.694443 5.84704v33.719581l22.694443-5.202875zm-132.945828 5.22765-31.787084 11.025138v16.847403l31.787084-10.380973zm-354.736928-.668941v18.135733l31.118143 10.380974v-16.847403zm436.025646-93.825168c1.214004-.049551 2.428008.247756 3.642012 1.065351 1.957272 1.313106 2.601437 3.245602 2.601437 5.202874v47.990322c0 3.245603-1.932496 5.202875-4.533933 6.491205l-35.676853 9.736808h-1.957271c-1.288331 0-2.601438-.644165-3.889768-1.288331-1.313107-1.313106-2.601438-3.245602-2.601438-5.202874v-44.744719c0-2.601438 1.932497-5.202875 4.533934-5.84704l35.676853-12.982411c.61585-.212362 1.249903-.351914 1.870954-.403054zm-518.937166-.005245.28492.005245c.718492.024776 1.46176.17343 2.180252.421185l36.321018 12.982411c2.576662.668941 4.533933 3.245602 4.533933 5.84704v44.744719c0 1.957272-.644165 3.914544-2.601437 5.202874l-.553514.274193c-1.109484.540874-2.23197 1.014138-3.336254 1.014138h-1.957272l-36.321018-9.736808c-2.576661-.644165-4.533933-3.245602-4.533933-6.491205v-47.990322c0-1.957272 1.313106-3.914543 2.601437-5.202874 1.12729-.759195 2.254579-1.069775 3.381868-1.070596zm456.428347 35.459118-55.769858 33.075415 55.769858-24.651714zm-393.659384 1.288331v7.13537l46.057826 20.093005zm-55.769858-21.406112.024776.024776v33.719581l23.338608 6.491205v-31.787085zm505.1991 0-22.694442 8.423701v31.787085l22.694442-6.491205zm-570.594275-34.146012.260143.005246.024776.024776c.718492.024775 1.46176.173429 2.180252.421185l35.676853 12.957634c2.601437.668941 4.533933 3.245603 4.533933 5.84704v45.388885c0 1.932496-.644165 3.889768-2.601437 5.178099l-.553514.274193c-1.109484.540873-2.23197 1.014137-3.336254 1.014137h-1.957272l-35.676852-10.380973c-2.601438-.644165-4.533934-3.245602-4.533934-6.491205v-47.990322c0-1.932496 1.313107-3.889768 2.601437-5.178099 1.12729-.759195 2.254579-1.069774 3.381869-1.070596zm635.679756-.01953c1.214004-.049551 2.428008.247756 3.642012 1.065351 1.957272 1.288331 2.601437 3.220827 2.601437 5.178099v47.990322c0 2.601437-1.932496 5.202874-4.533933 6.491205l-35.676853 10.380973h-1.957272c-1.288331 0-2.601437-.644165-3.889768-1.288331-1.957272-1.288331-2.601437-3.220827-2.601437-5.178099v-45.388885c0-2.601437 1.932496-5.202874 4.533933-5.847039l35.676853-12.957635c.718492-.247756 1.46176-.396409 2.180252-.421185zm-6.738961 16.005033-22.694443 7.779536v32.43125l22.694443-6.491205zm-621.917786-1.280053.000871 34.355468 22.694443 6.491206v-32.431251zm717.89843-261.36599968c20.117781 0 36.321018 16.22801288 36.321018 36.32101808v165.3770776c0 20.117781-16.228013 36.321018-36.321018 36.321018-20.117781 0-36.321018-16.228013-36.321018-36.321018v-129.0560594h-154.35194c-20.11778 0-36.321018-16.2280129-36.321018-36.3210182 0-20.1177808 16.228013-36.32101808 36.321018-36.32101808zm-625.187293 0c20.117781 0 36.321018 16.22801288 36.321018 36.32101808 0 20.1177809-16.228013 36.3210182-36.321018 36.3210182h-154.351939v129.0560594c0 20.117781-16.203238 36.321018-36.321018 36.321018-20.1177812 0-36.3210185-16.228013-36.3210185-36.321018v-165.3770776c0-20.1177808 16.2280129-36.32101808 36.3210185-36.32101808z"/></svg>