<svg height="1024" viewBox="0 0 1024 1024" width="1024" xmlns="http://www.w3.org/2000/svg"><path d="m793.152 0c127.49383 0 230.848 103.35417 230.848 230.848v562.304c0 127.49383-103.35417 230.848-230.848 230.848h-562.304c-127.49383 0-230.848-103.35417-230.848-230.848v-562.304c0-127.49383 103.35417-230.848 230.848-230.848zm-281.248 186.688c-188.256 0-341.408 124.288-341.408 277.056 0 136.96 121.6 251.68 285.504 273.344l1.838479.411672c10.900747 2.534455 24.639359 7.430058 28.241521 16.420328 3.168 7.92 2.437111 19.954 1.405963 28.608963l-.308061 2.404147c-.3198 1.926323-4.015467 24.185499-4.841902 29.08289l-.411906 2.360869c-.146485.872997-.294355 1.822318-.420213 2.818818l-.0899.755765c-.040078.359904-.076674.724792-.108758 1.093377l-.057842.741716c-.699894 10.19372 2.486923 22.508061 30.656619 10.661455 36.08352-15.17472 193.417171-113.775552 266.049169-195.760788l2.174831-2.479212c49.472-54.24 73.184-109.408 73.184-170.464 0-152.768-153.152-277.056-341.408-277.056zm95.584 203.232c1.719798 0 3.367365.691482 4.571346 1.919543s1.86305 2.889003 1.831126 4.608457v148.608c0 3.534622-2.86785 6.4-6.402472 6.4h-24.064c-.582593-.00942-1.162261-.084563-1.728-.224h-.992l-.32-.16h-.192l-.384-.256-.472513-.356805c-.455016-.377878-.856201-.817633-1.191487-1.307195l-68.256-92.16v89.376c0 3.534622-2.865378 6.4-6.4 6.4h-24.224c-3.534622 0-6.4-2.865378-6.4-6.4v-148.992c0-3.534622 2.865378-6.4 6.4-6.4h27.104l.352.192h.192l.352.256h.192l.352.288.384.384.290973.320641.253027.351359 68.16 92.064v-88.512c0-3.534622 2.865378-6.4 6.4-6.4zm132.224.288c3.534622 0 6.4 2.865378 6.4 6.4v24.224c0 3.534622-2.865378 6.4-6.4 6.4h-65.184v25.12h65.184c3.534622 0 6.4 2.865378 6.4 6.4v24.448c0 3.534622-2.865378 6.4-6.4 6.4h-65.184v25.152h65.184c3.534622 0 6.4 2.865378 6.4 6.4v24.192c.060792 1.735855-.586557 3.421867-1.793442 4.670993s-2.86964 1.953008-4.606558 1.953008h-96c-3.373958 0-6.138128-2.61081-6.382446-5.922361l-.017554-.47764v-148.96c0-3.534622 2.865378-6.4 6.4-6.4zm-426.368-.032c3.534622 0 6.4 2.865378 6.4 6.4v118.4h65.184c3.534622 0 6.4 2.865378 6.4 6.4v24.192c0 3.534622-2.865378 6.4-6.4 6.4l.096-.096h-96c-3.534622 0-6.4-2.865378-6.4-6.4v-148.896c0-3.534622 2.865378-6.4 6.4-6.4zm129.312-.256c3.605315 0 6.528 2.922685 6.528 6.528v148.992c0 3.605315-2.922685 6.528-6.528 6.528h-24.192c-3.605315 0-6.528-2.922685-6.528-6.528v-148.992c0-3.605315 2.922685-6.528 6.528-6.528z"/></svg>